<?xml version="1.0" standalone="no"?>
<!DOCTYPE svg PUBLIC "-//W3C//DTD SVG 1.1//EN" "http://www.w3.org/Graphics/SVG/1.1/DTD/svg11.dtd" >
<svg>
<metadata>
Created by FontForge 20090914 at Sun Sep 26 00:13:48 2021
 By www-data
Copyright &#194;&#169; 2014 ParaType, Inc., ParaType Ltd. All rights reserved.
</metadata>
<defs>
<font id="Stem-Regular" horiz-adv-x="622" >
  <font-face 
    font-family="Stem"
    font-weight="700"
    font-stretch="normal"
    units-per-em="1000"
    panose-1="2 11 7 3 2 2 3 2 2 4"
    ascent="800"
    descent="-200"
    x-height="520"
    cap-height="700"
    bbox="-538 -296.002 1338 994"
    underline-thickness="50"
    underline-position="-175"
    unicode-range="U+0020-U+FEFF"
  />
<missing-glyph horiz-adv-x="236" 
 />
    <glyph glyph-name="uniF3D6" unicode="&#xf350;`" 
d="M150 0h-155l261 559h110l261 -559h-157l-42 85h-235zM373 210l-63 124l-66 -124h129zM343 853l109 -82l-132 -164l-100 70z" />
    <glyph glyph-name="uniF3D7" unicode="&#xf355;`" horiz-adv-x="554" 
d="M513 0h-460v560h453v-140h-303v-69h282v-135h-282v-76h310v-140zM318 853l109 -82l-132 -164l-100 70z" />
    <glyph glyph-name="uniF3D8" unicode="&#xf358;`" horiz-adv-x="644" 
d="M441 311l-266 -311h-122v560h150v-311l264 311h124v-560h-150v311zM348 853l109 -82l-132 -164l-100 70z" />
    <glyph glyph-name="uniF3D9" unicode="&#xf35e;`" horiz-adv-x="664" 
d="M24 280c0 82.667 30.5 151.667 91.5 207s133.167 83 216.5 83c84.667 0 157.167 -27.5 217.5 -82.5s90.5 -124.167 90.5 -207.5s-30.5 -152.5 -91.5 -207.5s-133.167 -82.5 -216.5 -82.5s-155.5 27.833 -216.5 83.5s-91.5 124.5 -91.5 206.5zM179 280
c0 -42 15.001 -76.667 45.001 -104s66 -41 108 -41c44 0 80.5 13.333 109.5 40s43.5 61.667 43.5 105c0 42 -15 76.667 -45 104s-66 41 -108 41c-42.667 0 -78.834 -13.667 -108.501 -41s-44.5 -62 -44.5 -104zM378.001 853l109 -82l-132 -164l-100 70z" />
    <glyph glyph-name="uniF3DA" unicode="&#xf363;`" horiz-adv-x="630" 
d="M155 24l63.999 120c4.66699 -4.66699 11.667 -7 21 -7c20 0 33.333 11 40 33l-280 390h187l166 -237l120 237h158l-214 -427c-22 -42.667 -46.167 -75.5 -72.5 -98.5s-60.166 -34.5 -101.499 -34.5c-34 0 -63.333 8 -88 24zM347.999 853l109 -82l-132 -164l-100 70z" />
    <glyph glyph-name="uniF3DB" unicode="&#xf36b;`" horiz-adv-x="777" 
d="M724 0h-151v560h151v-560zM275 245h-72v-105h70c36 0 62.333 3.66699 79 11c16 7.33301 24 21.333 24 42c0 34.667 -33.667 52 -101 52zM53 560l149.999 0.000976562v-174h99c70.667 0 126.5 -15.5 167.5 -46.5s61.5 -79.833 61.5 -146.5
c0 -34.667 -6.83301 -64.834 -20.5 -90.501s-32.167 -45.667 -55.5 -60s-49.166 -25 -77.499 -32s-58.833 -10.5 -91.5 -10.5h-233v560zM377.999 853.001l109 -82l-132 -164l-100 70z" />
    <glyph glyph-name="uniF3DC" unicode="&#xf36d;`" horiz-adv-x="604" 
d="M425 216l-217 0.000976562v140h215c-12 26 -32.167 44.833 -60.5 56.5s-58.833 17.5 -91.5 17.5c-72 0 -127.667 -22.667 -167 -68l-98 97c30 38 69.167 66 117.5 84s99.166 27 152.499 27c91.333 0 164.833 -25.833 220.5 -77.5s83.5 -121.834 83.5 -210.501
c0 -90.667 -29.333 -162 -88 -214s-133 -78 -223 -78c-55.333 0 -107.5 11 -156.5 33s-87.833 54.333 -116.5 97l99 85c10.667 -14 24.667 -26.667 42 -38c32.667 -24.667 77.667 -37 135 -37c34.667 0 66.834 6.83301 96.501 20.5s48.5 35.5 56.5 65.5zM308 853.001
l109 -82l-132 -164l-100 70z" />
    <glyph glyph-name="uniF3DD" unicode="&#xf36e;`" horiz-adv-x="878" 
d="M203 0h-150.002v560h150v-212h57c13.333 67.333 48 121.166 104 161.499s119.333 60.5 190 60.5c88.667 0 160.834 -26.667 216.501 -80s83.5 -123.333 83.5 -210c0 -84 -29.167 -153.333 -87.5 -208s-129.166 -82 -212.499 -82c-76.667 0 -142.5 20.333 -197.5 61
s-87.5 97.334 -97.5 170.001h-56v-221zM404.998 280c0 -43.333 14 -79.167 42 -107.5s63.667 -42.5 107 -42.5c44.667 0 80 13.667 106 41s39 63.666 39 108.999c0 44.667 -13 80.834 -39 108.501s-61.333 41.5 -106 41.5c-44 0 -79.833 -14 -107.5 -42
s-41.5 -64 -41.5 -108zM517.998 852.999l109 -82l-132 -164l-100 70z" />
    <glyph glyph-name="uniF3DE" unicode="&#xf36f;`" horiz-adv-x="601" 
d="M548 0h-150v174h-81l-143 -174h-176l169 202c-84 30.667 -126 85.667 -126 165c0 44.667 13.167 82.167 39.5 112.5s57.833 51.333 94.5 63s76.667 17.5 120 17.5h253v-560zM286 314l112 -0.000976562v106h-110c-61.333 0 -92 -17.333 -92 -52
c0 -19.333 9.5 -33.166 28.5 -41.499s39.5 -12.5 61.5 -12.5zM338 852.999l109 -82l-132 -164l-100 70z" />
    <glyph glyph-name="uniF3DF" unicode="&#xf371;`" horiz-adv-x="564" 
d="M55 700c0 20 7.83203 36.668 23.499 50.001s33.834 20 54.501 20c20 0 38.167 -6.83301 54.5 -20.5s24.5 -30.167 24.5 -49.5c0 -9.33301 -2.66699 -20 -8 -32c-6.66699 -12 -16.667 -21.667 -30 -29s-27 -11 -41 -11c-22 0 -40.5 6.66699 -55.5 20
s-22.5 30.666 -22.5 51.999zM358.999 700.001c0 14 4.33301 26.833 13 38.5s20 20.167 34 25.5c12.667 4 24 6 34 6c9.33301 0 20.333 -2 33 -6c13.333 -6 24.333 -14.667 33 -26s13 -24 13 -38c0 -21.333 -7.66699 -38.666 -23 -51.999s-34 -20 -56 -20s-41 6.66699 -57 20
s-24 30.666 -24 51.999zM256.999 833.001l129 -32l-96 -174l-70 22zM522.999 0.000976562h-470v560h463v-140h-313v-69h292v-135h-292v-76h320v-140z" />
    <glyph glyph-name="uniF460" unicode="&#x410;`" horiz-adv-x="721" 
d="M156 0h-160l307 700h115l307 -700h-162l-57 130h-293zM449 261l-90 209l-92 -209h182zM488 974l69 -128l-240 -113l-57 99z" />
    <glyph glyph-name="uniF461" unicode="&#x415;`" horiz-adv-x="649" 
d="M609 0h-544v700h535v-145h-380v-130h355v-140h-355v-140h389v-145zM468 974l69 -128l-240 -113l-57 99z" />
    <glyph glyph-name="uniF462" unicode="&#x418;`" horiz-adv-x="753" 
d="M533 427l-341 -427h-127v700h155v-429l339 429h129v-700h-155v427zM508 974l69 -128l-240 -113l-57 99z" />
    <glyph glyph-name="uniF463" unicode="&#x41e;`" horiz-adv-x="781" 
d="M30 350c0 101.333 35.168 187 105.501 257s155.5 105 255.5 105c70.667 0 136.167 -19 196.5 -57s104.166 -89 131.499 -153c21.333 -52 32 -102.667 32 -152c0 -100.667 -35 -186.167 -105 -256.5s-155 -105.5 -255 -105.5c-101.333 0 -186.833 35.167 -256.5 105.5
s-104.5 155.833 -104.5 256.5zM191.001 350c0 -58.667 19 -108.667 57 -150s85.667 -62 143 -62c60 0 108.167 20.333 144.5 61s54.5 91 54.5 151c0 58 -19 107.833 -57 149.5s-85.333 62.5 -142 62.5c-58.667 0 -106.667 -20.667 -144 -62s-56 -91.333 -56 -150z
M503.001 974l69 -128l-240 -113l-57 99z" />
    <glyph glyph-name="uniF464" unicode="&#x423;`" horiz-adv-x="728" 
d="M405 352l161.001 348h162l-254 -536c-26 -53.333 -53.5 -94 -82.5 -122s-68.167 -42 -117.5 -42c-57.333 0 -104.333 26.667 -141 80l100 91c11.333 -17.333 25.666 -26 42.999 -26c20 0 36.667 14 50 42l-326 513h192zM508.001 974l69 -128l-240 -113l-57 99z" />
    <glyph glyph-name="uniF465" unicode="&#x42b;`" horiz-adv-x="900" 
d="M835 0h-155v700h155v-700zM321 323l-101 -0.000976562v-178h99c20 0 37 1 51 3s28.333 5.83301 43 11.5s25.667 14.834 33 27.501s11 29 11 49c0 58 -45.333 87 -136 87zM65 699.999l154.999 -0.00195312v-232h104c40 0 76.833 -4.16699 110.5 -12.5
s64.667 -21.166 93 -38.499s50.5 -41.5 66.5 -72.5s24 -67.167 24 -108.5c0 -43.333 -8.16699 -80.666 -24.5 -111.999s-39.166 -55.833 -68.499 -73.5s-61.333 -30.5 -96 -38.5s-72.667 -12 -114 -12h-250v700zM567.999 973.997l69 -128l-240 -113l-57 99z" />
    <glyph glyph-name="uniF466" unicode="&#x42d;`" horiz-adv-x="707" 
d="M517 285l-309.999 0.000976562v145h308c-12 44 -36.333 77.167 -73 99.5s-79.334 33.5 -128.001 33.5c-39.333 0 -77 -7.5 -113 -22.5s-66 -37.167 -90 -66.5l-102 100c33.333 44.667 78 78.167 134 100.5s115 33.5 177 33.5c110 0 197 -32.167 261 -96.5
s96 -150.5 96 -258.5c0 -110 -33.667 -197.667 -101 -263s-155.333 -98 -264 -98c-63.333 0 -122.833 12.667 -178.5 38s-100.167 62.666 -133.5 111.999l103 88c45.333 -62 116.333 -93 213 -93c51.333 0 95.5 12.667 132.5 38s59.833 62 68.5 110zM438.001 974.001
l69 -128l-240 -113l-57 99z" />
    <glyph glyph-name="uniF467" unicode="&#x42e;`" horiz-adv-x="1014" 
d="M220 0h-155v700h155v-278h71c14.667 85.333 54.167 154.333 118.5 207s139.5 79 225.5 79c106 0 190.667 -33.5 254 -100.5s95 -152.833 95 -257.5c0 -102 -33.167 -187.167 -99.5 -255.5s-149.5 -102.5 -249.5 -102.5c-94 0 -172 26.833 -234 80.5
s-99 126.167 -111 217.5h-70v-290zM443 350c0 -60 17.499 -110.5 52.499 -151.5s81.5 -61.5 139.5 -61.5c60.667 0 107.167 20 139.5 60s48.5 91 48.5 153c0 61.333 -16.5 112.166 -49.5 152.499s-79.167 60.5 -138.5 60.5s-106.166 -20.667 -140.499 -62
s-51.5 -91.666 -51.5 -150.999zM707.999 974l69 -128l-240 -113l-57 99z" />
    <glyph glyph-name="uniF468" unicode="&#x42f;`" horiz-adv-x="701" 
d="M636 0h-154.999v231h-119l-179 -231h-183l206 260c-48.667 14.667 -86.834 39.667 -114.501 75s-41.5 78.333 -41.5 129c0 53.333 14.667 98.5 44 135.5s65.333 63 108 78s89.667 22.5 141 22.5h293v-700zM328.001 376h153v179h-147c-82 0 -123 -30 -123 -90
c0 -28 12 -49.833 36 -65.5s51 -23.5 81 -23.5zM498.001 974l69 -128l-240 -113l-57 99z" />
    <glyph glyph-name="uniF469" unicode="&#x401;`" horiz-adv-x="649" 
d="M95 831c0 22 8.5 40.167 25.5 54.5s36.833 21.5 59.5 21.5c21.333 0 40.5 -7.5 57.5 -22.5s25.5 -32.833 25.5 -53.5c0 -21.333 -8.5 -39.5 -25.5 -54.5s-36.167 -22.5 -57.5 -22.5c-18 0 -33.667 4.33301 -47 13c-25.333 14 -38 35.333 -38 64zM414 831
c0 22 8.66699 40.167 26 54.5s37 21.5 59 21.5s41.167 -7.33301 57.5 -22s24.5 -32.667 24.5 -54s-8.16699 -39.5 -24.5 -54.5s-35.5 -22.5 -57.5 -22.5s-41.667 7.33301 -59 22s-26 33 -26 55zM301 971l143 -36l-84 -156l-84 16zM609 0h-544v700h535v-145h-380v-130h355
v-140h-355v-140h389v-145z" />
    <glyph glyph-name="uniF46A" unicode="&#x430;`" horiz-adv-x="532" 
d="M117 346l-68.9971 104.999c25.333 27.333 59.166 47.5 101.499 60.5s84.833 19.5 127.5 19.5c67.333 0 119.666 -19 156.999 -57s56 -91 56 -159v-315h-145v47c-14.667 -16.667 -35.5 -29.667 -62.5 -39s-52.833 -14 -77.5 -14c-54.667 0 -100 15 -136 45
s-54 71.667 -54 125c0 40.667 12.667 74.334 38 101.001s54.833 45 88.5 55s70.167 15 109.5 15s70.666 -4.33301 93.999 -13c1.33301 25.333 -5.33398 44 -20.001 56c-15.333 12 -36.666 18 -63.999 18c-48.667 0 -96.667 -16.667 -144 -50zM235.003 118.999
c22 0 43.499 5.33301 64.499 16s36.167 25 45.5 43v24c-23.333 8.66699 -49.666 13 -78.999 13c-22.667 0 -42 -2 -58 -6c-28.667 -9.33301 -43 -24.333 -43 -45c0 -16 7.16699 -27.5 21.5 -34.5s30.5 -10.5 48.5 -10.5zM328.002 832.999l109 -82l-132 -164l-100 70z" />
    <glyph glyph-name="uniF46B" unicode="&#x435;`" horiz-adv-x="558" 
d="M438 184l86.998 -88.001c-55.333 -69.333 -130 -104 -224 -104c-83.333 0 -151 24.667 -203 74s-78 114.333 -78 195c0 82 24.833 147.5 74.5 196.5s114.834 73.5 195.501 73.5c72.667 0 132.167 -22 178.5 -66s69.5 -101.667 69.5 -173
c0 -18.667 -2.66699 -46.667 -8 -84h-358c6.66699 -27.333 22.334 -47.666 47.001 -60.999s52.667 -20 84 -20c58.667 0 103.667 19 135 57zM284.998 400.999c-55.333 0 -92 -22.667 -110 -68h213c-12 45.333 -46.333 68 -103 68zM346.998 832.999l109 -82l-132 -164
l-100 70z" />
    <glyph glyph-name="uniF46C" unicode="&#x438;`" horiz-adv-x="591" 
d="M401 283l-233 -283h-123v520h145v-283l233 283h123v-520h-145v283zM363 833l109 -82l-132 -164l-100 70z" />
    <glyph glyph-name="uniF46D" unicode="&#x43e;`" horiz-adv-x="604" 
d="M20 261c0 80 27 144.999 81 194.999s120.667 75 200 75c80.667 0 148 -25.167 202 -75.5s81 -115.166 81 -194.499c0 -80 -27.333 -144.833 -82 -194.5s-121.667 -74.5 -201 -74.5s-146 25.333 -200 76s-81 115 -81 193zM170 260.999c0 -38 12.5 -69.833 37.5 -95.5
s56.167 -38.5 93.5 -38.5c40 0 72.167 12.333 96.5 37s36.5 57 36.5 97c0 39.333 -12.333 71.666 -37 96.999s-56.667 38 -96 38s-71 -12.667 -95 -38s-36 -57.666 -36 -96.999zM363 832.999l109 -82l-132 -164l-100 70z" />
    <glyph glyph-name="uniF46E" unicode="&#x443;`" horiz-adv-x="557" 
d="M417 520h155l-293 -720h-157l107 244l-249 476h169l151 -302zM338 833l109 -82l-132 -164l-100 70z" />
    <glyph glyph-name="uniF46F" unicode="&#x44b;`" horiz-adv-x="703" 
d="M249 0l-203.999 0.000976562v520h145v-138h66c69.333 0 124.666 -15.333 165.999 -46s62 -78.667 62 -144c0 -64.667 -22.5 -112.834 -67.5 -144.501s-100.833 -47.5 -167.5 -47.5zM248.001 247.001h-58v-112h57c58 0 87 18.667 87 56c0 16 -4.66699 28.333 -14 37
s-19.5 14 -30.5 16s-24.833 3 -41.5 3zM658.001 0.000976562h-145v520h145v-520zM388.001 833.001l109 -82l-132 -164l-100 70z" />
    <glyph glyph-name="uniF470" unicode="&#x44d;`" horiz-adv-x="552" 
d="M381 203h-197.996v125h195c-10.667 26.667 -26.834 44.667 -48.501 54s-48.834 14 -81.501 14c-26.667 0 -52.667 -6 -78 -18s-45 -28.667 -59 -50l-104 78c61.333 83.333 147.333 125 258 125c81.333 0 146.166 -24.5 194.499 -73.5s72.5 -114.5 72.5 -196.5
c0 -82.667 -25.833 -148.167 -77.5 -196.5s-118.5 -72.5 -200.5 -72.5c-52.667 0 -102.334 10 -149.001 30s-80 50.667 -100 92l105 75c30 -41.333 73 -62 129 -62c76.667 0 124 25.333 142 76zM304.004 833l109 -82l-132 -164l-100 70z" />
    <glyph glyph-name="uniF471" unicode="&#x44e;`" horiz-adv-x="803" 
d="M190 0l-144.999 0.000976562v520h145v-190h65c15.333 63.333 45.666 112.666 90.999 147.999s100.333 53 165 53c79.333 0 144.5 -25.5 195.5 -76.5s76.5 -115.5 76.5 -193.5c0 -79.333 -25.833 -144 -77.5 -194s-116.5 -75 -194.5 -75c-67.333 0 -124 18.5 -170 55.5
s-75.667 88.5 -89 154.5h-62v-202zM397.001 261.001c0 -38 9.83203 -69.833 29.499 -95.5s48.167 -38.5 85.5 -38.5c38.667 0 68.5 12.667 89.5 38s31.5 57.333 31.5 96c0 39.333 -10.667 71.666 -32 96.999s-51 38 -89 38c-27.333 0 -51.666 -9.66699 -72.999 -29
s-34 -42.666 -38 -69.999c-2.66699 -12.667 -4 -24.667 -4 -36zM493 833.001l109 -82l-132 -164l-100 70z" />
    <glyph glyph-name="uniF472" unicode="&#x44f;`" horiz-adv-x="533" 
d="M268 520l219.999 -0.000976562v-520h-145v157h-67l-107 -157h-167l133 182c-35.333 10.667 -61.666 30.5 -78.999 59.5s-26 62.833 -26 101.5c0 43.333 12.5 78.833 37.5 106.5s54.333 46.334 88 56.001s71.167 14.5 112.5 14.5zM179.999 336.999
c0 -30 24.667 -45 74 -45h89v93h-84c-52.667 0 -79 -16 -79 -48zM346.999 832.999l109 -82l-132 -164l-100 70z" />
    <glyph glyph-name="uniF473" unicode="&#x451;`" horiz-adv-x="558" 
d="M60 660c0 20 7.83203 36.668 23.499 50.001s33.834 20 54.501 20c20 0 38.167 -6.83301 54.5 -20.5s24.5 -30.167 24.5 -49.5c0 -9.33301 -2.66699 -20 -8 -32c-6.66699 -12 -16.667 -21.667 -30 -29s-27 -11 -41 -11c-22 0 -40.5 6.66699 -55.5 20
s-22.5 30.666 -22.5 51.999zM363.999 660.001c0 14 4.33301 26.833 13 38.5s20 20.167 34 25.5c12.667 4 24 6 34 6c8.66699 0 19.667 -2 33 -6c13.333 -6 24.333 -14.667 33 -26s13 -24 13 -38c0 -21.333 -7.66699 -38.666 -23 -51.999s-34 -20 -56 -20s-41 6.66699 -57 20
s-24 30.666 -24 51.999zM261.999 793.001l129 -32l-96 -174l-70 22zM427.999 184.001l86.9971 -88.001c-55.333 -69.333 -126.666 -104 -213.999 -104c-83.333 0 -151 24.667 -203 74s-78 114.333 -78 195c0 82 24.833 147.5 74.5 196.5s114.834 73.5 195.501 73.5
c72.667 0 132.167 -22 178.5 -66s69.5 -101.667 69.5 -173c0 -18.667 -2.66699 -46.667 -8 -84h-358c6.66699 -27.333 22.334 -47.666 47.001 -60.999s52.667 -20 84 -20c53.333 0 95 19 125 57zM284.996 401c-55.333 0 -92 -22.667 -110 -68h213
c-12 45.333 -46.333 68 -103 68z" />
    <glyph glyph-name="uniFB01" unicode="fi" horiz-adv-x="586" 
d="M77 385h-72v135h72v10c0 63.333 16.333 113.833 49 151.5s79.334 56.5 140.001 56.5c29.333 0 56.666 -5.66699 81.999 -17l-48 -128c-6.66699 6.66699 -15 10 -25 10c-36 0 -54 -24.333 -54 -73v-10h111v-135h-110v-385h-145v385zM532 0h-145v520h145v-520zM378 658
c0 21.333 8.33398 38.666 25.001 51.999s35.667 20 57 20c22 0 41 -6.66699 57 -20s24 -30.666 24 -51.999c0 -22 -7.83301 -39.833 -23.5 -53.5s-34.834 -20.5 -57.501 -20.5s-42 6.66699 -58 20s-24 31.333 -24 54z" />
    <glyph glyph-name="uniFB02" unicode="fl" horiz-adv-x="516" 
d="M471 0h-145.001v584c-12.667 12.667 -29.667 19 -51 19c-36 0 -54 -24.333 -54 -73v-10h61v-135h-60v-385h-145v385h-72v135h72v10c0 63.333 16.333 113.833 49 151.5s79.334 56.5 140.001 56.5c43.333 0 80 -10.667 110 -32l95 32v-738z" />
    <glyph glyph-name=".notdef" horiz-adv-x="236" 
 />
    <glyph glyph-name="uni0020" unicode=" " horiz-adv-x="236" 
 />
    <glyph glyph-name="uni0021" unicode="!" horiz-adv-x="309" 
d="M231 197h-151v503h151v-503zM70 75c0 21.333 9 39.168 27 53.501s37.667 21.5 59 21.5c20.667 0 39.667 -7.33301 57 -22s26 -32.334 26 -53.001c0 -21.333 -8.5 -39.5 -25.5 -54.5s-36.167 -22.5 -57.5 -22.5c-22.667 0 -42.667 7.33301 -60 22s-26 33 -26 55z" />
    <glyph glyph-name="uni0022" unicode="&#x22;" horiz-adv-x="460" 
d="M400 432h-149v268h149v-268zM209 432h-149v268h149v-268z" />
    <glyph glyph-name="uni0023" unicode="#" horiz-adv-x="717" 
d="M407 -21l-133 42l60 161h-78l-75 -203l-133 42l60 161h-68v126h115l32 84h-147v126h193l76 203l132 -42l-60 -161h78l74 203l133 -41l-61 -162h72v-126h-118l-32 -84h150v-126h-196zM411 392h-77l-32 -84h79z" />
    <glyph glyph-name="uni0024" unicode="$" horiz-adv-x="605" 
d="M427 194c0 22 -15.333 41.335 -46 58.002c-14 6.66699 -48.333 18 -103 34c-54 15.333 -93 28.666 -117 39.999c-82.667 38 -124 97 -124 177c0 52.667 19.5 97.5 58.5 134.5s85.833 60.833 140.5 71.5v70h149v-70c83.333 -16 149 -56.667 197 -122l-104 -100
c-49.333 56 -108 84 -176 84c-70 0 -105 -22 -105 -66c0 -24.667 19 -42.667 57 -54c19.333 -7.33301 51.333 -17 96 -29c27.333 -7.33301 50.666 -14.333 69.999 -21s40.333 -16.167 63 -28.5s41 -25.5 55 -39.5s25.667 -32 35 -54s14 -46.333 14 -73
c0 -56 -19.5 -103.167 -58.5 -141.5s-86.833 -63.166 -143.5 -74.499v-78h-149v80c-50.667 8.66699 -97.167 27.167 -139.5 55.5s-75.166 64.166 -98.499 107.499l113 94c22 -36.667 51.5 -65.834 88.5 -87.501s76.5 -32.5 118.5 -32.5c27.333 0 52.333 4.83301 75 14.5
s34 26.5 34 50.5z" />
    <glyph glyph-name="uni0025" unicode="%" horiz-adv-x="937" 
d="M274 -26l-117 68l512 693l111 -81zM30 517c0 56 19.5 101.001 58.5 135.001s86.833 51 143.5 51c57.333 0 105.333 -16.833 144 -50.5s58 -78.834 58 -135.501c0 -54.667 -19.667 -99.167 -59 -133.5s-87 -51.5 -143 -51.5c-55.333 0 -102.833 17.5 -142.5 52.5
s-59.5 79.167 -59.5 132.5zM176 517.001c0 -16 5.33301 -30.333 16 -43s24 -19 40 -19c16.667 0 30.167 6 40.5 18s15.5 26.667 15.5 44s-5.16699 32 -15.5 44s-23.833 18 -40.5 18s-30.167 -6.16699 -40.5 -18.5s-15.5 -26.833 -15.5 -43.5zM503 182.001
c0 56 19.5 100.834 58.5 134.501s86.833 50.5 143.5 50.5c55.333 0 103.333 -17 144 -51c38.667 -36.667 58 -81.334 58 -134.001c0 -54.667 -19.833 -99.334 -59.5 -134.001s-87.167 -52 -142.5 -52c-56 0 -103.667 17.333 -143 52s-59 79.334 -59 134.001zM649 182.002
c0 -16 5.33301 -30.333 16 -43s24 -19 40 -19c16.667 0 30.167 6 40.5 18s15.5 26.667 15.5 44s-5.16699 32 -15.5 44s-23.833 18 -40.5 18s-30.167 -6.16699 -40.5 -18.5s-15.5 -26.833 -15.5 -43.5z" />
    <glyph glyph-name="uni0026" unicode="&#x26;" horiz-adv-x="783" 
d="M794 0l-193 -0.00195312c-1.33301 1.33301 -4.16602 3.5 -8.49902 6.5l-10.5 7.5c-13.333 10 -33 27.333 -59 52c-68 -50 -140.333 -75 -217 -75c-33.333 0 -65.666 3.66699 -96.999 11s-61 18.5 -89 33.5s-50.5 35.833 -67.5 62.5s-25.5 57.334 -25.5 92.001
c0 54 16.833 98.833 50.5 134.5s80.5 70.167 140.5 103.5c-39.333 50.667 -59 97.667 -59 141c0 46.667 18.333 81.667 55 105s79.667 35 129 35c34.667 0 65.167 -3.66699 91.5 -11s49.166 -21.666 68.499 -42.999s29 -49.333 29 -84c0 -32 -11.167 -63.167 -33.5 -93.5
s-48.833 -55.833 -79.5 -76.5c19.333 -31.333 53.666 -73 102.999 -125c46 55.333 69 130 69 224h149c0 -60 -10.167 -122.5 -30.5 -187.5s-48.833 -117.167 -85.5 -156.5c52 -58 108.667 -110 170 -156zM312 130.998c46.667 0 81.666 13.667 104.999 41
c-8 10 -28.667 34 -62 72c-28 30.667 -47 52.667 -57 66c-41.333 -24 -69.666 -43.667 -84.999 -59c-14 -14 -21 -29 -21 -45c0 -18 10 -35 30 -51s50 -24 90 -24zM318.999 548.998c0 -14 8.33301 -29.333 25 -46c18.667 10.667 28 26 28 46s-8.66699 30 -26 30
c-18 0 -27 -10 -27 -30z" />
    <glyph glyph-name="uni0027" unicode="'" horiz-adv-x="269" 
d="M209 432h-149v268h149v-268z" />
    <glyph glyph-name="uni0028" unicode="(" horiz-adv-x="371" 
d="M361 -113l-106.999 -87.001c-71.333 62 -126.5 132.667 -165.5 212s-58.5 164.333 -58.5 255c0 180.667 73.333 336.334 220 467.001l109 -87c-56 -52 -100.167 -110.5 -132.5 -175.5s-48.5 -133.167 -48.5 -204.5c0 -70 16.667 -138 50 -204
s77.666 -124.667 132.999 -176z" />
    <glyph glyph-name="uni0029" unicode=")" horiz-adv-x="369" 
d="M119 -199l-109 86.998c54.667 46.667 98.5 104 131.5 172s49.5 137 49.5 207c0 138.667 -60 265.334 -180 380.001l108 87c146.667 -134 220 -289.667 220 -467c0 -90.667 -19.167 -175.667 -57.5 -255s-92.5 -149.666 -162.5 -210.999z" />
    <glyph glyph-name="uni002A" unicode="*" horiz-adv-x="499" 
d="M179 700h145l-4 -109l108 39l41 -135l-109 -30l71 -89l-121 -87l-60 87l-60 -89l-122 87l71 91l-109 31l41 135l111 -39z" />
    <glyph glyph-name="uni002B" unicode="+" horiz-adv-x="605" 
d="M234 294h-174v130h174v173h135v-173h176v-130h-176v-175h-135v175z" />
    <glyph glyph-name="uni002C" unicode="," horiz-adv-x="264" 
d="M96 -5c-17.333 6 -31.832 16.998 -43.499 32.998s-17.5 33.333 -17.5 52c0 27.333 9 48 27 62s41 21 69 21c29.333 0 52.166 -9.83301 68.499 -29.5s24.5 -44.5 24.5 -74.5c0 -50.667 -15.167 -95.667 -45.5 -135s-69.833 -63.666 -118.5 -72.999l-40 87
c22.667 4.66699 40.667 12.334 54 23.001c12 10.667 19.333 22 22 34z" />
    <glyph glyph-name="uni002D" unicode="-" horiz-adv-x="424" 
d="M364 217h-304v130h304v-130z" />
    <glyph glyph-name="uni002E" unicode="." horiz-adv-x="286" 
d="M50 81c0 24 9.66699 44.165 29 60.498s41 24.5 65 24.5c12 0 25.333 -3 40 -9c14 -6.66699 26.333 -17 37 -31c10 -14.667 15 -29.667 15 -45c0 -23.333 -9.5 -43.666 -28.5 -60.999s-40.167 -26 -63.5 -26c-25.333 0 -47.333 8.33301 -66 25s-28 37.334 -28 62.001z" />
    <glyph glyph-name="uni002F" unicode="/" horiz-adv-x="377" 
d="M91 -200l-131 50l324 871l133 -42z" />
    <glyph glyph-name="uni0030" unicode="0" horiz-adv-x="679" 
d="M30 350c0 104.667 26.668 190.332 80.001 256.999s129.666 100 228.999 100c68 0 126 -16.833 174 -50.5s82.667 -76.667 104 -129s32 -111.5 32 -177.5c0 -104 -26.667 -189.5 -80 -256.5s-129.333 -100.5 -228 -100.5c-102 0 -179.333 33.833 -232 101.5
s-79 152.834 -79 255.501zM190.001 349.998c0 -36 4.16602 -68.668 12.499 -98.001s24.333 -54.833 48 -76.5s53.834 -32.5 90.501 -32.5c98.667 0 148 69 148 207s-50 207 -150 207c-52.667 0 -90.667 -20.167 -114 -60.5s-35 -89.166 -35 -146.499z" />
    <glyph glyph-name="uni0031" unicode="1" horiz-adv-x="398" 
d="M53 459l-53 126l230 115h98v-700h-150v516z" />
    <glyph glyph-name="uni0032" unicode="2" horiz-adv-x="594" 
d="M155 445l-134.998 50.999c17.333 66.667 52.333 118.5 105 155.5s113.667 55.5 183 55.5c76.667 0 138.5 -20.167 185.5 -60.5s70.5 -97.5 70.5 -171.5c0 -34 -5.66699 -66 -17 -96s-27.833 -57.333 -49.5 -82s-43.834 -46.167 -66.501 -64.5s-49.667 -37.5 -81 -57.5
l-47 -30h268v-145h-541v113l83 58l159 112c23.333 18 43.166 34.167 59.499 48.5s32.5 33.833 48.5 58.5s24 48.334 24 71.001c0 32 -9 56 -27 72s-43 24 -75 24c-69.333 0 -118.333 -37.333 -147 -112z" />
    <glyph glyph-name="uni0033" unicode="3" horiz-adv-x="621" 
d="M152 472l-124.005 58.002c45.333 119.333 143.333 179 294 179c67.333 0 125.166 -15.5 173.499 -46.5s72.5 -77.833 72.5 -140.5c0 -66.667 -30.333 -114.334 -91 -143.001c76 -27.333 114 -81.333 114 -162c0 -72.667 -25.667 -128.334 -77 -167.001
s-114.666 -58 -189.999 -58c-77.333 0 -141.666 14 -192.999 42s-89.666 75.667 -114.999 143l136 61c6.66699 -21.333 18.834 -40.333 36.501 -57s37.5 -28 59.5 -34c20 -6.66699 40 -10 60 -10c30.667 0 58.834 6.5 84.501 19.5s38.5 33.167 38.5 60.5
c0 16.667 -5.83301 30.667 -17.5 42s-26.5 19.333 -44.5 24c-20 3.33301 -37 5 -51 5h-102v140h82c26.667 0 51.667 5.66699 75 17s35 29 35 53c0 20.667 -8 37 -24 49c-17.333 11.333 -42.666 17 -75.999 17c-76 0 -128 -30.667 -156 -92z" />
    <glyph glyph-name="uni0034" unicode="4" horiz-adv-x="643" 
d="M526 0h-150v122h-371v100l397 478h124v-443h107v-135h-107v-122zM376 452l-171 -195h171v195z" />
    <glyph glyph-name="uni0035" unicode="5" horiz-adv-x="629" 
d="M169 284l-105 61.999l37 354h468v-145h-336l-13 -108c26 13.333 73.667 20 143 20c76 0 136 -20.667 180 -62s66 -98.666 66 -171.999c0 -78.667 -27.167 -138.5 -81.5 -179.5s-121.5 -61.5 -201.5 -61.5c-74.667 0 -136.667 14 -186 42s-89.333 73.667 -120 137l140 62
c11.333 -28 33 -50.167 65 -66.5s64.333 -24.5 97 -24.5c33.333 0 62.833 7 88.5 21s38.5 36.333 38.5 67c0 34 -12.5 58.667 -37.5 74s-55.5 23 -91.5 23c-31.333 0 -57.5 -3 -78.5 -9s-45.167 -17.333 -72.5 -34z" />
    <glyph glyph-name="uni0036" unicode="6" horiz-adv-x="648" 
d="M30 331c0 111.333 28.1689 202.166 84.502 272.499s137.833 105.5 244.5 105.5c50.667 0 94.5 -8 131.5 -24s72.5 -42.333 106.5 -79l-86 -110c-16 14 -32.667 27 -50 39c-33.333 19.333 -67.333 29 -102 29c-52.667 0 -94.834 -15.5 -126.501 -46.5
s-47.5 -72.5 -47.5 -124.5c22 30 51 52.167 87 66.5s74.333 21.5 115 21.5c73.333 0 131.833 -20.5 175.5 -61.5s65.5 -96.833 65.5 -167.5c0 -77.333 -26.333 -140.166 -79 -188.499s-117.334 -72.5 -194.001 -72.5c-102.667 0 -182.5 31.5 -239.5 94.5
s-85.5 144.833 -85.5 245.5zM209.002 250c1.33301 -32.667 15.5 -59.833 42.5 -81.5s57.167 -32.5 90.5 -32.5c34 0 63.5 9.66699 88.5 29s37.5 45.333 37.5 78c0 32 -11.333 56.333 -34 73s-50.334 25 -83.001 25c-30.667 0 -59.667 -8.33301 -87 -25
s-45.666 -38.667 -54.999 -66z" />
    <glyph glyph-name="uni0037" unicode="7" horiz-adv-x="570" 
d="M376 555h-366v145h550v-97l-303 -603h-161z" />
    <glyph glyph-name="uni0038" unicode="8" horiz-adv-x="668" 
d="M321 424l27.998 0.00195312c28 0 53 6 75 18s33 30.667 33 56c0 46.667 -41.333 70 -124 70c-13.333 0 -26.166 -0.833008 -38.499 -2.5s-25.333 -4.83398 -39 -9.50098s-24.5 -11.834 -32.5 -21.501s-12 -21.5 -12 -35.5c0 -21.333 10 -39 30 -53
c18.667 -14.667 45.334 -22 80.001 -22zM346.998 294.002h-23c-19.333 0 -38.333 -2 -57 -6s-36.167 -12.333 -52.5 -25s-24.5 -29 -24.5 -49c0 -21.333 8.83301 -38.5 26.5 -51.5s36.167 -21.333 55.5 -25s40 -5.5 62 -5.5s42.5 1.5 61.5 4.5s37.5 10.833 55.5 23.5
s27 29.667 27 51c0 55.333 -43.667 83 -131 83zM334.998 -7.99805c-36.667 0 -71.832 3.33398 -105.499 10.001s-66 17.5 -97 32.5s-55.833 36.833 -74.5 65.5s-28 62.667 -28 102c0 33.333 9.5 65.5 28.5 96.5s43.167 53.167 72.5 66.5c-22.667 11.333 -41.667 31 -57 59
s-23 55 -23 81c0 36.667 8.5 68.667 25.5 96s39.667 48.5 68 63.5s58.333 26 90 33s64.834 10.5 99.501 10.5c35.333 0 68.833 -3.33301 100.5 -10s61.667 -17.334 90 -32.001s50.833 -35.834 67.5 -63.501s25 -60.167 25 -97.5c0 -62.667 -26.333 -108 -79 -136
c32.667 -12 57.5 -32.833 74.5 -62.5s25.5 -63.167 25.5 -100.5c0 -39.333 -9.16699 -73.5 -27.5 -102.5s-42.833 -51.167 -73.5 -66.5s-62.834 -26.666 -96.501 -33.999s-68.834 -11 -105.501 -11z" />
    <glyph glyph-name="uni0039" unicode="9" horiz-adv-x="668" 
d="M638 369c0 -112 -28.166 -202.999 -84.499 -272.999s-137.833 -105 -244.5 -105c-36.667 0 -74.667 5.16699 -114 15.5s-73 25.166 -101 44.499c-25.333 16.667 -43 31 -53 43l86 110c23.333 -19.333 52 -35.5 86 -48.5s66 -19.5 96 -19.5
c48.667 0 89.834 13.5 123.501 40.5s50.5 63.833 50.5 110.5c-38.667 -45.333 -98.334 -68 -179.001 -68c-81.333 0 -149 19.833 -203 59.5s-81 98.5 -81 176.5s29.167 139.833 87.5 185.5s127.166 68.5 206.499 68.5c104 0 184 -31 240 -93s84 -144.333 84 -247z
M465.001 430.001c-2 31.333 -9.83398 56.668 -23.501 76.001s-34.5 35.666 -62.5 48.999c-14.667 6 -33 9 -55 9c-37.333 0 -70.666 -9.16699 -99.999 -27.5s-44 -44.833 -44 -79.5c0 -31.333 13.667 -55.5 41 -72.5s57.666 -25.5 90.999 -25.5
c30 0 60.833 5.83301 92.5 17.5s51.834 29.5 60.501 53.5z" />
    <glyph glyph-name="uni003A" unicode=":" horiz-adv-x="289" 
d="M60 445c0 21.333 8.83301 39 26.5 53s37.5 21 59.5 21c20.667 0 39.667 -7.33301 57 -22s26 -32 26 -52c0 -22 -8.33301 -40.333 -25 -55s-36 -22 -58 -22c-22.667 0 -42.667 7.33301 -60 22s-26 33 -26 55zM60 75c0 21.333 9 39.168 27 53.501s37.667 21.5 59 21.5
c20.667 0 39.667 -7.33301 57 -22s26 -32.334 26 -53.001c0 -21.333 -8.5 -39.5 -25.5 -54.5s-36.167 -22.5 -57.5 -22.5c-22.667 0 -42.667 7.33301 -60 22s-26 33 -26 55z" />
    <glyph glyph-name="uni003B" unicode=";" horiz-adv-x="288" 
d="M56 445c0 21.333 8.83301 39 26.5 53s37.5 21 59.5 21c20.667 0 39.667 -7.33301 57 -22s26 -32 26 -52c0 -22 -8.33301 -40.333 -25 -55s-36 -22 -58 -22c-22.667 0 -42.667 7.33301 -60 22s-26 33 -26 55zM113 -5c-14.667 5.33301 -27.501 15.498 -38.501 30.498
s-16.5 30.167 -16.5 45.5c0 24.667 8 43.334 24 56.001s36.667 19 62 19c26.667 0 47.334 -8.66699 62.001 -26s22 -39.666 22 -66.999c0 -33.333 -7.83301 -65.166 -23.5 -95.499s-37.5 -53.833 -65.5 -70.5c-26 -14.667 -47.667 -23.334 -65 -26.001l-34 85
c42.667 6 67 22.333 73 49z" />
    <glyph glyph-name="uni003C" unicode="&#x3c;" horiz-adv-x="540" 
d="M480 192v-157l-470 296v61l470 292v-156l-269 -168z" />
    <glyph glyph-name="uni003D" unicode="=" horiz-adv-x="575" 
d="M515 391h-455v126h455v-126zM515 200h-455v126h455v-126z" />
    <glyph glyph-name="uni003E" unicode="&#x3e;" horiz-adv-x="540" 
d="M530 392v-61l-470 -296v157l271 168l-271 168v156z" />
    <glyph glyph-name="uni003F" unicode="?" horiz-adv-x="625" 
d="M435 490c0 22.667 -11.832 39.6699 -35.499 51.0029s-48.167 17 -73.5 17c-77.333 0 -129 -31 -155 -93l-141 49c20 62 58.333 109.833 115 143.5s119 50.5 187 50.5c31.333 0 62 -3.66699 92 -11s58 -18.333 84 -33s47 -34.834 63 -60.501s24 -55.167 24 -88.5
c0 -32 -3.83301 -59.333 -11.5 -82s-20.667 -42.334 -39 -59.001s-36 -29.834 -53 -39.501s-41.167 -21.5 -72.5 -35.5c-40.667 -18.667 -61 -41 -61 -67c0 -4 0.666992 -10.667 2 -20c0 -2 0.166992 -4.16699 0.5 -6.5s0.666016 -4.16602 0.999023 -5.49902
s0.5 -2.33301 0.5 -3l-141 -2c-6 19.333 -9 36.666 -9 51.999c0 37.333 10 66.5 30 87.5s49.667 41.167 89 60.5c32 15.333 54.667 27.333 68 36c24 15.333 36 35 36 59zM202.001 75.0029c0 21.333 9 39.168 27 53.501s37.667 21.5 59 21.5c20.667 0 39.667 -7.33301 57 -22
s26 -32.334 26 -53.001c0 -21.333 -8.5 -39.5 -25.5 -54.5s-36.167 -22.5 -57.5 -22.5c-22.667 0 -42.667 7.33301 -60 22s-26 33 -26 55z" />
    <glyph glyph-name="uni0040" unicode="@" horiz-adv-x="948" 
d="M656 0l-101.997 -0.000976562v24c-28.667 -21.333 -64 -32 -106 -32c-67.333 0 -122 23.667 -164 71s-63 104.666 -63 171.999c0 75.333 26.167 136.5 78.5 183.5s116.166 70.5 191.499 70.5c83.333 0 152.666 -22 207.999 -66v-287c46 16 69 66.333 69 151
c0 42.667 -7.5 80.167 -22.5 112.5s-35.833 58.333 -62.5 78s-56.834 34.334 -90.501 44.001s-70.5 14.5 -110.5 14.5c-86.667 0 -158.667 -27.833 -216 -83.5s-86 -126.167 -86 -211.5c0 -87.333 28.833 -158.5 86.5 -213.5s129.5 -82.5 215.5 -82.5
c52 0 100 7.66699 144 23l10 -131c-48 -14.667 -99.333 -22 -154 -22c-130 0 -236.167 39.333 -318.5 118s-123.5 181.334 -123.5 308.001c0 127.333 42.167 230 126.5 308s189.5 117 315.5 117c125.333 0 227.666 -32.833 306.999 -98.5s119 -158.5 119 -278.5
c0 -78 -23.167 -145.667 -69.5 -203s-107.166 -86 -182.499 -86zM475.003 121.999c15.333 0 30.333 4.99805 45 14.998s26 22 34 36v169c-16.667 11.333 -38 17 -64 17c-34.667 0 -63.167 -12.667 -85.5 -38s-33.5 -55.666 -33.5 -90.999
c0 -31.333 9.66699 -57.166 29 -77.499s44.333 -30.5 75 -30.5z" />
    <glyph glyph-name="uni0041" unicode="A" horiz-adv-x="721" 
d="M156 0h-160l307 700h115l307 -700h-162l-57 130h-293zM449 261l-90 209l-92 -209h182z" />
    <glyph glyph-name="uni0042" unicode="B" horiz-adv-x="678" 
d="M370 0h-304.999v700h313c76.667 0 134.667 -12.667 174 -38c45.333 -32.667 68 -79.667 68 -141c0 -60.667 -22.667 -110.667 -68 -150c60.667 -28.667 91 -83 91 -163c0 -50.667 -13.833 -92.167 -41.5 -124.5s-60.834 -54.333 -99.501 -66s-82.667 -17.5 -132 -17.5z
M362.001 287h-142.003v-142h134c16.667 0 30.834 0.666992 42.501 2s24.834 4 39.501 8s25.834 11.333 33.501 22s11.5 24 11.5 40s-3.5 29 -10.5 39s-17.167 17.167 -30.5 21.5s-25.5 7 -36.5 8s-24.833 1.5 -41.5 1.5zM351.998 555h-131.999v-128h145
c24.667 0 46.5 4.33301 65.5 13s28.5 24 28.5 46c0 15.333 -2.83301 28 -8.5 38s-14.334 17 -26.001 21s-22.667 6.66699 -33 8s-23.5 2 -39.5 2z" />
    <glyph glyph-name="uni0043" unicode="C" horiz-adv-x="696" 
d="M594 231l92 -99c-30 -46 -72.5 -81.5 -127.5 -106.5s-111.833 -37.5 -170.5 -37.5c-108.667 0 -195.5 33.667 -260.5 101s-97.5 154.333 -97.5 261c0 104 34.667 190.333 104 259s155.333 103 258 103c56 0 110.5 -11.333 163.5 -34s92.833 -55.667 119.5 -99l-105 -96
c-19.333 24 -44.166 43.167 -74.499 57.5s-61.166 21.5 -92.499 21.5c-63.333 0 -114.5 -19.5 -153.5 -58.5s-58.5 -90.167 -58.5 -153.5c0 -61.333 19.667 -112 59 -152s89.666 -60 150.999 -60c79.333 0 143.666 31 192.999 93z" />
    <glyph glyph-name="uni0044" unicode="D" horiz-adv-x="720" 
d="M272 0l-206.999 -0.000976562v700h222c122.667 0 220.5 -27.833 293.5 -83.5s109.5 -141.5 109.5 -257.5c0 -50 -7.33301 -95.167 -22 -135.5s-34.667 -74.166 -60 -101.499s-55.833 -50.333 -91.5 -69s-73.834 -32.167 -114.501 -40.5s-84 -12.5 -130 -12.5z
M285.001 554.999h-65v-410h65c163.333 0 245 71.333 245 214c0 130.667 -81.667 196 -245 196z" />
    <glyph glyph-name="uni0045" unicode="E" horiz-adv-x="649" 
d="M609 0h-544v700h535v-145h-380v-130h355v-140h-355v-140h389v-145z" />
    <glyph glyph-name="uni0046" unicode="F" horiz-adv-x="620" 
d="M220 0h-155v700h530v-145h-375v-153h350v-145h-350v-257z" />
    <glyph glyph-name="uni0047" unicode="G" horiz-adv-x="731" 
d="M542 252l-177 -0.000976562v140h326v-283c-35.333 -38.667 -77.833 -68.5 -127.5 -89.5s-101.167 -31.5 -154.5 -31.5c-110 0 -200.667 33.5 -272 100.5s-107 154.167 -107 261.5c0 104 34.667 190.333 104 259s155.333 103 258 103c54.667 0 109 -10.667 163 -32
s94 -52.666 120 -93.999l-107 -96c-41.333 48 -98 72 -170 72c-64.667 0 -115.334 -19.167 -152.001 -57.5s-55 -89.833 -55 -154.5c0 -66 20.333 -117.833 61 -155.5s93.334 -56.5 158.001 -56.5c49.333 0 93.333 13.333 132 40v74z" />
    <glyph glyph-name="uni0048" unicode="H" horiz-adv-x="751" 
d="M686 0h-155v280h-311v-280h-155v700h155v-275h311v275h155v-700z" />
    <glyph glyph-name="uni0049" unicode="I" horiz-adv-x="295" 
d="M225 0h-155v700h155v-700z" />
    <glyph glyph-name="uni004A" unicode="J" horiz-adv-x="486" 
d="M271 700l155 -0.000976562v-481c0 -69.333 -18.167 -125.166 -54.5 -167.499s-88.833 -63.5 -157.5 -63.5c-50 0 -94.833 11.5 -134.5 34.5s-69.5 56.167 -89.5 99.5l113 87c24.667 -50.667 57 -76 97 -76c28.667 0 47.667 10.833 57 32.5s14 49.5 14 83.5v451z" />
    <glyph glyph-name="uni004B" unicode="K" horiz-adv-x="701" 
d="M220 0h-155v700h155v-273l269 273h202l-304 -310l324 -390h-204l-237 286l-50 -51v-235z" />
    <glyph glyph-name="uni004C" unicode="L" horiz-adv-x="608" 
d="M598 0h-533v700h155v-555h378v-145z" />
    <glyph glyph-name="uni004D" unicode="M" horiz-adv-x="851" 
d="M220 0h-155v700h144l224 -335l213 335h140v-700h-155v420l-182 -279h-41l-188 282v-423z" />
    <glyph glyph-name="uni004E" unicode="N" horiz-adv-x="740" 
d="M675 700v-700h-120l-339 415v-415h-151v700h119l340 -416v416h151z" />
    <glyph glyph-name="uni004F" unicode="O" horiz-adv-x="781" 
d="M30 350c0 101.333 35.168 187 105.501 257s155.5 105 255.5 105c70.667 0 136.167 -19 196.5 -57s104.166 -89 131.499 -153c21.333 -52 32 -102.667 32 -152c0 -100.667 -35 -186.167 -105 -256.5s-155 -105.5 -255 -105.5c-101.333 0 -186.833 35.167 -256.5 105.5
s-104.5 155.833 -104.5 256.5zM191.001 350c0 -58.667 19 -108.667 57 -150s85.667 -62 143 -62c60 0 108.167 20.333 144.5 61s54.5 91 54.5 151c0 58 -19 107.833 -57 149.5s-85.333 62.5 -142 62.5c-58.667 0 -106.667 -20.667 -144 -62s-56 -91.333 -56 -150z" />
    <glyph glyph-name="uni0050" unicode="P" horiz-adv-x="677" 
d="M220 220l-0.000976562 -220h-155v700h290c56.667 0 106.334 -7.33301 149.001 -22s78 -40.5 106 -77.5s42 -84.167 42 -141.5c0 -55.333 -14.667 -101.5 -44 -138.5s-65.5 -63 -108.5 -78s-91.167 -22.5 -144.5 -22.5h-135zM358.999 555h-139v-190h133
c92 0 138 31.667 138 95s-44 95 -132 95z" />
    <glyph glyph-name="uni0051" unicode="Q" horiz-adv-x="781" 
d="M30 350c0 102.667 34.834 188.667 104.501 258s155.167 104 256.5 104c105.333 0 191.666 -34.167 258.999 -102.5s101 -154.833 101 -259.5c0 -96 -30.667 -176.667 -92 -242l60 -74l-108 -87l-64 78c-51.333 -24.667 -103.333 -37 -156 -37
c-108 0 -195.167 33.667 -261.5 101s-99.5 154.333 -99.5 261zM191.001 350c0 -60.667 18.5 -111.167 55.5 -151.5s85.167 -60.5 144.5 -60.5c26.667 0 50 4.33301 70 13l-56 64l98 83l56 -68c20.667 28.667 31 68.667 31 120c0 61.333 -18.167 112 -54.5 152
s-84.5 60 -144.5 60c-60.667 0 -109.167 -20.167 -145.5 -60.5s-54.5 -90.833 -54.5 -151.5z" />
    <glyph glyph-name="uni0052" unicode="R" horiz-adv-x="689" 
d="M220 239v-239h-155v700h283c86 0 154.667 -18 206 -54s77 -94 77 -174c0 -44 -12.667 -85.5 -38 -124.5s-58.333 -65.833 -99 -80.5l195 -267h-187l-171 239h-111zM345 555h-125v-171h131c33.333 0 61.5 7 84.5 21s34.5 36.333 34.5 67c0 32.667 -11.5 54.667 -34.5 66
s-53.167 17 -90.5 17z" />
    <glyph glyph-name="uni0053" unicode="S" horiz-adv-x="619" 
d="M429 194c0 22 -15.333 41.334 -46 58.001c-14 6.66699 -48.333 18 -103 34c-54 15.333 -93 28.666 -117 39.999c-82.667 38 -124 97 -124 177c0 43.333 15 82.833 45 118.5s66.667 60.834 110 75.501c36 12.667 74.667 19 116 19c55.333 0 107 -11 155 -33
s87.667 -54 119 -96l-104 -100c-49.333 56 -108 84 -176 84c-70 0 -105 -22 -105 -66c0 -24.667 19 -42.667 57 -54c19.333 -7.33301 51.333 -17 96 -29c27.333 -7.33301 50.666 -14.333 69.999 -21s40.333 -16.167 63 -28.5s41 -25.5 55 -39.5s25.667 -32 35 -54
s14 -46.333 14 -73c0 -68 -26.667 -122 -80 -162s-115 -60 -185 -60c-68 0 -131.667 14.5 -191 43.5s-103.666 71.5 -132.999 127.5l113 94c22 -36.667 51.5 -65.834 88.5 -87.501s76.5 -32.5 118.5 -32.5c27.333 0 52.333 4.83301 75 14.5s34 26.5 34 50.5z" />
    <glyph glyph-name="uni0054" unicode="T" horiz-adv-x="604" 
d="M224 555h-224v145h604v-145h-225v-555h-155v555z" />
    <glyph glyph-name="uni0055" unicode="U" horiz-adv-x="720" 
d="M510 700h155.001v-400c0 -92.667 -26.833 -167 -80.5 -223s-125.834 -84 -216.501 -84c-94 0 -169.667 29.167 -227 87.5s-86 133.5 -86 225.5v394h155v-376c0 -54 13.333 -98.5 40 -133.5s66 -52.5 118 -52.5c94.667 0 142 60.667 142 182v380z" />
    <glyph glyph-name="uni0056" unicode="V" horiz-adv-x="730" 
d="M573 700h167l-313 -700h-108l-329 700h171l213 -464z" />
    <glyph glyph-name="uni0057" unicode="W" horiz-adv-x="971" 
d="M817 700h154l-207 -700h-126l-149 424l-145 -424h-126l-218 700h160l128 -422l140 422h124l143 -419z" />
    <glyph glyph-name="uni0058" unicode="X" horiz-adv-x="707" 
d="M511 700h188l-253 -345l261 -355h-189l-164 229l-165 -229h-189l262 355l-251 345h187l157 -217z" />
    <glyph glyph-name="uni0059" unicode="Y" horiz-adv-x="700" 
d="M531 700h179l-284 -449v-251h-155v251l-281 449h185l176 -280z" />
    <glyph glyph-name="uni005A" unicode="Z" horiz-adv-x="635" 
d="M381 555h-354v145h579v-103l-373 -452h382v-145h-605v103z" />
    <glyph glyph-name="uni005B" unicode="[" horiz-adv-x="374" 
d="M364 -175h-304v884h304v-145h-149v-594h149v-145z" />
    <glyph glyph-name="uni005C" unicode="\" horiz-adv-x="377" 
d="M-40 679l132 42l325 -871l-132 -50z" />
    <glyph glyph-name="uni005D" unicode="]" horiz-adv-x="374" 
d="M10 709h304v-884h-304v145h149v594h-149v145z" />
    <glyph glyph-name="uni005E" unicode="^" horiz-adv-x="533" 
d="M178 394h-168l212 313h90l211 -313h-169l-87 134z" />
    <glyph glyph-name="uni005F" unicode="_" horiz-adv-x="355" 
d="M355 -175h-355v130h355v-130z" />
    <glyph glyph-name="uni0060" unicode="`" horiz-adv-x="364" 
d="M364 656l-86 -69l-147 160l114 86z" />
    <glyph glyph-name="uni0061" unicode="a" horiz-adv-x="532" 
d="M117 346l-68.9971 104.999c25.333 27.333 59.166 47.5 101.499 60.5s84.833 19.5 127.5 19.5c67.333 0 119.666 -19 156.999 -57s56 -91 56 -159v-315h-145v47c-14.667 -16.667 -35.5 -29.667 -62.5 -39s-52.833 -14 -77.5 -14c-54.667 0 -100 15 -136 45
s-54 71.667 -54 125c0 40.667 12.667 74.334 38 101.001s54.833 45 88.5 55s70.167 15 109.5 15s70.666 -4.33301 93.999 -13c1.33301 25.333 -5.33398 44 -20.001 56c-15.333 12 -36.666 18 -63.999 18c-48.667 0 -96.667 -16.667 -144 -50zM235.003 118.999
c22 0 43.499 5.33301 64.499 16s36.167 25 45.5 43v24c-23.333 8.66699 -49.666 13 -78.999 13c-22.667 0 -42 -2 -58 -6c-28.667 -9.33301 -43 -24.333 -43 -45c0 -16 7.16699 -27.5 21.5 -34.5s30.5 -10.5 48.5 -10.5z" />
    <glyph glyph-name="uni0062" unicode="b" horiz-adv-x="593" 
d="M190 0h-145v730h145v-245c12.667 15.333 33 26.833 61 34.5s55 11.5 81 11.5c77.333 0 136.833 -24.167 178.5 -72.5s62.5 -111.833 62.5 -190.5c0 -82 -23 -148.5 -69 -199.5s-108.667 -76.5 -188 -76.5c-49.333 0 -91.333 9.66699 -126 29v-21zM302 396
c-57.333 0 -94.667 -22.667 -112 -68v-137c24.667 -42.667 62 -64 112 -64c40.667 0 71 12.5 91 37.5s30 57.833 30 98.5c0 41.333 -10.333 73.833 -31 97.5s-50.667 35.5 -90 35.5z" />
    <glyph glyph-name="uni0063" unicode="c" horiz-adv-x="540" 
d="M431 195l106.001 -62.999c-22.667 -44 -55 -78.333 -97 -103s-88 -37 -138 -37c-82.667 0 -150.334 24.667 -203.001 74s-79 114.333 -79 195c0 79.333 26.167 144.166 78.5 194.499s117.833 75.5 196.5 75.5c52 0 99.833 -10.667 143.5 -32s75.167 -54 94.5 -98
l-108 -70c-17.333 22.667 -35 39.167 -53 49.5s-40.667 15.5 -68 15.5c-40 0 -72.333 -12.5 -97 -37.5s-37 -57.5 -37 -97.5c0 -39.333 14.667 -71.5 44 -96.5s64 -37.5 104 -37.5c48 0 85.667 22.667 113 68z" />
    <glyph glyph-name="uni0064" unicode="d" horiz-adv-x="586" 
d="M541 0h-145.002v41c-11.333 -12 -26.166 -22.333 -44.499 -31s-36.166 -14 -53.499 -16c-21.333 -1.33301 -32.333 -2 -33 -2c-78 0 -138.333 25 -181 75s-64 114 -64 192c0 74.667 24 138.667 72 192s108.667 80 182 80c56 0 96.667 -8.33301 122 -25v224h145v-730z
M295.998 127c9.33301 0 20.333 2 33 6c30.667 6.66699 53 25 67 55v168c-20.667 26.667 -51 40 -91 40s-72.5 -12.5 -97.5 -37.5s-37.5 -57.5 -37.5 -97.5c0 -38.667 11.5 -70.667 34.5 -96s53.5 -38 91.5 -38z" />
    <glyph glyph-name="uni0065" unicode="e" horiz-adv-x="558" 
d="M438 184l86.998 -88.001c-55.333 -69.333 -130 -104 -224 -104c-83.333 0 -151 24.667 -203 74s-78 114.333 -78 195c0 82 24.833 147.5 74.5 196.5s114.834 73.5 195.501 73.5c72.667 0 132.167 -22 178.5 -66s69.5 -101.667 69.5 -173
c0 -18.667 -2.66699 -46.667 -8 -84h-358c6.66699 -27.333 22.334 -47.666 47.001 -60.999s52.667 -20 84 -20c58.667 0 103.667 19 135 57zM284.998 400.999c-55.333 0 -92 -22.667 -110 -68h213c-12 45.333 -46.333 68 -103 68z" />
    <glyph glyph-name="uni0066" unicode="f" horiz-adv-x="348" 
d="M77 385h-72.001v135h72v10c0 63.333 16.333 113.833 49 151.5s79.334 56.5 140.001 56.5c62 0 109 -20.333 141 -61l-80 -94c-12 13.333 -29.333 20 -52 20c-36 0 -54 -24.333 -54 -73v-10h131v-135h-130v-385h-145v385z" />
    <glyph glyph-name="uni0067" unicode="g" horiz-adv-x="579" 
d="M389 520h145.001v-475c0 -82.667 -21.167 -145.667 -63.5 -189s-103.5 -65 -183.5 -65c-56 0 -105.667 11.667 -149 35s-74.333 59.333 -93 108l127 53c21.333 -40.667 55 -61 101 -61c77.333 0 116 30 116 90v23c-22 -31.333 -61 -47 -117 -47c-80 0 -142 25 -186 75
s-66 114.667 -66 194c0 75.333 23.667 138.5 71 189.5s107.666 76.5 180.999 76.5c48.667 0 87.667 -9.33301 117 -28v21zM297.001 127c20 0 38.668 5.16797 56.001 15.501s29.333 24.5 36 42.5v173c-18.667 22.667 -49.667 34 -93 34
c-38.667 0 -69.334 -12.333 -92.001 -37s-34 -56.667 -34 -96c0 -20.667 3 -39.334 9 -56.001c7.33301 -25.333 21.833 -44.333 43.5 -57s46.5 -19 74.5 -19z" />
    <glyph glyph-name="uni0068" unicode="h" horiz-adv-x="574" 
d="M190 0h-145.001v730h145v-243c31.333 28.667 77.333 43 138 43c74 0 126.833 -20.667 158.5 -62s47.5 -100.333 47.5 -177v-291h-145v284c0 38 -7.16699 66 -21.5 84s-40.166 27 -77.499 27c-20 0 -39 -5.83301 -57 -17.5s-32.333 -26.5 -43 -44.5v-333z" />
    <glyph glyph-name="uni0069" unicode="i" horiz-adv-x="253" 
d="M199 0h-145v520h145v-520zM45 658c0 21.333 8.33398 38.666 25.001 51.999s35.667 20 57 20c22 0 41 -6.66699 57 -20s24 -30.666 24 -51.999c0 -22 -7.83301 -39.833 -23.5 -53.5s-34.834 -20.5 -57.501 -20.5s-42 6.66699 -58 20s-24 31.333 -24 54z" />
    <glyph glyph-name="uni006A" unicode="j" horiz-adv-x="252" 
d="M55 520h144.999v-518c0 -64.667 -14.833 -116 -44.5 -154s-75.834 -57 -138.501 -57c-91.333 0 -153.666 40 -186.999 120l127 49c10.667 -22.667 26.334 -34 47.001 -34c34 0 51 26.333 51 79v515zM44.999 659c0 22.667 8 40.332 24 52.999s35.667 19 59 19
c22 0 40.667 -6.66699 56 -20s23 -30.666 23 -51.999c0 -22.667 -7.33301 -40.667 -22 -54s-33.667 -20 -57 -20s-43 6.66699 -59 20s-24 31.333 -24 54z" />
    <glyph glyph-name="uni006B" unicode="k" horiz-adv-x="532" 
d="M190 0h-145v730h145v-386l164 176h186l-223 -227l230 -293h-184l-155 196l-18 -12v-184z" />
    <glyph glyph-name="uni006C" unicode="l" horiz-adv-x="235" 
d="M190 0h-145v730h145v-730z" />
    <glyph glyph-name="uni006D" unicode="m" horiz-adv-x="826" 
d="M786 346l0.000976562 -345.998h-145v305c0 60 -22.333 90 -67 90c-19.333 0 -36.5 -5.83301 -51.5 -17.5s-26.5 -26.834 -34.5 -45.501v-332h-145v329c0 19.333 -5.33301 35.166 -16 47.499s-25.667 18.5 -45 18.5c-21.333 0 -40.333 -5.83301 -57 -17.5
s-28.334 -27.167 -35.001 -46.5v-331h-145v520h145v-35c25.333 30 67 45 125 45c54 0 98.667 -18.667 134 -56c35.333 37.333 80.666 56 135.999 56c62.667 0 111.834 -15.333 147.501 -46s53.5 -76.667 53.5 -138z" />
    <glyph glyph-name="uni006E" unicode="n" horiz-adv-x="577" 
d="M190 0h-145v520h145v-37c27.333 31.333 74.666 47 141.999 47c136.667 0 205 -79.333 205 -238v-292h-145v283c0 38.667 -7.66699 67 -23 85s-41.666 27 -78.999 27c-48.667 0 -82 -23 -100 -69v-326z" />
    <glyph glyph-name="uni006F" unicode="o" horiz-adv-x="604" 
d="M20 261c0 80 27 144.999 81 194.999s120.667 75 200 75c80.667 0 148 -25.167 202 -75.5s81 -115.166 81 -194.499c0 -80 -27.333 -144.833 -82 -194.5s-121.667 -74.5 -201 -74.5s-146 25.333 -200 76s-81 115 -81 193zM170 260.999c0 -38 12.5 -69.833 37.5 -95.5
s56.167 -38.5 93.5 -38.5c40 0 72.167 12.333 96.5 37s36.5 57 36.5 97c0 39.333 -12.333 71.666 -37 96.999s-56.667 38 -96 38s-71 -12.667 -95 -38s-36 -57.666 -36 -96.999z" />
    <glyph glyph-name="uni0070" unicode="p" horiz-adv-x="582" 
d="M190 -200l-145.002 -0.000976562v720h145v-27c12.667 12 30.334 21.333 53.001 28s43.667 10 63 10c78 0 140.167 -24.667 186.5 -74s69.5 -112.333 69.5 -189c0 -79.333 -24 -145.166 -72 -197.499s-110.667 -78.5 -188 -78.5c-61.333 0 -98.666 8.66699 -111.999 26
v-218zM289.998 395.999c-44.667 0 -78 -19.667 -100 -59v-166c8 -13.333 21 -24 39 -32s35.667 -12 53 -12c39.333 0 70.833 11.833 94.5 35.5s35.5 55.167 35.5 94.5c0 42.667 -10 76.5 -30 101.5s-50.667 37.5 -92 37.5z" />
    <glyph glyph-name="uni0071" unicode="q" horiz-adv-x="579" 
d="M534 -200h-145.001v225c-27.333 -22 -66 -33 -116 -33c-77.333 0 -138.833 25.667 -184.5 77s-68.5 115.333 -68.5 192c0 78.667 26.167 142.667 78.5 192s117.5 74 195.5 74c40.667 0 72.334 -6.66699 95.001 -20v13h145v-720zM296.999 127
c17.333 0 35 4.50098 53 13.501s31 20.5 39 34.5v185c-21.333 21.333 -52 32 -92 32c-38 0 -68.667 -12.667 -92 -38s-35 -57 -35 -95c0 -38.667 11.667 -70.334 35 -95.001s54 -37 92 -37z" />
    <glyph glyph-name="uni0072" unicode="r" horiz-adv-x="362" 
d="M190 0l-145.001 -0.000976562v520h145v-21c6.66699 9.33301 18.334 16.833 35.001 22.5s31.667 8.5 45 8.5c44 0 78 -15 102 -45l-74 -116c-3.33301 6.66699 -10 11.834 -20 15.501s-19 5.5 -27 5.5c-30.667 0 -51 -18 -61 -54v-336z" />
    <glyph glyph-name="uni0073" unicode="s" horiz-adv-x="496" 
d="M331 155c0 6.66699 -4.32812 12.3379 -12.9951 17.0049c-9.33301 5.33301 -28.333 12.333 -57 21c-28.667 8 -52.667 15 -72 21c-42.667 11.333 -78.834 30.166 -108.501 56.499s-44.5 59.5 -44.5 99.5c0 38.667 12 70.667 36 96s51.833 42.5 83.5 51.5
s66.5 13.5 104.5 13.5c41.333 0 82.166 -8.16699 122.499 -24.5s71.5 -39.5 93.5 -69.5l-99 -95c-35.333 36 -84 54 -146 54c-30 0 -45 -8.33301 -45 -25c0 -5.33301 4.33301 -10 13 -14c7.33301 -4 28 -10.667 62 -20l60.5 -17.5
c14.333 -4.33301 33.166 -11.833 56.499 -22.5s41.333 -21.667 54 -33s24 -26.333 34 -45s15 -39.667 15 -63c0 -38.667 -11.5 -70.834 -34.5 -96.501s-50.333 -43.334 -82 -53.001s-66.167 -14.5 -103.5 -14.5c-50.667 0 -99.334 10.667 -146.001 32
s-81 52.666 -103 93.999l115 78c16 -20.667 38.167 -37.334 66.5 -50.001s56.166 -19 83.499 -19c36 0 54 9.33301 54 28z" />
    <glyph glyph-name="uni0074" unicode="t" horiz-adv-x="446" 
d="M104 385h-99.002v135h99v121h145v-121h159v-135h-159v-169c0 -12 0.5 -22.167 1.5 -30.5s3 -17.333 6 -27s8.33301 -17 16 -22s17.5 -7.5 29.5 -7.5c30.667 0 60.334 11.333 89.001 34l60 -103c-41.333 -44 -95.666 -66 -162.999 -66c-57.333 0 -102.333 15.667 -135 47
s-49 75.333 -49 132v212z" />
    <glyph glyph-name="uni0075" unicode="u" horiz-adv-x="570" 
d="M380 523h145v-523h-145v34c-36 -28 -76.667 -42 -122 -42c-145.333 0 -218 78 -218 234v297h145v-286c0 -73.333 29.333 -110 88 -110c46 0 81.667 21.333 107 64v332z" />
    <glyph glyph-name="uni0076" unicode="v" horiz-adv-x="527" 
d="M398 520h154l-228 -520h-110l-239 520h163l133 -300z" />
    <glyph glyph-name="uni0077" unicode="w" horiz-adv-x="747" 
d="M615 520h147l-167 -520h-115l-104 282l-105 -282h-114l-172 520h150l88 -273l100 273h108l101 -273z" />
    <glyph glyph-name="uni0078" unicode="x" horiz-adv-x="576" 
d="M402 520h175l-199 -252l208 -268h-180l-119 159l-123 -159h-174l208 267l-198 253h179l111 -141z" />
    <glyph glyph-name="uni0079" unicode="y" horiz-adv-x="557" 
d="M417 520h155l-293 -720h-157l107 244l-249 476h169l151 -302z" />
    <glyph glyph-name="uni007A" unicode="z" horiz-adv-x="514" 
d="M278 385h-243v135h459v-93l-259 -292h254v-135h-469v94z" />
    <glyph glyph-name="uni007B" unicode="{" horiz-adv-x="362" 
d="M89 -21v143.998c0 29.333 -5.83301 49.833 -17.5 61.5s-32.167 17.5 -61.5 17.5v128c30 0 50.667 3.83301 62 11.5s17 25.167 17 52.5v151c0 60.667 13.833 103.167 41.5 127.5s72.5 36.5 134.5 36.5h87v-128h-58c-23.333 0 -38.666 -5.16699 -45.999 -15.5
s-11 -28.166 -11 -53.499v-145c0 -47.333 -16.667 -79.666 -50 -96.999c33.333 -15.333 50 -49.333 50 -102v-153c0 -23.333 4 -39.333 12 -48c7.33301 -9.33301 21.666 -14 42.999 -14h60v-128h-105c-105.333 0 -158 51.333 -158 154z" />
    <glyph glyph-name="uni007C" unicode="|" horiz-adv-x="315" 
d="M235 0h-155v700h155v-700z" />
    <glyph glyph-name="uni007D" unicode="}" horiz-adv-x="362" 
d="M273 123v-143.999c0 -53.333 -13 -92.333 -39 -117s-65.667 -37 -119 -37h-105v128h60c21.333 0 36 4.66699 44 14c7.33301 9.33301 11 25.333 11 48v153c0 52.667 16.667 86.667 50 102c-33.333 17.333 -50 49.666 -50 96.999v145c0 26 -3.66699 44.333 -11 55
c-8 9.33301 -23.333 14 -46 14h-58v128h87c62 0 106.833 -12.167 134.5 -36.5s41.5 -66.833 41.5 -127.5v-151c0 -27.333 5.66699 -44.833 17 -52.5s32 -11.5 62 -11.5v-128c-29.333 0 -49.833 -5.83301 -61.5 -17.5s-17.5 -32.167 -17.5 -61.5z" />
    <glyph glyph-name="uni007E" unicode="~" horiz-adv-x="561" 
d="M85 258l-75.002 100c20.667 20.667 38 36.834 52 48.501s32.167 22.5 54.5 32.5s45.5 15 69.5 15c16 0 32.667 -2.66699 50 -8c14 -4.66699 38 -15.334 72 -32.001c30.667 -16 54.667 -24 72 -24c40 0 75.667 21.333 107 64l64 -102
c-19.333 -23.333 -44.166 -43.833 -74.499 -61.5s-59.166 -26.5 -86.499 -26.5c-16 0 -31.667 2 -47 6c-15.333 3.33301 -28 7.33301 -38 12c-6 2 -23.333 10.667 -52 26c-25.333 13.333 -47.333 20 -66 20c-33.333 0 -67.333 -23.333 -102 -70z" />
    <glyph glyph-name="uni00A0" unicode="&#xa0;" horiz-adv-x="236" 
 />
    <glyph glyph-name="uni00A1" unicode="&#xa1;" horiz-adv-x="309" 
d="M231 -182h-151v503h151v-503zM70 443c0 22 8.66699 40.335 26 55.002s37.333 22 60 22c22 0 41.667 -7.66699 59 -23c16 -16 24 -34 24 -54c0 -20.667 -8.66699 -38.334 -26 -53.001s-36.333 -22 -57 -22c-21.333 0 -41 7.16699 -59 21.5s-27 32.166 -27 53.499z" />
    <glyph glyph-name="uni00A2" unicode="&#xa2;" horiz-adv-x="545" 
d="M436 195l106 -62.998c-16.667 -32 -39.167 -59.667 -67.5 -83s-59.833 -39.333 -94.5 -48v-201h-155v201c-63.333 15.333 -112.5 46.166 -147.5 92.499s-52.5 102.166 -52.5 167.499c0 63.333 18.167 119 54.5 167s84.833 79.333 145.5 94v178h155v-178
c77.333 -18.667 130 -59 158 -121l-108 -70c-21.333 28 -44.666 47 -69.999 57v-256c31.333 10 56.666 31 75.999 63zM175 261.002c0 -24.667 6.33301 -47.333 19 -68s29.667 -36.667 51 -48v237c-22.667 -10.667 -40 -27 -52 -49s-18 -46 -18 -72z" />
    <glyph glyph-name="uni00A3" unicode="&#xa3;" horiz-adv-x="598" 
d="M138 248l-82.999 0.000976562v124h47c-18 41.333 -27 81.666 -27 120.999c0 63.333 23 114.833 69 154.5s101 59.5 165 59.5c92 0 167.667 -32.667 227 -98l-82 -116c-46.667 46 -95.667 69 -147 69c-24 0 -42.833 -7.33301 -56.5 -22s-20.5 -34 -20.5 -58
c0 -11.333 2 -23 6 -35c2.66699 -12.667 7.66699 -26.667 15 -42c6.66699 -18.667 11 -29.667 13 -33h166v-124h-141v-12c0 -30 -7.66699 -54.667 -23 -74c14.667 -1.33301 39.667 -7.33301 75 -18c36 -11.333 61.333 -17 76 -17c20.667 0 37.5 4.5 50.5 13.5
s27.5 23.5 43.5 43.5l77 -98c-44 -57.333 -100 -86 -168 -86c-29.333 0 -67.333 7 -114 21s-82.334 21 -107.001 21c-43.333 0 -83.333 -17.667 -120 -53l-69 107c36 33.333 71.333 55.333 106 66c14.667 19.333 22 43 22 71v15z" />
    <glyph glyph-name="uni00A4" unicode="&#xa4;" horiz-adv-x="650" 
d="M77 347c0 45.333 10.332 86.333 30.999 123l-83 84l94 94l87 -85c40.667 18 80.334 27 119.001 27c45.333 0 85 -9 119 -27l91 89l95 -94l-89 -89c22 -42 33 -82.667 33 -122c0 -38 -11 -78 -33 -120l85 -86l-94 -95l-87 87c-31.333 -18.667 -71.333 -28 -120 -28
c-46 0 -86.333 9.33301 -121 28l-91 -91l-93 94l89 91c-21.333 41.333 -32 81.333 -32 120zM221.999 347c0 -28 10.167 -52.666 30.5 -73.999s44.5 -32 72.5 -32c30 0 54.833 10.167 74.5 30.5s29.5 45.5 29.5 75.5s-10 55.5 -30 76.5s-44.667 31.5 -74 31.5
c-30.667 0 -55.5 -10.333 -74.5 -31s-28.5 -46.334 -28.5 -77.001z" />
    <glyph glyph-name="uni00A5" unicode="&#xa5;" horiz-adv-x="700" 
d="M271 301h-149v126h60l-192 273h192l169 -247l171 247h188l-195 -273h62v-126h-151v-65h151v-126h-151v-110h-155v110h-149v126h149v65z" />
    <glyph glyph-name="uni00A6" unicode="&#xa6;" horiz-adv-x="315" 
d="M235 700v-315h-155v315h155zM80 0v315h155v-315h-155z" />
    <glyph glyph-name="uni00A7" unicode="&#xa7;" horiz-adv-x="498" 
d="M30 262c0 76.667 29.334 131.332 88.001 163.999c-29.333 31.333 -44 67.666 -44 108.999c0 50 18.5 90 55.5 120s80.5 45 130.5 45c65.333 0 123.666 -32.667 174.999 -98l-93 -86c-20.667 26 -44.667 39 -72 39c-10.667 0 -20.167 -3.5 -28.5 -10.5
s-12.5 -15.833 -12.5 -26.5c0 -14.667 3.66699 -25.667 11 -33c6.66699 -8 18 -15.333 34 -22c56.667 -5.33301 103.167 -26.166 139.5 -62.499s54.5 -82.5 54.5 -138.5c0 -70.667 -29.333 -126 -88 -166c28 -31.333 42 -66.666 42 -105.999c0 -50 -18.167 -90 -54.5 -120
s-79.833 -45 -130.5 -45c-65.333 0 -123.666 32.667 -174.999 98l87 102c23.333 -36.667 52.666 -55 87.999 -55c12 0 21.333 3.66699 28 11s10 17 10 29c0 9.33301 -5 19 -15 29c-10 9.33301 -22.333 16.333 -37 21c-56 5.33301 -102.167 26.333 -138.5 63
s-54.5 83 -54.5 139zM178.001 261.998c0 -19.333 7 -37 21 -53s30.667 -24 50 -24c20.667 0 37.667 7.66699 51 23s20 33.333 20 54s-6.66699 38.667 -20 54s-30.333 23 -51 23s-37.667 -7.66699 -51 -23s-20 -33.333 -20 -54z" />
    <glyph glyph-name="uni00A8" unicode="&#xa8;" horiz-adv-x="479" 
d="M115 660c0 20 7.83203 36.668 23.499 50.001s33.834 20 54.501 20c20 0 38.167 -6.83301 54.5 -20.5s24.5 -30.167 24.5 -49.5c0 -9.33301 -2.66699 -20 -8 -32c-6.66699 -12 -16.667 -21.667 -30 -29s-27 -11 -41 -11c-22 0 -40.5 6.66699 -55.5 20
s-22.5 30.666 -22.5 51.999zM318.999 660.001c0 14 4.33398 26.833 13.001 38.5s20 20.167 34 25.5c13.333 4 24.666 6 33.999 6s20.333 -2 33 -6c13.333 -6 24.333 -14.667 33 -26s13 -24 13 -38c0 -21.333 -7.66699 -38.666 -23 -51.999s-34 -20 -56 -20
s-41 6.66699 -57 20s-24 30.666 -24 51.999z" />
    <glyph glyph-name="uni00A9" unicode="&#xa9;" horiz-adv-x="941" 
d="M40 237c0 120 42 220.333 126 301s185.333 121 304 121c125.333 0 228.5 -39.667 309.5 -119s121.5 -180.333 121.5 -303s-41.333 -223.667 -124 -303s-185 -119 -307 -119c-127.333 0 -230.833 39 -310.5 117s-119.5 179.667 -119.5 305zM173 237
c0 -86 28.168 -156.833 84.501 -212.5s127.166 -83.5 212.499 -83.5c88 0 159.667 27.667 215 83s83 126.333 83 213c0 90.667 -27.333 162.667 -82 216s-126.667 80 -216 80c-84 0 -154.5 -28.5 -211.5 -85.5s-85.5 -127.167 -85.5 -210.5zM604.001 185l80.002 -87.999
c-20 -30.667 -49.333 -55.834 -88 -75.501s-76.667 -29.5 -114 -29.5c-78.667 0 -141.834 22 -189.501 66s-71.5 105 -71.5 183c0 70 24.167 128.833 72.5 176.5s107.166 71.5 176.499 71.5c93.333 0 161.333 -33.333 204 -100l-94 -82c-26.667 32.667 -59 49 -97 49
c-33.333 0 -61 -10.833 -83 -32.5s-33 -49.167 -33 -82.5c0 -34.667 11.5 -62.667 34.5 -84s52.167 -32 87.5 -32c46 0 84.333 20 115 60z" />
    <glyph glyph-name="uni00AA" unicode="&#xaa;" horiz-adv-x="464" 
d="M109 529l-43.998 90.001c47.333 28 108.333 42 183 42c47.333 0 85.166 -12.667 113.499 -38s42.5 -61.666 42.5 -108.999v-215h-130v27c-18.667 -20.667 -48.667 -31 -90 -31c-38.667 0 -71.5 10.167 -98.5 30.5s-40.5 48.833 -40.5 85.5
c0 21.333 5.66699 39.666 17 54.999s26.666 26.833 45.999 34.5s38.333 13 57 16s38 4.5 58 4.5s37 -2.33301 51 -7c0 11.333 -3.66699 20.666 -11 27.999c-8 6 -22.333 9 -43 9c-36 0 -73 -7.33301 -111 -22zM221.002 400.001c22 0 39.667 5.33398 53 16.001v16
c-18 6 -35.333 9 -52 9c-28 0 -42 -7 -42 -21c0 -6.66699 2 -11.334 6 -14.001c4 -4 15.667 -6 35 -6z" />
    <glyph glyph-name="uni00AB" unicode="&#xab;" horiz-adv-x="578" 
d="M318 130l-101 -92l-187 222v7l187 214l100 -89l-112 -130zM548 130l-101 -92l-187 222v7l187 214l100 -89l-112 -130z" />
    <glyph glyph-name="uni00AC" unicode="&#xac;" horiz-adv-x="524" 
d="M382 296h-362v126h484v-241h-122v115z" />
    <glyph glyph-name="uni00AD" unicode="&#xad;" horiz-adv-x="424" 
d="M364 217h-304v130h304v-130z" />
    <glyph glyph-name="uni00AE" unicode="&#xae;" horiz-adv-x="576" 
d="M30 479c0 70 25.667 128.833 77 176.5s112 71.5 182 71.5s130.333 -24.167 181 -72.5s76 -106.833 76 -175.5c0 -70 -25.5 -129.333 -76.5 -178s-111.167 -73 -180.5 -73c-70.667 0 -131.5 24.5 -182.5 73.5s-76.5 108.167 -76.5 177.5zM262 397l0.00195312 -65h-106v295
h124c61.333 0 103.666 -16 126.999 -48c10 -16 15 -34.333 15 -55c0 -18 -3.83301 -35 -11.5 -51s-18.5 -27.667 -32.5 -35l55 -106c45.333 42 68 90.667 68 146c0 56 -21.333 104 -64 144s-92.334 60 -149.001 60s-106.334 -20 -149.001 -60s-64 -88 -64 -144
c0 -58.667 20.833 -107.5 62.5 -146.5s91.834 -58.5 150.501 -58.5c49.333 0 94.333 16.667 135 50c4 4 7.33301 7 10 9h-118l-29 65h-24zM307.002 513c0 10.667 -7 16 -21 16h-24v-32h24c14 0 21 5.33301 21 16z" />
    <glyph glyph-name="uni00AF" unicode="&#xaf;" horiz-adv-x="454" 
d="M454 610h-294v120h294v-120z" />
    <glyph glyph-name="uni00B0" unicode="&#xb0;" horiz-adv-x="417" 
d="M30 542c0 48 17.667 88.333 53 121s77 49 125 49c40.667 0 80 -13.333 118 -40c40.667 -32 61 -75 61 -129c0 -48 -17.833 -88.333 -53.5 -121s-77.5 -49 -125.5 -49s-89.667 16.333 -125 49s-53 72.667 -53 120zM170 542c0 -10.667 3.66797 -19 11.001 -25
s16.333 -9 27 -9c11.333 0 20.666 3 27.999 9s11 14.333 11 25c0 11.333 -3.66699 20 -11 26c-8 6 -17.333 9 -28 9s-19.667 -3.16699 -27 -9.5s-11 -14.833 -11 -25.5z" />
    <glyph glyph-name="uni00B1" unicode="&#xb1;" horiz-adv-x="535" 
d="M204 365h-164v125h164v175h125v-175h166v-125h-166v-94h-125v94zM495 122h-455v125h455v-125z" />
    <glyph glyph-name="uni00B2" unicode="&#xb2;" horiz-adv-x="425" 
d="M125 549l-95 60.999c16.667 38 42.167 66.5 76.5 85.5s73.5 28.5 117.5 28.5c43.333 0 80.666 -10.667 111.999 -32s47 -52.666 47 -93.999c0 -64 -30 -115 -90 -153l-39 -25h141v-120h-351v101l78 45c84 48 126 87.667 126 119c0 26 -12.667 39 -38 39
c-41.333 0 -69.666 -18.333 -84.999 -55z" />
    <glyph glyph-name="uni00B3" unicode="&#xb3;" horiz-adv-x="432" 
d="M114 557l-87 70c18.667 32 44.5 56.333 77.5 73s68.833 25 107.5 25c19.333 0 38 -1.5 56 -4.5s36.167 -8.16699 54.5 -15.5s33 -18.333 44 -33s16.5 -32 16.5 -52c0 -41.333 -19.333 -72.666 -58 -93.999c44.667 -16.667 67 -48.667 67 -96
c0 -44.667 -18.833 -78.334 -56.5 -101.001s-80.167 -34 -127.5 -34c-88.667 0 -151.334 37.333 -188.001 112l99 57c10.667 -32.667 40.334 -49 89.001 -49c17.333 0 30 1.66699 38 5c7.33301 3.33301 11 9.33301 11 18c0 14.667 -18 22 -54 22h-39v100h33c34 0 51 8 51 24
c0 14 -12.667 21 -38 21c-41.333 0 -73.333 -16 -96 -48z" />
    <glyph glyph-name="uni00B4" unicode="&#xb4;" horiz-adv-x="454" 
d="M328 833l109 -82l-132 -164l-100 70z" />
    <glyph glyph-name="uni00B5" unicode="&#xb5;" horiz-adv-x="577" 
d="M387 520h145v-520h-145v27c-31.333 -23.333 -72 -35 -122 -35c-12 0 -25.667 1.66699 -41 5c-12 3.33301 -23.333 8 -34 14v-210h-145v719h145v-283c0 -35.333 6.66699 -62.5 20 -81.5s37 -28.5 71 -28.5c18 0 37.167 3.66699 57.5 11s36.5 17 48.5 29v353z" />
    <glyph glyph-name="uni00B5" unicode="&#x3bc;" horiz-adv-x="577" 
d="M387 520h145v-520h-145v27c-31.333 -23.333 -72 -35 -122 -35c-12 0 -25.667 1.66699 -41 5c-12 3.33301 -23.333 8 -34 14v-210h-145v719h145v-283c0 -35.333 6.66699 -62.5 20 -81.5s37 -28.5 71 -28.5c18 0 37.167 3.66699 57.5 11s36.5 17 48.5 29v353z" />
    <glyph glyph-name="uni00B6" unicode="&#xb6;" horiz-adv-x="451" 
d="M22 465c0 72.667 20.832 129.999 62.499 171.999s98.834 63 171.501 63h175v-128h-82v-555c0 -65.333 -14.333 -114.833 -43 -148.5s-74 -50.5 -136 -50.5s-112 21.667 -150 65l65 112c27.333 -21.333 54.333 -32 81 -32c23.333 0 35 18.333 35 55v217
c-57.333 10.667 -101.5 36.834 -132.5 78.501s-46.5 92.167 -46.5 151.5z" />
    <glyph glyph-name="uni00B7" unicode="&#xb7;" horiz-adv-x="236" 
d="M18 303c0 21.333 8.83301 39 26.5 53s37.5 21 59.5 21c20.667 0 39.667 -7.33301 57 -22s26 -32 26 -52c0 -22 -8.33301 -40.333 -25 -55s-36 -22 -58 -22c-22.667 0 -42.667 7.33301 -60 22s-26 33 -26 55z" />
    <glyph glyph-name="uni00B8" unicode="&#xb8;" horiz-adv-x="468" 
d="M184 -161l44 69.002c18.667 -18.667 45.667 -28 81 -28c8.66699 0 15.667 1 21 3c5.33301 3.33301 8 6.66602 8 9.99902c0 11.333 -15 17 -45 17h-6v90h75v-26c30.667 -2.66699 56 -11.334 76 -26.001s30 -36 30 -64c0 -22.667 -6.83301 -40.5 -20.5 -53.5
s-32.834 -23.833 -57.501 -32.5c-19.333 -5.33301 -43.666 -8 -72.999 -8c-52 0 -96.333 16.333 -133 49z" />
    <glyph glyph-name="uni00B9" unicode="&#xb9;" horiz-adv-x="330" 
d="M58 539l-48 114l161 67h99v-420h-135v270z" />
    <glyph glyph-name="uni00BA" unicode="&#xba;" horiz-adv-x="463" 
d="M40 478c0 56 17.668 100.499 53.001 133.499s81.333 49.5 138 49.5c57.333 0 103.666 -16.333 138.999 -49s53 -77.334 53 -134.001c0 -55.333 -18 -99.666 -54 -132.999s-82 -50 -138 -50s-101.833 16.833 -137.5 50.5s-53.5 77.834 -53.5 132.501zM175.001 477.999
c0 -16.667 5.16602 -30.5 15.499 -41.5s23.833 -16.5 40.5 -16.5c38 0 57 19.333 57 58c0 17.333 -5.16699 31.333 -15.5 42s-24.166 16 -41.499 16s-31 -5.33301 -41 -16s-15 -24.667 -15 -42z" />
    <glyph glyph-name="uni00BB" unicode="&#xbb;" horiz-adv-x="578" 
d="M548 267v-7l-187 -222l-101 92l113 132l-112 130l100 89zM318 267v-7l-187 -222l-101 92l113 132l-112 130l100 89z" />
    <glyph glyph-name="uni00BC" unicode="&#xbc;" horiz-adv-x="899" 
d="M229 -31l-109 90l551 671l107 -86zM68 539l-48 114l161 67h99v-420h-135v270zM811 0h-125v64h-226v94l244 262h107v-241h68v-115h-68v-64zM686 260l-78 -81h78v81z" />
    <glyph glyph-name="uni00BD" unicode="&#xbd;" horiz-adv-x="965" 
d="M229 -31l-109 90l551 671l107 -86zM68 539l-48 114l161 67h99v-420h-135v270zM655 249l-95 60.999c16.667 38 42.167 66.5 76.5 85.5s73.5 28.5 117.5 28.5c43.333 0 80.666 -10.667 111.999 -32s47 -52.666 47 -93.999c0 -64 -30 -115 -90 -153l-39 -25h141v-120h-351
v101l78 45c84 48 126 87.667 126 119c0 26 -12.667 39 -38 39c-41.333 0 -69.666 -18.333 -84.999 -55z" />
    <glyph glyph-name="uni00BE" unicode="&#xbe;" horiz-adv-x="939" 
d="M269 -31l-109 90l551 671l107 -86zM851 0h-125v64h-226v94l244 262h107v-241h68v-115h-68v-64zM726 260l-78 -81h78v81zM114 557l-87 70c18.667 32 44.5 56.333 77.5 73s68.833 25 107.5 25c19.333 0 38 -1.5 56 -4.5s36.167 -8.16699 54.5 -15.5s33 -18.333 44 -33
s16.5 -32 16.5 -52c0 -41.333 -19.333 -72.666 -58 -93.999c44.667 -16.667 67 -48.667 67 -96c0 -44.667 -18.833 -78.334 -56.5 -101.001s-80.167 -34 -127.5 -34c-88.667 0 -151.334 37.333 -188.001 112l99 57c10.667 -32.667 40.334 -49 89.001 -49
c17.333 0 30 1.66699 38 5c7.33301 3.33301 11 9.33301 11 18c0 14.667 -18 22 -54 22h-39v100h33c34 0 51 8 51 24c0 14 -12.667 21 -38 21c-41.333 0 -73.333 -16 -96 -48z" />
    <glyph glyph-name="uni00BF" unicode="&#xbf;" horiz-adv-x="625" 
d="M190 28c0 -22.667 11.8311 -39.665 35.498 -50.998s48.167 -17 73.5 -17c77.333 0 129 31 155 93l141 -49c-20 -62 -58.167 -109.833 -114.5 -143.5s-118.833 -50.5 -187.5 -50.5c-43.333 0 -84 6.16699 -122 18.5s-71 33.666 -99 63.999s-42 67.166 -42 110.499
c0 26 3.16699 49.167 9.5 69.5s13.833 37 22.5 50s21.834 26 39.501 39s33.334 23.167 47.001 30.5s33.167 16.666 58.5 27.999c40 18 60 40 60 66c0 3.33301 -0.666992 10.333 -2 21l-2 14l141 2c6 -19.333 9 -36.666 9 -51.999c0 -37.333 -9.83301 -66.333 -29.5 -87
s-49.167 -40.667 -88.5 -60c-35.333 -17.333 -58.333 -29.333 -69 -36c-24 -15.333 -36 -35.333 -36 -60zM422.998 443.002c0 -21.333 -9 -39.168 -27 -53.501s-37.667 -21.5 -59 -21.5c-20.667 0 -39.667 7.33301 -57 22s-26 32.334 -26 53.001
c0 21.333 8.5 39.5 25.5 54.5s36.167 22.5 57.5 22.5c23.333 0 43.5 -7.16699 60.5 -21.5s25.5 -32.833 25.5 -55.5z" />
    <glyph glyph-name="uni00C0" unicode="&#xc0;" horiz-adv-x="721" 
d="M156 0h-160l307 700h115l307 -700h-162l-57 130h-293zM449 261l-90 209l-92 -209h182zM467 832l-57 -99l-240 113l69 128z" />
    <glyph glyph-name="uni00C1" unicode="&#xc1;" horiz-adv-x="721" 
d="M156 0h-160l307 700h115l307 -700h-162l-57 130h-293zM449 261l-90 209l-92 -209h182zM508 974l69 -128l-240 -113l-57 99z" />
    <glyph glyph-name="uni00C2" unicode="&#xc2;" horiz-adv-x="721" 
d="M156 0h-160l307 700h115l307 -700h-162l-57 130h-293zM449 261l-90 209l-92 -209h182zM355 945h4l184 -117l-58 -85l-128 66l-128 -66l-52 83z" />
    <glyph glyph-name="uni00C3" unicode="&#xc3;" horiz-adv-x="721" 
d="M156 0h-160l307 700h115l307 -700h-162l-57 130h-293zM449 261l-90 209l-92 -209h182zM218 766l-46 93.999c14.667 18.667 33.334 33.834 56.001 45.501s45.667 17.5 69 17.5c19.333 0 42.666 -5 69.999 -15c26 -10 47.667 -15 65 -15c33.333 0 59.333 10 78 30l38 -94
c-26.667 -44 -68.667 -66 -126 -66c-16 0 -38 5 -66 15c-29.333 10 -53.333 15 -72 15c-22 0 -44 -9 -66 -27z" />
    <glyph glyph-name="uni00C4" unicode="&#xc4;" horiz-adv-x="721" 
d="M156 0h-160l307 700h115l307 -700h-162l-57 130h-293zM449 261l-90 209l-92 -209h182zM152 831c0 22 8.5 40.167 25.5 54.5s36.833 21.5 59.5 21.5c21.333 0 40.5 -7.5 57.5 -22.5s25.5 -32.833 25.5 -53.5c0 -21.333 -8.5 -39.5 -25.5 -54.5s-36.167 -22.5 -57.5 -22.5
c-18 0 -33.667 4.33301 -47 13c-25.333 14 -38 35.333 -38 64zM401 831c0 22 8.66699 40.167 26 54.5s37 21.5 59 21.5s41.167 -7.33301 57.5 -22s24.5 -32.667 24.5 -54s-8.16699 -39.5 -24.5 -54.5s-35.5 -22.5 -57.5 -22.5s-41.667 7.33301 -59 22s-26 33 -26 55z" />
    <glyph glyph-name="uni00C5" unicode="&#xc5;" horiz-adv-x="721" 
d="M156 0h-160l307 700h115l307 -700h-162l-57 130h-293zM449 261l-90 209l-92 -209h182zM203 849c0 40.667 15 70.5 45 89.5s66.667 28.5 110 28.5c44.667 0 82.5 -9.33301 113.5 -28s46.5 -48.667 46.5 -90c0 -40.667 -15.833 -71 -47.5 -91s-69.167 -30 -112.5 -30
c-42 0 -78.333 10.333 -109 31s-46 50.667 -46 90zM313 849c0 -13.333 4.33203 -23.499 12.999 -30.499s20 -10.5 34 -10.5s25.5 3.5 34.5 10.5s13.5 17.167 13.5 30.5c0 25.333 -16 38 -48 38c-13.333 0 -24.666 -3 -33.999 -9c-8.66699 -6.66699 -13 -16.334 -13 -29.001z
" />
    <glyph glyph-name="uni00C6" unicode="&#xc6;" horiz-adv-x="1154" 
d="M1114 0h-544v130h-299l-102 -130h-169l527 700h578v-145h-380v-130h355v-140h-355v-140h389v-145zM570 532l-205 -271h205v271z" />
    <glyph glyph-name="uni00C7" unicode="&#xc7;" horiz-adv-x="696" 
d="M233 -157l54 65c18.667 -18.667 45.667 -28 81 -28c9.33301 0 16.333 1 21 3c5.33301 3.33301 8 6.66602 8 9.99902c0 11.333 -15 17 -45 17h-6v84c-98 8.66699 -175.167 45.334 -231.5 110.001s-84.5 146.667 -84.5 246c0 104.667 34.5 190.5 103.5 257.5
s155.167 100.5 258.5 100.5c58 0 112.833 -10.5 164.5 -31.5s91.167 -53.5 118.5 -97.5l-105 -96c-18.667 24 -43.167 42.5 -73.5 55.5s-61.5 19.5 -93.5 19.5c-64 0 -115.333 -19 -154 -57s-58 -88.333 -58 -151c0 -61.333 19.833 -111.333 59.5 -150
s89.834 -58 150.501 -58c81.333 0 145.666 29.667 192.999 89l92 -99c-56.667 -82.667 -145 -128.667 -265 -138v-20c77.333 -5.33301 116 -35.333 116 -90c0 -62.667 -46.333 -94 -139 -94c-72.667 0 -127.667 17.667 -165 53z" />
    <glyph glyph-name="uni00C8" unicode="&#xc8;" horiz-adv-x="649" 
d="M609 0h-544v700h535v-145h-380v-130h355v-140h-355v-140h389v-145zM457 832l-57 -99l-240 113l69 128z" />
    <glyph glyph-name="uni00C9" unicode="&#xc9;" horiz-adv-x="649" 
d="M609 0h-544v700h535v-145h-380v-130h355v-140h-355v-140h389v-145zM468 974l69 -128l-240 -113l-57 99z" />
    <glyph glyph-name="uni00CA" unicode="&#xca;" horiz-adv-x="649" 
d="M609 0h-544v700h535v-145h-380v-130h355v-140h-355v-140h389v-145zM334 945h4l184 -117l-58 -85l-128 66l-128 -66l-52 83z" />
    <glyph glyph-name="uni00CB" unicode="&#xcb;" horiz-adv-x="649" 
d="M609 0h-544v700h535v-145h-380v-130h355v-140h-355v-140h389v-145zM127 831c0 22 8.5 40.167 25.5 54.5s36.833 21.5 59.5 21.5c21.333 0 40.5 -7.5 57.5 -22.5s25.5 -32.833 25.5 -53.5c0 -21.333 -8.5 -39.5 -25.5 -54.5s-36.167 -22.5 -57.5 -22.5
c-18 0 -33.667 4.33301 -47 13c-25.333 14 -38 35.333 -38 64zM376 831c0 22 8.66699 40.167 26 54.5s37 21.5 59 21.5s41.167 -7.33301 57.5 -22s24.5 -32.667 24.5 -54s-8.16699 -39.5 -24.5 -54.5s-35.5 -22.5 -57.5 -22.5s-41.667 7.33301 -59 22s-26 33 -26 55z" />
    <glyph glyph-name="uni00CC" unicode="&#xcc;" horiz-adv-x="295" 
d="M225 0h-155v700h155v-700zM247 832l-57 -99l-240 113l69 128z" />
    <glyph glyph-name="uni00CD" unicode="&#xcd;" horiz-adv-x="295" 
d="M225 0h-155v700h155v-700zM288 974l69 -128l-240 -113l-57 99z" />
    <glyph glyph-name="uni00CE" unicode="&#xce;" horiz-adv-x="295" 
d="M225 0h-155v700h155v-700zM143 945h4l184 -117l-58 -85l-128 66l-128 -66l-52 83z" />
    <glyph glyph-name="uni00CF" unicode="&#xcf;" horiz-adv-x="295" 
d="M225 0h-155v700h155v-700zM-60 831c0 22.667 8.33301 41 25 55s36.667 21 60 21c21.333 0 40.5 -7.5 57.5 -22.5s25.5 -32.833 25.5 -53.5c0 -21.333 -8.5 -39.5 -25.5 -54.5s-36.167 -22.5 -57.5 -22.5c-23.333 0 -43.333 7.16699 -60 21.5s-25 32.833 -25 55.5z
M189 831c0 22 8.66699 40.167 26 54.5s37 21.5 59 21.5s41.167 -7.33301 57.5 -22s24.5 -32.667 24.5 -54s-8.16699 -39.5 -24.5 -54.5s-35.5 -22.5 -57.5 -22.5s-41.667 7.33301 -59 22s-26 33 -26 55z" />
    <glyph glyph-name="uni00D0" unicode="&#xd0;" horiz-adv-x="786" 
d="M131 285l-110.999 -0.000976562v129h111v286h222c122.667 0 220.5 -27.833 293.5 -83.5s109.5 -141.5 109.5 -257.5c0 -50 -7.33301 -95.167 -22 -135.5s-34.667 -74.166 -60 -101.499s-55.833 -50.333 -91.5 -69s-73.834 -32.167 -114.501 -40.5s-84 -12.5 -130 -12.5
h-207v285zM351.001 554.999h-65v-141h158v-129h-158v-140h65c162.667 0 244 71.333 244 214c0 130.667 -81.333 196 -244 196z" />
    <glyph glyph-name="uni00D1" unicode="&#xd1;" horiz-adv-x="740" 
d="M675 700v-700h-120l-339 415v-415h-151v700h119l340 -416v416h151zM228 766l-46 93.999c14.667 18.667 33.334 33.834 56.001 45.501s45.667 17.5 69 17.5c19.333 0 42.666 -5 69.999 -15c26 -10 47.667 -15 65 -15c33.333 0 59.333 10 78 30l38 -94
c-26.667 -44 -68.667 -66 -126 -66c-16 0 -38 5 -66 15c-29.333 10 -53.333 15 -72 15c-22 0 -44 -9 -66 -27z" />
    <glyph glyph-name="uni00D2" unicode="&#xd2;" horiz-adv-x="781" 
d="M30 350c0 101.333 35.168 187 105.501 257s155.5 105 255.5 105c70.667 0 136.167 -19 196.5 -57s104.166 -89 131.499 -153c21.333 -52 32 -102.667 32 -152c0 -100.667 -35 -186.167 -105 -256.5s-155 -105.5 -255 -105.5c-101.333 0 -186.833 35.167 -256.5 105.5
s-104.5 155.833 -104.5 256.5zM191.001 350c0 -58.667 19 -108.667 57 -150s85.667 -62 143 -62c60 0 108.167 20.333 144.5 61s54.5 91 54.5 151c0 58 -19 107.833 -57 149.5s-85.333 62.5 -142 62.5c-58.667 0 -106.667 -20.667 -144 -62s-56 -91.333 -56 -150z
M502.001 832l-57 -99l-240 113l69 128z" />
    <glyph glyph-name="uni00D3" unicode="&#xd3;" horiz-adv-x="781" 
d="M30 350c0 101.333 35.168 187 105.501 257s155.5 105 255.5 105c70.667 0 136.167 -19 196.5 -57s104.166 -89 131.499 -153c21.333 -52 32 -102.667 32 -152c0 -100.667 -35 -186.167 -105 -256.5s-155 -105.5 -255 -105.5c-101.333 0 -186.833 35.167 -256.5 105.5
s-104.5 155.833 -104.5 256.5zM191.001 350c0 -58.667 19 -108.667 57 -150s85.667 -62 143 -62c60 0 108.167 20.333 144.5 61s54.5 91 54.5 151c0 58 -19 107.833 -57 149.5s-85.333 62.5 -142 62.5c-58.667 0 -106.667 -20.667 -144 -62s-56 -91.333 -56 -150z
M533.001 974l69 -128l-240 -113l-57 99z" />
    <glyph glyph-name="uni00D4" unicode="&#xd4;" horiz-adv-x="781" 
d="M30 350c0 101.333 35.168 187 105.501 257s155.5 105 255.5 105c70.667 0 136.167 -19 196.5 -57s104.166 -89 131.499 -153c21.333 -52 32 -102.667 32 -152c0 -100.667 -35 -186.167 -105 -256.5s-155 -105.5 -255 -105.5c-101.333 0 -186.833 35.167 -256.5 105.5
s-104.5 155.833 -104.5 256.5zM191.001 350c0 -58.667 19 -108.667 57 -150s85.667 -62 143 -62c60 0 108.167 20.333 144.5 61s54.5 91 54.5 151c0 58 -19 107.833 -57 149.5s-85.333 62.5 -142 62.5c-58.667 0 -106.667 -20.667 -144 -62s-56 -91.333 -56 -150z
M385.001 945h4l184 -117l-58 -85l-128 66l-128 -66l-52 83z" />
    <glyph glyph-name="uni00D5" unicode="&#xd5;" horiz-adv-x="781" 
d="M30 350c0 101.333 35.168 187 105.501 257s155.5 105 255.5 105c70.667 0 136.167 -19 196.5 -57s104.166 -89 131.499 -153c21.333 -52 32 -102.667 32 -152c0 -100.667 -35 -186.167 -105 -256.5s-155 -105.5 -255 -105.5c-101.333 0 -186.833 35.167 -256.5 105.5
s-104.5 155.833 -104.5 256.5zM191.001 350c0 -58.667 19 -108.667 57 -150s85.667 -62 143 -62c60 0 108.167 20.333 144.5 61s54.5 91 54.5 151c0 58 -19 107.833 -57 149.5s-85.333 62.5 -142 62.5c-58.667 0 -106.667 -20.667 -144 -62s-56 -91.333 -56 -150z
M248.001 766l-46 93.999c14.667 18.667 33.334 33.834 56.001 45.501s45.667 17.5 69 17.5c19.333 0 42.666 -5 69.999 -15c26 -10 47.667 -15 65 -15c33.333 0 59.333 10 78 30l38 -94c-26.667 -44 -68.667 -66 -126 -66c-16 0 -38 5 -66 15c-29.333 10 -53.333 15 -72 15
c-22 0 -44 -9 -66 -27z" />
    <glyph glyph-name="uni00D6" unicode="&#xd6;" horiz-adv-x="781" 
d="M30 350c0 101.333 35.168 187 105.501 257s155.5 105 255.5 105c70.667 0 136.167 -19 196.5 -57s104.166 -89 131.499 -153c21.333 -52 32 -102.667 32 -152c0 -100.667 -35 -186.167 -105 -256.5s-155 -105.5 -255 -105.5c-101.333 0 -186.833 35.167 -256.5 105.5
s-104.5 155.833 -104.5 256.5zM191.001 350c0 -58.667 19 -108.667 57 -150s85.667 -62 143 -62c60 0 108.167 20.333 144.5 61s54.5 91 54.5 151c0 58 -19 107.833 -57 149.5s-85.333 62.5 -142 62.5c-58.667 0 -106.667 -20.667 -144 -62s-56 -91.333 -56 -150z
M182.001 831c0 22 8.5 40.167 25.5 54.5s36.833 21.5 59.5 21.5c21.333 0 40.5 -7.5 57.5 -22.5s25.5 -32.833 25.5 -53.5c0 -21.333 -8.5 -39.5 -25.5 -54.5s-36.167 -22.5 -57.5 -22.5c-18 0 -33.667 4.33301 -47 13c-25.333 14 -38 35.333 -38 64zM431.001 831
c0 22 8.66699 40.167 26 54.5s37 21.5 59 21.5s41.167 -7.33301 57.5 -22s24.5 -32.667 24.5 -54s-8.16699 -39.5 -24.5 -54.5s-35.5 -22.5 -57.5 -22.5s-41.667 7.33301 -59 22s-26 33 -26 55z" />
    <glyph glyph-name="uni00D7" unicode="&#xd7;" horiz-adv-x="605" 
d="M204 358l-124 124l92 92l123 -124l124 124l92 -92l-124 -124l124 -123l-92 -92l-124 124l-123 -124l-92 92z" />
    <glyph glyph-name="uni00D8" unicode="&#xd8;" horiz-adv-x="781" 
d="M168 -32l-108.999 90l51 62c-53.333 65.333 -80 142 -80 230c0 100.667 35.167 185.5 105.5 254.5s155.5 103.5 255.5 103.5c59.333 0 115.666 -13.333 168.999 -40l50 61l107 -86l-49 -60c55.333 -65.333 83 -143 83 -233c0 -100.667 -35 -185.5 -105 -254.5
s-155 -103.5 -255 -103.5c-63.333 0 -120.333 13.333 -171 40zM590.001 350c0 37.333 -8.66699 72.667 -26 106l-245 -302c23.333 -8 47.333 -12 72 -12c60 0 108.167 19.833 144.5 59.5s54.5 89.167 54.5 148.5zM191.001 350.001c0 -39.333 7.66699 -73.667 23 -103
l245 299c-22 8 -44.667 12 -68 12c-58.667 0 -106.667 -20 -144 -60s-56 -89.333 -56 -148z" />
    <glyph glyph-name="uni00D9" unicode="&#xd9;" horiz-adv-x="720" 
d="M510 700h155.001v-400c0 -92.667 -26.833 -167 -80.5 -223s-125.834 -84 -216.501 -84c-94 0 -169.667 29.167 -227 87.5s-86 133.5 -86 225.5v394h155v-376c0 -54 13.333 -98.5 40 -133.5s66 -52.5 118 -52.5c94.667 0 142 60.667 142 182v380zM472.001 832l-57 -99
l-240 113l69 128z" />
    <glyph glyph-name="uni00DA" unicode="&#xda;" horiz-adv-x="720" 
d="M510 700h155.001v-400c0 -92.667 -26.833 -167 -80.5 -223s-125.834 -84 -216.501 -84c-94 0 -169.667 29.167 -227 87.5s-86 133.5 -86 225.5v394h155v-376c0 -54 13.333 -98.5 40 -133.5s66 -52.5 118 -52.5c94.667 0 142 60.667 142 182v380zM503.001 974l69 -128
l-240 -113l-57 99z" />
    <glyph glyph-name="uni00DB" unicode="&#xdb;" horiz-adv-x="720" 
d="M510 700h155.001v-400c0 -92.667 -26.833 -167 -80.5 -223s-125.834 -84 -216.501 -84c-94 0 -169.667 29.167 -227 87.5s-86 133.5 -86 225.5v394h155v-376c0 -54 13.333 -98.5 40 -133.5s66 -52.5 118 -52.5c94.667 0 142 60.667 142 182v380zM355.001 945h4l184 -117
l-58 -85l-128 66l-128 -66l-52 83z" />
    <glyph glyph-name="uni00DC" unicode="&#xdc;" horiz-adv-x="720" 
d="M510 700h155.001v-400c0 -92.667 -26.833 -167 -80.5 -223s-125.834 -84 -216.501 -84c-94 0 -169.667 29.167 -227 87.5s-86 133.5 -86 225.5v394h155v-376c0 -54 13.333 -98.5 40 -133.5s66 -52.5 118 -52.5c94.667 0 142 60.667 142 182v380zM152.001 831
c0 22 8.5 40.167 25.5 54.5s36.833 21.5 59.5 21.5c21.333 0 40.5 -7.5 57.5 -22.5s25.5 -32.833 25.5 -53.5c0 -21.333 -8.5 -39.5 -25.5 -54.5s-36.167 -22.5 -57.5 -22.5c-18 0 -33.667 4.33301 -47 13c-25.333 14 -38 35.333 -38 64zM401.001 831
c0 22 8.66699 40.167 26 54.5s37 21.5 59 21.5s41.167 -7.33301 57.5 -22s24.5 -32.667 24.5 -54s-8.16699 -39.5 -24.5 -54.5s-35.5 -22.5 -57.5 -22.5s-41.667 7.33301 -59 22s-26 33 -26 55z" />
    <glyph glyph-name="uni00DD" unicode="&#xdd;" horiz-adv-x="700" 
d="M531 700h179l-284 -449v-251h-155v251l-281 449h185l176 -280zM498 974l69 -128l-240 -113l-57 99z" />
    <glyph glyph-name="uni00DE" unicode="&#xde;" horiz-adv-x="662" 
d="M220 120l-0.000976562 -120h-155v700h155v-100h115c56.667 0 106.334 -7.33301 149.001 -22s78 -40.5 106 -77.5s42 -84.167 42 -141.5c0 -55.333 -14.667 -101.5 -44 -138.5s-65.5 -63 -108.5 -78s-91.167 -22.5 -144.5 -22.5h-115zM338.999 455h-119v-190h113
c92 0 138 31.667 138 95s-44 95 -132 95z" />
    <glyph glyph-name="uni00DF" unicode="&#xdf;" horiz-adv-x="567" 
d="M291 738c68 0 121.335 -18.1689 160.002 -54.502s58 -88.166 58 -155.499c0 -30 -6.33301 -57.667 -19 -83s-31.334 -44.333 -56.001 -57c40 -13.333 68 -34.166 84 -62.499s24 -64.833 24 -109.5c0 -70.667 -18.833 -126.167 -56.5 -166.5s-90.834 -60.5 -159.501 -60.5
c-40 0 -74 6.66699 -102 20l33 131c21.333 -10.667 41.333 -16 60 -16c25.333 0 45 8.5 59 25.5s21 38.167 21 63.5c0 28.667 -8.83301 50.167 -26.5 64.5s-41.167 21.5 -70.5 21.5h-49v135h14c66 0 99 26.667 99 80c0 26 -8 47.333 -24 64s-37 25 -63 25
c-16 0 -29.667 -4 -41 -12s-20 -17.333 -26 -28s-10.5 -24.5 -13.5 -41.5s-4.83301 -31.333 -5.5 -43s-1 -25.5 -1 -41.5v-437h-145v436c0 201.333 82 302 246 302z" />
    <glyph glyph-name="uni00E0" unicode="&#xe0;" horiz-adv-x="532" 
d="M117 346l-68.9971 104.999c25.333 27.333 59.166 47.5 101.499 60.5s84.833 19.5 127.5 19.5c67.333 0 119.666 -19 156.999 -57s56 -91 56 -159v-315h-145v47c-14.667 -16.667 -35.5 -29.667 -62.5 -39s-52.833 -14 -77.5 -14c-54.667 0 -100 15 -136 45
s-54 71.667 -54 125c0 40.667 12.667 74.334 38 101.001s54.833 45 88.5 55s70.167 15 109.5 15s70.666 -4.33301 93.999 -13c1.33301 25.333 -5.33398 44 -20.001 56c-15.333 12 -36.666 18 -63.999 18c-48.667 0 -96.667 -16.667 -144 -50zM235.003 118.999
c22 0 43.499 5.33301 64.499 16s36.167 25 45.5 43v24c-23.333 8.66699 -49.666 13 -78.999 13c-22.667 0 -42 -2 -58 -6c-28.667 -9.33301 -43 -24.333 -43 -45c0 -16 7.16699 -27.5 21.5 -34.5s30.5 -10.5 48.5 -10.5zM354.002 655.999l-86 -69l-147 160l114 86z" />
    <glyph glyph-name="uni00E1" unicode="&#xe1;" horiz-adv-x="532" 
d="M117 346l-68.9971 104.999c25.333 27.333 59.166 47.5 101.499 60.5s84.833 19.5 127.5 19.5c67.333 0 119.666 -19 156.999 -57s56 -91 56 -159v-315h-145v47c-14.667 -16.667 -35.5 -29.667 -62.5 -39s-52.833 -14 -77.5 -14c-54.667 0 -100 15 -136 45
s-54 71.667 -54 125c0 40.667 12.667 74.334 38 101.001s54.833 45 88.5 55s70.167 15 109.5 15s70.666 -4.33301 93.999 -13c1.33301 25.333 -5.33398 44 -20.001 56c-15.333 12 -36.666 18 -63.999 18c-48.667 0 -96.667 -16.667 -144 -50zM235.003 118.999
c22 0 43.499 5.33301 64.499 16s36.167 25 45.5 43v24c-23.333 8.66699 -49.666 13 -78.999 13c-22.667 0 -42 -2 -58 -6c-28.667 -9.33301 -43 -24.333 -43 -45c0 -16 7.16699 -27.5 21.5 -34.5s30.5 -10.5 48.5 -10.5zM305.002 832.999l109 -82l-132 -164l-100 70z" />
    <glyph glyph-name="uni00E2" unicode="&#xe2;" horiz-adv-x="532" 
d="M117 346l-68.9971 104.999c25.333 27.333 59.166 47.5 101.499 60.5s84.833 19.5 127.5 19.5c67.333 0 119.666 -19 156.999 -57s56 -91 56 -159v-315h-145v47c-14.667 -16.667 -35.5 -29.667 -62.5 -39s-52.833 -14 -77.5 -14c-54.667 0 -100 15 -136 45
s-54 71.667 -54 125c0 40.667 12.667 74.334 38 101.001s54.833 45 88.5 55s70.167 15 109.5 15s70.666 -4.33301 93.999 -13c1.33301 25.333 -5.33398 44 -20.001 56c-15.333 12 -36.666 18 -63.999 18c-48.667 0 -96.667 -16.667 -144 -50zM235.003 118.999
c22 0 43.499 5.33301 64.499 16s36.167 25 45.5 43v24c-23.333 8.66699 -49.666 13 -78.999 13c-22.667 0 -42 -2 -58 -6c-28.667 -9.33301 -43 -24.333 -43 -45c0 -16 7.16699 -27.5 21.5 -34.5s30.5 -10.5 48.5 -10.5zM266.002 795.999h4l165 -136l-70 -88l-98 81
l-100 -79l-67 87z" />
    <glyph glyph-name="uni00E3" unicode="&#xe3;" horiz-adv-x="532" 
d="M117 346l-68.9971 104.999c25.333 27.333 59.166 47.5 101.499 60.5s84.833 19.5 127.5 19.5c67.333 0 119.666 -19 156.999 -57s56 -91 56 -159v-315h-145v47c-14.667 -16.667 -35.5 -29.667 -62.5 -39s-52.833 -14 -77.5 -14c-54.667 0 -100 15 -136 45
s-54 71.667 -54 125c0 40.667 12.667 74.334 38 101.001s54.833 45 88.5 55s70.167 15 109.5 15s70.666 -4.33301 93.999 -13c1.33301 25.333 -5.33398 44 -20.001 56c-15.333 12 -36.666 18 -63.999 18c-48.667 0 -96.667 -16.667 -144 -50zM235.003 118.999
c22 0 43.499 5.33301 64.499 16s36.167 25 45.5 43v24c-23.333 8.66699 -49.666 13 -78.999 13c-22.667 0 -42 -2 -58 -6c-28.667 -9.33301 -43 -24.333 -43 -45c0 -16 7.16699 -27.5 21.5 -34.5s30.5 -10.5 48.5 -10.5zM145.002 598.999l-59.999 67
c37.333 52 81.333 78 132 78c16 0 36.333 -6.33301 61 -19c25.333 -13.333 44.333 -20 57 -20c24 0 46 9 66 27l49 -75c-16 -20 -35.5 -37 -58.5 -51s-45.833 -21 -68.5 -21c-14 0 -33.667 6.66699 -59 20c-24.667 12.667 -44.667 19 -60 19
c-18.667 0 -38.334 -8.33301 -59.001 -25z" />
    <glyph glyph-name="uni00E4" unicode="&#xe4;" horiz-adv-x="532" 
d="M117 346l-68.9971 104.999c25.333 27.333 59.166 47.5 101.499 60.5s84.833 19.5 127.5 19.5c67.333 0 119.666 -19 156.999 -57s56 -91 56 -159v-315h-145v47c-14.667 -16.667 -35.5 -29.667 -62.5 -39s-52.833 -14 -77.5 -14c-54.667 0 -100 15 -136 45
s-54 71.667 -54 125c0 40.667 12.667 74.334 38 101.001s54.833 45 88.5 55s70.167 15 109.5 15s70.666 -4.33301 93.999 -13c1.33301 25.333 -5.33398 44 -20.001 56c-15.333 12 -36.666 18 -63.999 18c-48.667 0 -96.667 -16.667 -144 -50zM235.003 118.999
c22 0 43.499 5.33301 64.499 16s36.167 25 45.5 43v24c-23.333 8.66699 -49.666 13 -78.999 13c-22.667 0 -42 -2 -58 -6c-28.667 -9.33301 -43 -24.333 -43 -45c0 -16 7.16699 -27.5 21.5 -34.5s30.5 -10.5 48.5 -10.5zM86.002 659.999c0 20 7.83203 36.668 23.499 50.001
s33.834 20 54.501 20c20 0 38.167 -6.83301 54.5 -20.5s24.5 -30.167 24.5 -49.5c0 -9.33301 -2.66699 -20 -8 -32c-6.66699 -12 -16.667 -21.667 -30 -29s-27 -11 -41 -11c-22 0 -40.5 6.66699 -55.5 20s-22.5 30.666 -22.5 51.999zM290.001 660
c0 14 4.33398 26.833 13.001 38.5s20 20.167 34 25.5c13.333 4 24.666 6 33.999 6c8.66699 0 19.667 -2 33 -6c13.333 -6 24.333 -14.667 33 -26s13 -24 13 -38c0 -21.333 -7.66699 -38.666 -23 -51.999s-34 -20 -56 -20s-41 6.66699 -57 20s-24 30.666 -24 51.999z" />
    <glyph glyph-name="uni00E5" unicode="&#xe5;" horiz-adv-x="532" 
d="M117 346l-68.9971 104.999c25.333 27.333 59.166 47.5 101.499 60.5s84.833 19.5 127.5 19.5c67.333 0 119.666 -19 156.999 -57s56 -91 56 -159v-315h-145v47c-14.667 -16.667 -35.5 -29.667 -62.5 -39s-52.833 -14 -77.5 -14c-54.667 0 -100 15 -136 45
s-54 71.667 -54 125c0 40.667 12.667 74.334 38 101.001s54.833 45 88.5 55s70.167 15 109.5 15s70.666 -4.33301 93.999 -13c1.33301 25.333 -5.33398 44 -20.001 56c-15.333 12 -36.666 18 -63.999 18c-48.667 0 -96.667 -16.667 -144 -50zM235.003 118.999
c22 0 43.499 5.33301 64.499 16s36.167 25 45.5 43v24c-23.333 8.66699 -49.666 13 -78.999 13c-22.667 0 -42 -2 -58 -6c-28.667 -9.33301 -43 -24.333 -43 -45c0 -16 7.16699 -27.5 21.5 -34.5s30.5 -10.5 48.5 -10.5zM130.002 700.999c0 36.667 13.667 67.332 41 91.999
s59.333 37 96 37c38.667 0 71.5 -12.167 98.5 -36.5s40.5 -55.166 40.5 -92.499c0 -36.667 -13.833 -67 -41.5 -91s-60.167 -36 -97.5 -36c-36.667 0 -68.667 12.167 -96 36.5s-41 54.5 -41 90.5zM225.002 702.997c0 -13.333 4.00098 -24.001 12.001 -32.001
s18.667 -12 32 -12c12.667 0 23 4 31 12c7.33301 8.66699 11 19.334 11 32.001c0 12 -3.66699 22.333 -11 31c-8.66699 7.33301 -19 11 -31 11c-12.667 0 -23.334 -3.66699 -32.001 -11c-8 -8 -12 -18.333 -12 -31z" />
    <glyph glyph-name="uni00E6" unicode="&#xe6;" horiz-adv-x="878" 
d="M748 184l87.002 -88.002c-55.333 -69.333 -126.666 -104 -213.999 -104c-39.333 0 -77.833 6.5 -115.5 19.5s-68.834 32.5 -93.501 58.5c-48.667 -50.667 -111.334 -76 -188.001 -76c-60 0 -109.833 14 -149.5 42s-59.5 70.667 -59.5 128
c0 40.667 12.667 74.334 38 101.001s54.833 45 88.5 55s70.167 15 109.5 15s70.666 -4.33301 93.999 -13c1.33301 25.333 -5.33398 44 -20.001 56c-15.333 12 -36.666 18 -63.999 18c-48.667 0 -96.667 -16.667 -144 -50l-69 105c25.333 27.333 59.166 47.5 101.499 60.5
s84.833 19.5 127.5 19.5c64.667 0 116.667 -18.667 156 -56c47.333 37.333 106.333 56 177 56c72.667 0 132.167 -22 178.5 -66s69.5 -101.667 69.5 -173c0 -18.667 -2.66699 -46.667 -8 -84h-358c6.66699 -27.333 22.334 -47.666 47.001 -60.999s52.667 -20 84 -20
c53.333 0 95 19 125 57zM235.002 118.998c22 0 43.499 5.33301 64.499 16s36.167 25 45.5 43v24c-23.333 8.66699 -49.666 13 -78.999 13c-22.667 0 -42 -2 -58 -6c-28.667 -9.33301 -43 -24.333 -43 -45c0 -16 7.16699 -27.5 21.5 -34.5s30.5 -10.5 48.5 -10.5z
M605.001 400.998c-55.333 0 -92 -22.667 -110 -68h213c-12 45.333 -46.333 68 -103 68z" />
    <glyph glyph-name="uni00E7" unicode="&#xe7;" horiz-adv-x="540" 
d="M146 -161l44 69.001c18.667 -18.667 45.667 -28 81 -28c8.66699 0 15.667 1 21 3c5.33301 3.33301 8 6.66602 8 9.99902c0 11.333 -15 17 -45 17h-6v86c-70.667 10.667 -126.5 39.834 -167.5 87.501s-61.5 106.834 -61.5 177.501c0 79.333 26.167 144.166 78.5 194.499
s117.833 75.5 196.5 75.5c52 0 99.833 -10.667 143.5 -32s75.167 -54 94.5 -98l-108 -70c-17.333 22.667 -35 39.167 -53 49.5s-40.667 15.5 -68 15.5c-40 0 -72.333 -12.5 -97 -37.5s-37 -57.5 -37 -97.5c0 -39.333 14.667 -71.5 44 -96.5s64 -37.5 104 -37.5
c48 0 85.667 22.667 113 68l106 -63c-20.667 -39.333 -50.167 -71.5 -88.5 -96.5s-79.833 -39.167 -124.5 -42.5v-19c30.667 -2.66699 56 -11.334 76 -26.001s30 -36 30 -64c0 -22.667 -6.83301 -40.5 -20.5 -53.5s-32.834 -23.833 -57.501 -32.5
c-19.333 -5.33301 -43.666 -8 -72.999 -8c-52 0 -96.333 16.333 -133 49z" />
    <glyph glyph-name="uni00E8" unicode="&#xe8;" horiz-adv-x="558" 
d="M438 184l86.998 -88.001c-55.333 -69.333 -130 -104 -224 -104c-83.333 0 -151 24.667 -203 74s-78 114.333 -78 195c0 82 24.833 147.5 74.5 196.5s114.834 73.5 195.501 73.5c72.667 0 132.167 -22 178.5 -66s69.5 -101.667 69.5 -173
c0 -18.667 -2.66699 -46.667 -8 -84h-358c6.66699 -27.333 22.334 -47.666 47.001 -60.999s52.667 -20 84 -20c58.667 0 103.667 19 135 57zM284.998 400.999c-55.333 0 -92 -22.667 -110 -68h213c-12 45.333 -46.333 68 -103 68zM374.998 655.999l-86 -69l-147 160l114 86z
" />
    <glyph glyph-name="uni00E9" unicode="&#xe9;" horiz-adv-x="558" 
d="M438 184l86.998 -88.001c-55.333 -69.333 -130 -104 -224 -104c-83.333 0 -151 24.667 -203 74s-78 114.333 -78 195c0 82 24.833 147.5 74.5 196.5s114.834 73.5 195.501 73.5c72.667 0 132.167 -22 178.5 -66s69.5 -101.667 69.5 -173
c0 -18.667 -2.66699 -46.667 -8 -84h-358c6.66699 -27.333 22.334 -47.666 47.001 -60.999s52.667 -20 84 -20c58.667 0 103.667 19 135 57zM284.998 400.999c-55.333 0 -92 -22.667 -110 -68h213c-12 45.333 -46.333 68 -103 68zM315.998 832.999l109 -82l-132 -164
l-100 70z" />
    <glyph glyph-name="uni00EA" unicode="&#xea;" horiz-adv-x="558" 
d="M438 184l86.998 -88.001c-55.333 -69.333 -130 -104 -224 -104c-83.333 0 -151 24.667 -203 74s-78 114.333 -78 195c0 82 24.833 147.5 74.5 196.5s114.834 73.5 195.501 73.5c72.667 0 132.167 -22 178.5 -66s69.5 -101.667 69.5 -173
c0 -18.667 -2.66699 -46.667 -8 -84h-358c6.66699 -27.333 22.334 -47.666 47.001 -60.999s52.667 -20 84 -20c58.667 0 103.667 19 135 57zM284.998 400.999c-55.333 0 -92 -22.667 -110 -68h213c-12 45.333 -46.333 68 -103 68zM287.998 795.999h4l165 -136l-70 -88
l-98 81l-100 -79l-67 87z" />
    <glyph glyph-name="uni00EB" unicode="&#xeb;" horiz-adv-x="558" 
d="M438 184l86.998 -88.001c-55.333 -69.333 -130 -104 -224 -104c-83.333 0 -151 24.667 -203 74s-78 114.333 -78 195c0 82 24.833 147.5 74.5 196.5s114.834 73.5 195.501 73.5c72.667 0 132.167 -22 178.5 -66s69.5 -101.667 69.5 -173
c0 -18.667 -2.66699 -46.667 -8 -84h-358c6.66699 -27.333 22.334 -47.666 47.001 -60.999s52.667 -20 84 -20c58.667 0 103.667 19 135 57zM284.998 400.999c-55.333 0 -92 -22.667 -110 -68h213c-12 45.333 -46.333 68 -103 68zM96.998 659.999
c0 20 7.83203 36.668 23.499 50.001s33.834 20 54.501 20c20 0 38.167 -6.83301 54.5 -20.5s24.5 -30.167 24.5 -49.5c0 -9.33301 -2.66699 -20 -8 -32c-6.66699 -12 -16.667 -21.667 -30 -29s-27 -11 -41 -11c-22 0 -40.5 6.66699 -55.5 20s-22.5 30.666 -22.5 51.999z
M300.997 660c0 14 4.33398 26.833 13.001 38.5s20 20.167 34 25.5c13.333 4 24.666 6 33.999 6s20.333 -2 33 -6c13.333 -6 24.333 -14.667 33 -26s13 -24 13 -38c0 -21.333 -7.66699 -38.666 -23 -51.999s-34 -20 -56 -20s-41 6.66699 -57 20s-24 30.666 -24 51.999z" />
    <glyph glyph-name="uni00EC" unicode="&#xec;" horiz-adv-x="263" 
d="M204 0h-145v520h145v-520zM228 656l-86 -69l-147 160l114 86z" />
    <glyph glyph-name="uni00ED" unicode="&#xed;" horiz-adv-x="263" 
d="M204 0h-145v520h145v-520zM159 833l109 -82l-132 -164l-100 70z" />
    <glyph glyph-name="uni00EE" unicode="&#xee;" horiz-adv-x="263" 
d="M204 0h-145v520h145v-520zM130 796h4l165 -136l-70 -88l-98 81l-100 -79l-67 87z" />
    <glyph glyph-name="uni00EF" unicode="&#xef;" horiz-adv-x="263" 
d="M204 0h-145v520h145v-520zM-50 660c0 20 7.83203 36.668 23.499 50.001s33.834 20 54.501 20c20 0 38.167 -6.83301 54.5 -20.5s24.5 -30.167 24.5 -49.5c0 -9.33301 -2.66699 -20 -8 -32c-6.66699 -12 -16.667 -21.667 -30 -29s-27 -11 -41 -11
c-22 0 -40.5 6.66699 -55.5 20s-22.5 30.666 -22.5 51.999zM153.999 660.001c0 14 4.33301 26.833 13 38.5s20 20.167 34 25.5c12.667 4 24 6 34 6c8.66699 0 19.667 -2 33 -6c13.333 -6 24.333 -14.667 33 -26s13 -24 13 -38c0 -21.333 -7.66699 -38.666 -23 -51.999
s-34 -20 -56 -20s-41 6.66699 -57 20s-24 30.666 -24 51.999z" />
    <glyph glyph-name="uni00F0" unicode="&#xf0;" horiz-adv-x="614" 
d="M252 733l21.999 47l100 -39l-20 -44c77.333 -37.333 135.833 -89 175.5 -155s59.5 -142.667 59.5 -230c0 -94.667 -24.5 -171.667 -73.5 -231s-118.833 -89 -209.5 -89c-79.333 0 -146 25.333 -200 76s-81 115 -81 193c0 80 26.833 143.333 80.5 190s120.5 70 200.5 70
c16 0 32.667 -2 50 -6c18 -6 31.667 -11.333 41 -16c-22 34.667 -53.667 63 -95 85l-21 -46l-99 39l19 43c-8 2 -28.333 4.66699 -61 8l35 120c28.667 -4 54.334 -9 77.001 -15zM174.999 261c0 -38 12.5 -69.832 37.5 -95.499s56.167 -38.5 93.5 -38.5
c44 0 77.167 13.833 99.5 41.5s33.5 64.167 33.5 109.5c0 36.667 -3.33301 62.667 -10 78c-22.667 26.667 -56 40 -100 40c-46 0 -83.167 -11.333 -111.5 -34s-42.5 -56.334 -42.5 -101.001z" />
    <glyph glyph-name="uni00F1" unicode="&#xf1;" horiz-adv-x="577" 
d="M190 0h-145v520h145v-37c27.333 31.333 74.666 47 141.999 47c136.667 0 205 -79.333 205 -238v-292h-145v283c0 38.667 -7.66699 67 -23 85s-41.666 27 -78.999 27c-48.667 0 -82 -23 -100 -69v-326zM168 599l-59.999 67c37.333 52 81.333 78 132 78
c16 0 36.333 -6.33301 61 -19c25.333 -13.333 44.333 -20 57 -20c24 0 46 9 66 27l49 -75c-16 -20 -35.5 -37 -58.5 -51s-45.833 -21 -68.5 -21c-14 0 -33.667 6.66699 -59 20c-24.667 12.667 -44.667 19 -60 19c-18.667 0 -38.334 -8.33301 -59.001 -25z" />
    <glyph glyph-name="uni00F2" unicode="&#xf2;" horiz-adv-x="604" 
d="M20 261c0 80 27 144.999 81 194.999s120.667 75 200 75c80.667 0 148 -25.167 202 -75.5s81 -115.166 81 -194.499c0 -80 -27.333 -144.833 -82 -194.5s-121.667 -74.5 -201 -74.5s-146 25.333 -200 76s-81 115 -81 193zM170 260.999c0 -38 12.5 -69.833 37.5 -95.5
s56.167 -38.5 93.5 -38.5c40 0 72.167 12.333 96.5 37s36.5 57 36.5 97c0 39.333 -12.333 71.666 -37 96.999s-56.667 38 -96 38s-71 -12.667 -95 -38s-36 -57.666 -36 -96.999zM378 655.999l-86 -69l-147 160l114 86z" />
    <glyph glyph-name="uni00F3" unicode="&#xf3;" horiz-adv-x="604" 
d="M20 261c0 80 27 144.999 81 194.999s120.667 75 200 75c80.667 0 148 -25.167 202 -75.5s81 -115.166 81 -194.499c0 -80 -27.333 -144.833 -82 -194.5s-121.667 -74.5 -201 -74.5s-146 25.333 -200 76s-81 115 -81 193zM170 260.999c0 -38 12.5 -69.833 37.5 -95.5
s56.167 -38.5 93.5 -38.5c40 0 72.167 12.333 96.5 37s36.5 57 36.5 97c0 39.333 -12.333 71.666 -37 96.999s-56.667 38 -96 38s-71 -12.667 -95 -38s-36 -57.666 -36 -96.999zM339 832.999l109 -82l-132 -164l-100 70z" />
    <glyph glyph-name="uni00F4" unicode="&#xf4;" horiz-adv-x="604" 
d="M20 261c0 80 27 144.999 81 194.999s120.667 75 200 75c80.667 0 148 -25.167 202 -75.5s81 -115.166 81 -194.499c0 -80 -27.333 -144.833 -82 -194.5s-121.667 -74.5 -201 -74.5s-146 25.333 -200 76s-81 115 -81 193zM170 260.999c0 -38 12.5 -69.833 37.5 -95.5
s56.167 -38.5 93.5 -38.5c40 0 72.167 12.333 96.5 37s36.5 57 36.5 97c0 39.333 -12.333 71.666 -37 96.999s-56.667 38 -96 38s-71 -12.667 -95 -38s-36 -57.666 -36 -96.999zM300 795.999h4l165 -136l-70 -88l-98 81l-100 -79l-67 87z" />
    <glyph glyph-name="uni00F5" unicode="&#xf5;" horiz-adv-x="604" 
d="M20 261c0 80 27 144.999 81 194.999s120.667 75 200 75c80.667 0 148 -25.167 202 -75.5s81 -115.166 81 -194.499c0 -80 -27.333 -144.833 -82 -194.5s-121.667 -74.5 -201 -74.5s-146 25.333 -200 76s-81 115 -81 193zM170 260.999c0 -38 12.5 -69.833 37.5 -95.5
s56.167 -38.5 93.5 -38.5c40 0 72.167 12.333 96.5 37s36.5 57 36.5 97c0 39.333 -12.333 71.666 -37 96.999s-56.667 38 -96 38s-71 -12.667 -95 -38s-36 -57.666 -36 -96.999zM179 598.999l-59.999 67c37.333 52 81.333 78 132 78c16 0 36.333 -6.33301 61 -19
c25.333 -13.333 44.333 -20 57 -20c24 0 46 9 66 27l49 -75c-16 -20 -35.5 -37 -58.5 -51s-45.833 -21 -68.5 -21c-14 0 -33.667 6.66699 -59 20c-24.667 12.667 -44.667 19 -60 19c-18.667 0 -38.334 -8.33301 -59.001 -25z" />
    <glyph glyph-name="uni00F6" unicode="&#xf6;" horiz-adv-x="604" 
d="M20 261c0 80 27 144.999 81 194.999s120.667 75 200 75c80.667 0 148 -25.167 202 -75.5s81 -115.166 81 -194.499c0 -80 -27.333 -144.833 -82 -194.5s-121.667 -74.5 -201 -74.5s-146 25.333 -200 76s-81 115 -81 193zM170 260.999c0 -38 12.5 -69.833 37.5 -95.5
s56.167 -38.5 93.5 -38.5c40 0 72.167 12.333 96.5 37s36.5 57 36.5 97c0 39.333 -12.333 71.666 -37 96.999s-56.667 38 -96 38s-71 -12.667 -95 -38s-36 -57.666 -36 -96.999zM120 659.999c0 20 7.83203 36.668 23.499 50.001s33.834 20 54.501 20
c20 0 38.167 -6.83301 54.5 -20.5s24.5 -30.167 24.5 -49.5c0 -9.33301 -2.66699 -20 -8 -32c-6.66699 -12 -16.667 -21.667 -30 -29s-27 -11 -41 -11c-22 0 -40.5 6.66699 -55.5 20s-22.5 30.666 -22.5 51.999zM323.999 660c0 14 4.33398 26.833 13.001 38.5
s20 20.167 34 25.5c13.333 4 24.666 6 33.999 6c8.66699 0 19.667 -2 33 -6c13.333 -6 24.333 -14.667 33 -26s13 -24 13 -38c0 -21.333 -7.66699 -38.666 -23 -51.999s-34 -20 -56 -20s-41 6.66699 -57 20s-24 30.666 -24 51.999z" />
    <glyph glyph-name="uni00F7" unicode="&#xf7;" horiz-adv-x="555" 
d="M196 543c0 20 8.49902 37 25.499 51s35.833 21 56.5 21c20 0 38.5 -7 55.5 -21s25.5 -31 25.5 -51c0 -21.333 -8.16699 -38.833 -24.5 -52.5s-35.166 -20.5 -56.499 -20.5c-22 0 -41.167 6.83301 -57.5 20.5s-24.5 31.167 -24.5 52.5zM195.999 175
c0 21.333 8.33203 38.668 24.999 52.001s35.667 20 57 20c20.667 0 39.334 -6.83301 56.001 -20.5s25 -30.834 25 -51.501c0 -21.333 -8 -39 -24 -53s-35 -21 -57 -21s-41.167 6.83301 -57.5 20.5s-24.5 31.5 -24.5 53.5zM524.998 296.002h-495v126h495v-126z" />
    <glyph glyph-name="uni00F8" unicode="&#xf8;" horiz-adv-x="604" 
d="M20 261c0 80 27 145 81 195s120.667 75 200 75c42.667 0 82 -7.33301 118 -22l45 54l107 -86l-41 -50c36 -48.667 54 -104 54 -166c0 -80 -27.333 -144.833 -82 -194.5s-121.667 -74.5 -201 -74.5c-38.667 0 -76 6.66699 -112 20l-51 -62l-109 90l46 55
c-36.667 46.667 -55 102 -55 166zM170 261c0 -16.667 2 -31.334 6 -44.001l148 177l-23 2c-39.333 0 -71 -12.667 -95 -38s-36 -57.666 -36 -96.999zM434 261c0 15.333 -2 29.333 -6 42l-144 -175l17 -1c40 0 72.167 12.333 96.5 37s36.5 57 36.5 97z" />
    <glyph glyph-name="uni00F9" unicode="&#xf9;" horiz-adv-x="570" 
d="M380 523h145v-523h-145v34c-36 -28 -76.667 -42 -122 -42c-145.333 0 -218 78 -218 234v297h145v-286c0 -73.333 29.333 -110 88 -110c46 0 81.667 21.333 107 64v332zM379 656l-86 -69l-147 160l114 86z" />
    <glyph glyph-name="uni00FA" unicode="&#xfa;" horiz-adv-x="570" 
d="M380 523h145v-523h-145v34c-36 -28 -76.667 -42 -122 -42c-145.333 0 -218 78 -218 234v297h145v-286c0 -73.333 29.333 -110 88 -110c46 0 81.667 21.333 107 64v332zM310 833l109 -82l-132 -164l-100 70z" />
    <glyph glyph-name="uni00FB" unicode="&#xfb;" horiz-adv-x="570" 
d="M380 523h145v-523h-145v34c-36 -28 -76.667 -42 -122 -42c-145.333 0 -218 78 -218 234v297h145v-286c0 -73.333 29.333 -110 88 -110c46 0 81.667 21.333 107 64v332zM281 796h4l165 -136l-70 -88l-98 81l-100 -79l-67 87z" />
    <glyph glyph-name="uni00FC" unicode="&#xfc;" horiz-adv-x="570" 
d="M380 523h145v-523h-145v34c-36 -28 -76.667 -42 -122 -42c-145.333 0 -218 78 -218 234v297h145v-286c0 -73.333 29.333 -110 88 -110c46 0 81.667 21.333 107 64v332zM101 660c0 20 7.83203 36.668 23.499 50.001s33.834 20 54.501 20c20 0 38.167 -6.83301 54.5 -20.5
s24.5 -30.167 24.5 -49.5c0 -9.33301 -2.66699 -20 -8 -32c-6.66699 -12 -16.667 -21.667 -30 -29s-27 -11 -41 -11c-22 0 -40.5 6.66699 -55.5 20s-22.5 30.666 -22.5 51.999zM304.999 660.001c0 14 4.33398 26.833 13.001 38.5s20 20.167 34 25.5
c13.333 4 24.666 6 33.999 6s20.333 -2 33 -6c13.333 -6 24.333 -14.667 33 -26s13 -24 13 -38c0 -21.333 -7.66699 -38.666 -23 -51.999s-34 -20 -56 -20s-41 6.66699 -57 20s-24 30.666 -24 51.999z" />
    <glyph glyph-name="uni00FD" unicode="&#xfd;" horiz-adv-x="557" 
d="M417 520h155l-293 -720h-157l107 244l-249 476h169l151 -302zM316 833l109 -82l-132 -164l-100 70z" />
    <glyph glyph-name="uni00FE" unicode="&#xfe;" horiz-adv-x="587" 
d="M190 -200l-145.002 -0.000976562v930h145v-237c12.667 12 30.334 21.333 53.001 28s43.667 10 63 10c78 0 140.167 -24.667 186.5 -74s69.5 -112.333 69.5 -189c0 -79.333 -24 -145.166 -72 -197.499s-110.667 -78.5 -188 -78.5c-61.333 0 -98.666 8.66699 -111.999 26
v-218zM289.998 395.999c-44.667 0 -78 -19.667 -100 -59v-166c8 -13.333 21 -24 39 -32s35.667 -12 53 -12c39.333 0 70.833 11.833 94.5 35.5s35.5 55.167 35.5 94.5c0 42.667 -10 76.5 -30 101.5s-50.667 37.5 -92 37.5z" />
    <glyph glyph-name="uni00FF" unicode="&#xff;" horiz-adv-x="557" 
d="M417 520h155l-293 -720h-157l107 244l-249 476h169l151 -302zM97 660c0 20 7.83203 36.668 23.499 50.001s33.834 20 54.501 20c20 0 38.167 -6.83301 54.5 -20.5s24.5 -30.167 24.5 -49.5c0 -9.33301 -2.66699 -20 -8 -32c-6.66699 -12 -16.667 -21.667 -30 -29
s-27 -11 -41 -11c-22 0 -40.5 6.66699 -55.5 20s-22.5 30.666 -22.5 51.999zM300.999 660.001c0 14 4.33398 26.833 13.001 38.5s20 20.167 34 25.5c13.333 4 24.666 6 33.999 6s20.333 -2 33 -6c13.333 -6 24.333 -14.667 33 -26s13 -24 13 -38
c0 -21.333 -7.66699 -38.666 -23 -51.999s-34 -20 -56 -20s-41 6.66699 -57 20s-24 30.666 -24 51.999z" />
    <glyph glyph-name="uni0100" unicode="&#x100;" horiz-adv-x="721" 
d="M156 0h-160l307 700h115l307 -700h-162l-57 130h-293zM449 261l-90 209l-92 -209h182zM517 770h-314v120h314v-120z" />
    <glyph glyph-name="uni0101" unicode="&#x101;" horiz-adv-x="532" 
d="M117 346l-68.9971 104.999c25.333 27.333 59.166 47.5 101.499 60.5s84.833 19.5 127.5 19.5c67.333 0 119.666 -19 156.999 -57s56 -91 56 -159v-315h-145v47c-14.667 -16.667 -35.5 -29.667 -62.5 -39s-52.833 -14 -77.5 -14c-54.667 0 -100 15 -136 45
s-54 71.667 -54 125c0 40.667 12.667 74.334 38 101.001s54.833 45 88.5 55s70.167 15 109.5 15s70.666 -4.33301 93.999 -13c1.33301 25.333 -5.33398 44 -20.001 56c-15.333 12 -36.666 18 -63.999 18c-48.667 0 -96.667 -16.667 -144 -50zM235.003 118.999
c22 0 43.499 5.33301 64.499 16s36.167 25 45.5 43v24c-23.333 8.66699 -49.666 13 -78.999 13c-22.667 0 -42 -2 -58 -6c-28.667 -9.33301 -43 -24.333 -43 -45c0 -16 7.16699 -27.5 21.5 -34.5s30.5 -10.5 48.5 -10.5zM415.002 609.999h-294v120h294v-120z" />
    <glyph glyph-name="uni0102" unicode="&#x102;" horiz-adv-x="721" 
d="M156 0h-160l307 700h115l307 -700h-162l-57 130h-293zM449 261l-90 209l-92 -209h182zM159 863l63.999 77c39.333 -40 87 -60 143 -60c56.667 0 103.334 20 140.001 60l55 -78c-19.333 -32 -47.166 -58.667 -83.499 -80s-73.5 -32 -111.5 -32
c-38.667 0 -77.834 10.667 -117.501 32s-69.5 48.333 -89.5 81z" />
    <glyph glyph-name="uni0103" unicode="&#x103;" horiz-adv-x="532" 
d="M117 346l-68.9971 104.999c25.333 27.333 59.166 47.5 101.499 60.5s84.833 19.5 127.5 19.5c67.333 0 119.666 -19 156.999 -57s56 -91 56 -159v-315h-145v47c-14.667 -16.667 -35.5 -29.667 -62.5 -39s-52.833 -14 -77.5 -14c-54.667 0 -100 15 -136 45
s-54 71.667 -54 125c0 40.667 12.667 74.334 38 101.001s54.833 45 88.5 55s70.167 15 109.5 15s70.666 -4.33301 93.999 -13c1.33301 25.333 -5.33398 44 -20.001 56c-15.333 12 -36.666 18 -63.999 18c-48.667 0 -96.667 -16.667 -144 -50zM235.003 118.999
c22 0 43.499 5.33301 64.499 16s36.167 25 45.5 43v24c-23.333 8.66699 -49.666 13 -78.999 13c-22.667 0 -42 -2 -58 -6c-28.667 -9.33301 -43 -24.333 -43 -45c0 -16 7.16699 -27.5 21.5 -34.5s30.5 -10.5 48.5 -10.5zM92.002 706.999l66 75
c30.667 -34.667 65.667 -52 105 -52c44 0 80.667 16.667 110 50l51 -72c-44 -65.333 -99.667 -98 -167 -98c-22.667 0 -44.667 4.33301 -66 13c-41.333 14 -74.333 42 -99 84z" />
    <glyph glyph-name="uni0104" unicode="&#x104;" horiz-adv-x="721" 
d="M680 -70l45 -89.999c-10.667 -13.333 -28 -23.333 -52 -30s-46.667 -10 -68 -10c-22.667 0 -44.167 2.5 -64.5 7.5s-38.833 15 -55.5 30s-25 34.167 -25 57.5c0 12.667 3.33301 25.667 10 39c12.667 29.333 43.334 51.666 92.001 66.999l-56 129h-293l-57 -130h-160
l307 700h115l307 -700h-25c-18 -0.666992 -37.5 -6 -58.5 -16s-31.5 -22.667 -31.5 -38c0 -8 3 -14.667 9 -20c6 -4 13 -6 21 -6c13.333 0 26.666 3.33301 39.999 10zM449 261.001l-90 209l-92 -209h182z" />
    <glyph glyph-name="uni0105" unicode="&#x105;" horiz-adv-x="535" 
d="M459 -70l45.0039 -90.001c-10.667 -13.333 -28 -23.333 -52 -30s-46.667 -10 -68 -10c-22.667 0 -44.167 2.5 -64.5 7.5s-38.833 15 -55.5 30s-25 34.167 -25 57.5c0 26.667 10.5 49.167 31.5 67.5s45.833 31.833 74.5 40.5v44c-14.667 -16.667 -35.5 -29.667 -62.5 -39
s-52.833 -14 -77.5 -14c-54.667 0 -100 15 -136 45s-54 71.667 -54 125c0 40.667 12.667 74.334 38 101.001s54.833 45 88.5 55s70.167 15 109.5 15s70.666 -4.33301 93.999 -13c1.33301 25.333 -5.33398 44 -20.001 56c-15.333 12 -36.666 18 -63.999 18
c-48.667 0 -96.667 -16.667 -144 -50l-69 105c25.333 27.333 59.166 47.5 101.499 60.5s84.833 19.5 127.5 19.5c67.333 0 119.666 -19 156.999 -57s56 -91 56 -159v-315h-11c-18 -0.666992 -37.5 -6 -58.5 -16s-31.5 -22.667 -31.5 -38c0 -8 3 -14.667 9 -20
c6 -4 13 -6 21 -6c13.333 0 26.666 3.33301 39.999 10zM235.004 118.999c22 0 43.499 5.33301 64.499 16s36.167 25 45.5 43v24c-23.333 8.66699 -49.666 13 -78.999 13c-22.667 0 -42 -2 -58 -6c-28.667 -9.33301 -43 -24.333 -43 -45c0 -16 7.16699 -27.5 21.5 -34.5
s30.5 -10.5 48.5 -10.5z" />
    <glyph glyph-name="uni0106" unicode="&#x106;" horiz-adv-x="696" 
d="M594 231l92 -99c-30 -46 -72.5 -81.5 -127.5 -106.5s-111.833 -37.5 -170.5 -37.5c-108.667 0 -195.5 33.667 -260.5 101s-97.5 154.333 -97.5 261c0 104 34.667 190.333 104 259s155.333 103 258 103c56 0 110.5 -11.333 163.5 -34s92.833 -55.667 119.5 -99l-105 -96
c-19.333 24 -44.166 43.167 -74.499 57.5s-61.166 21.5 -92.499 21.5c-63.333 0 -114.5 -19.5 -153.5 -58.5s-58.5 -90.167 -58.5 -153.5c0 -61.333 19.667 -112 59 -152s89.666 -60 150.999 -60c79.333 0 143.666 31 192.999 93zM518 974l69 -128l-240 -113l-57 99z" />
    <glyph glyph-name="uni0107" unicode="&#x107;" horiz-adv-x="540" 
d="M431 195l106.001 -62.999c-22.667 -44 -55 -78.333 -97 -103s-88 -37 -138 -37c-82.667 0 -150.334 24.667 -203.001 74s-79 114.333 -79 195c0 79.333 26.167 144.166 78.5 194.499s117.833 75.5 196.5 75.5c52 0 99.833 -10.667 143.5 -32s75.167 -54 94.5 -98
l-108 -70c-17.333 22.667 -35 39.167 -53 49.5s-40.667 15.5 -68 15.5c-40 0 -72.333 -12.5 -97 -37.5s-37 -57.5 -37 -97.5c0 -39.333 14.667 -71.5 44 -96.5s64 -37.5 104 -37.5c48 0 85.667 22.667 113 68zM345.001 833.001l109 -82l-132 -164l-100 70z" />
    <glyph glyph-name="uni0108" unicode="&#x108;" horiz-adv-x="696" 
d="M594 231l92 -99c-30 -46 -72.5 -81.5 -127.5 -106.5s-111.833 -37.5 -170.5 -37.5c-108.667 0 -195.5 33.667 -260.5 101s-97.5 154.333 -97.5 261c0 104 34.667 190.333 104 259s155.333 103 258 103c56 0 110.5 -11.333 163.5 -34s92.833 -55.667 119.5 -99l-105 -96
c-19.333 24 -44.166 43.167 -74.499 57.5s-61.166 21.5 -92.499 21.5c-63.333 0 -114.5 -19.5 -153.5 -58.5s-58.5 -90.167 -58.5 -153.5c0 -61.333 19.667 -112 59 -152s89.666 -60 150.999 -60c79.333 0 143.666 31 192.999 93zM371 945h4l184 -117l-58 -85l-128 66
l-128 -66l-52 83z" />
    <glyph glyph-name="uni0109" unicode="&#x109;" horiz-adv-x="540" 
d="M431 195l106.001 -62.999c-22.667 -44 -55 -78.333 -97 -103s-88 -37 -138 -37c-82.667 0 -150.334 24.667 -203.001 74s-79 114.333 -79 195c0 79.333 26.167 144.166 78.5 194.499s117.833 75.5 196.5 75.5c52 0 99.833 -10.667 143.5 -32s75.167 -54 94.5 -98
l-108 -70c-17.333 22.667 -35 39.167 -53 49.5s-40.667 15.5 -68 15.5c-40 0 -72.333 -12.5 -97 -37.5s-37 -57.5 -37 -97.5c0 -39.333 14.667 -71.5 44 -96.5s64 -37.5 104 -37.5c48 0 85.667 22.667 113 68zM296.001 796.001h4l165 -136l-70 -88l-98 81l-100 -79l-67 87z
" />
    <glyph glyph-name="uni010A" unicode="&#x10a;" horiz-adv-x="696" 
d="M594 231l92 -99c-30 -46 -72.5 -81.5 -127.5 -106.5s-111.833 -37.5 -170.5 -37.5c-108.667 0 -195.5 33.667 -260.5 101s-97.5 154.333 -97.5 261c0 104 34.667 190.333 104 259s155.333 103 258 103c56 0 110.5 -11.333 163.5 -34s92.833 -55.667 119.5 -99l-105 -96
c-19.333 24 -44.166 43.167 -74.499 57.5s-61.166 21.5 -92.499 21.5c-63.333 0 -114.5 -19.5 -153.5 -58.5s-58.5 -90.167 -58.5 -153.5c0 -61.333 19.667 -112 59 -152s89.666 -60 150.999 -60c79.333 0 143.666 31 192.999 93zM300 828
c0 21.333 8.33398 38.666 25.001 51.999s35.667 20 57 20c22 0 41 -6.66699 57 -20s24 -30.666 24 -51.999c0 -22 -7.83301 -39.833 -23.5 -53.5s-34.834 -20.5 -57.501 -20.5s-42 6.66699 -58 20s-24 31.333 -24 54z" />
    <glyph glyph-name="uni010B" unicode="&#x10b;" horiz-adv-x="540" 
d="M431 195l106.001 -62.999c-22.667 -44 -55 -78.333 -97 -103s-88 -37 -138 -37c-82.667 0 -150.334 24.667 -203.001 74s-79 114.333 -79 195c0 79.333 26.167 144.166 78.5 194.499s117.833 75.5 196.5 75.5c52 0 99.833 -10.667 143.5 -32s75.167 -54 94.5 -98
l-108 -70c-17.333 22.667 -35 39.167 -53 49.5s-40.667 15.5 -68 15.5c-40 0 -72.333 -12.5 -97 -37.5s-37 -57.5 -37 -97.5c0 -39.333 14.667 -71.5 44 -96.5s64 -37.5 104 -37.5c48 0 85.667 22.667 113 68zM216.001 658.001c0 21.333 8.33398 38.666 25.001 51.999
s35.667 20 57 20c22 0 41 -6.66699 57 -20s24 -30.666 24 -51.999c0 -22 -7.83301 -39.833 -23.5 -53.5s-34.834 -20.5 -57.501 -20.5s-42 6.66699 -58 20s-24 31.333 -24 54z" />
    <glyph glyph-name="uni010C" unicode="&#x10c;" horiz-adv-x="696" 
d="M594 231l92 -99c-30 -46 -72.5 -81.5 -127.5 -106.5s-111.833 -37.5 -170.5 -37.5c-108.667 0 -195.5 33.667 -260.5 101s-97.5 154.333 -97.5 261c0 104 34.667 190.333 104 259s155.333 103 258 103c56 0 110.5 -11.333 163.5 -34s92.833 -55.667 119.5 -99l-105 -96
c-19.333 24 -44.166 43.167 -74.499 57.5s-61.166 21.5 -92.499 21.5c-63.333 0 -114.5 -19.5 -153.5 -58.5s-58.5 -90.167 -58.5 -153.5c0 -61.333 19.667 -112 59 -152s89.666 -60 150.999 -60c79.333 0 143.666 31 192.999 93zM379 743h-4l-184 117l58 85l128 -76l128 76
l52 -83z" />
    <glyph glyph-name="uni010D" unicode="&#x10d;" horiz-adv-x="540" 
d="M431 195l106.001 -62.999c-22.667 -44 -55 -78.333 -97 -103s-88 -37 -138 -37c-82.667 0 -150.334 24.667 -203.001 74s-79 114.333 -79 195c0 79.333 26.167 144.166 78.5 194.499s117.833 75.5 196.5 75.5c52 0 99.833 -10.667 143.5 -32s75.167 -54 94.5 -98
l-108 -70c-17.333 22.667 -35 39.167 -53 49.5s-40.667 15.5 -68 15.5c-40 0 -72.333 -12.5 -97 -37.5s-37 -57.5 -37 -97.5c0 -39.333 14.667 -71.5 44 -96.5s64 -37.5 104 -37.5c48 0 85.667 22.667 113 68zM299.001 598.001h-4l-165 136l70 88l98 -81l100 79l67 -87z" />
    <glyph glyph-name="uni010E" unicode="&#x10e;" horiz-adv-x="720" 
d="M272 0l-206.999 -0.000976562v700h222c122.667 0 220.5 -27.833 293.5 -83.5s109.5 -141.5 109.5 -257.5c0 -50 -7.33301 -95.167 -22 -135.5s-34.667 -74.166 -60 -101.499s-55.833 -50.333 -91.5 -69s-73.834 -32.167 -114.501 -40.5s-84 -12.5 -130 -12.5z
M285.001 554.999h-65v-410h65c163.333 0 245 71.333 245 214c0 130.667 -81.667 196 -245 196zM309.001 742.999h-4l-184 117l58 85l128 -76l128 76l52 -83z" />
    <glyph glyph-name="uni010F" unicode="&#x10f;" horiz-adv-x="586" 
d="M541 0h-145.002v41c-11.333 -12 -26.166 -22.333 -44.499 -31s-36.166 -14 -53.499 -16c-21.333 -1.33301 -32.333 -2 -33 -2c-78 0 -138.333 25 -181 75s-64 114 -64 192c0 74.667 24 138.667 72 192s108.667 80 182 80c56 0 96.667 -8.33301 122 -25v224h145v-730z
M295.998 127c9.33301 0 20.333 2 33 6c30.667 6.66699 53 25 67 55v168c-20.667 26.667 -51 40 -91 40s-72.5 -12.5 -97.5 -37.5s-37.5 -57.5 -37.5 -97.5c0 -38.667 11.5 -70.667 34.5 -96s53.5 -38 91.5 -38zM592.998 731h154c4 -5.33301 7.66699 -15.333 11 -30
c2 -13.333 3 -26.666 3 -39.999c0 -70 -41 -131.667 -123 -185l-63 55c29.333 29.333 44 64.666 44 105.999c0 40.667 -8.66699 72 -26 94z" />
    <glyph glyph-name="uni0110" unicode="&#x110;" horiz-adv-x="786" 
d="M131 285l-110.999 -0.000976562v129h111v286h222c122.667 0 220.5 -27.833 293.5 -83.5s109.5 -141.5 109.5 -257.5c0 -50 -7.33301 -95.167 -22 -135.5s-34.667 -74.166 -60 -101.499s-55.833 -50.333 -91.5 -69s-73.834 -32.167 -114.501 -40.5s-84 -12.5 -130 -12.5
h-207v285zM351.001 554.999h-65v-141h158v-129h-158v-140h65c162.667 0 244 71.333 244 214c0 130.667 -81.333 196 -244 196z" />
    <glyph glyph-name="uni0111" unicode="&#x111;" horiz-adv-x="586" 
d="M396 550h-114.002v130h114v50h145v-50h45v-130h-45v-550h-145v41c-11.333 -12 -26.166 -22.333 -44.499 -31s-36.166 -14 -53.499 -16c-21.333 -1.33301 -32.333 -2 -33 -2c-78 0 -138.333 25 -181 75s-64 114 -64 192c0 74.667 24 138.667 72 192s108.667 80 182 80
c56 0 96.667 -8.33301 122 -25v44zM295.998 127c9.33301 0 20.333 2 33 6c30.667 6.66699 53 25 67 55v168c-20.667 26.667 -51 40 -91 40s-72.5 -12.5 -97.5 -37.5s-37.5 -57.5 -37.5 -97.5c0 -38.667 11.5 -70.667 34.5 -96s53.5 -38 91.5 -38z" />
    <glyph glyph-name="uni0112" unicode="&#x112;" horiz-adv-x="649" 
d="M609 0h-544v700h535v-145h-380v-130h355v-140h-355v-140h389v-145zM484 770h-314v120h314v-120z" />
    <glyph glyph-name="uni0113" unicode="&#x113;" horiz-adv-x="558" 
d="M438 184l86.998 -88.001c-55.333 -69.333 -130 -104 -224 -104c-83.333 0 -151 24.667 -203 74s-78 114.333 -78 195c0 82 24.833 147.5 74.5 196.5s114.834 73.5 195.501 73.5c72.667 0 132.167 -22 178.5 -66s69.5 -101.667 69.5 -173
c0 -18.667 -2.66699 -46.667 -8 -84h-358c6.66699 -27.333 22.334 -47.666 47.001 -60.999s52.667 -20 84 -20c58.667 0 103.667 19 135 57zM284.998 400.999c-55.333 0 -92 -22.667 -110 -68h213c-12 45.333 -46.333 68 -103 68zM425.998 609.999h-294v120h294v-120z" />
    <glyph glyph-name="uni0116" unicode="&#x116;" horiz-adv-x="649" 
d="M609 0h-544v700h535v-145h-380v-130h355v-140h-355v-140h389v-145zM250 828c0 21.333 8.33398 38.666 25.001 51.999s35.667 20 57 20c22 0 41 -6.66699 57 -20s24 -30.666 24 -51.999c0 -22 -7.83301 -39.833 -23.5 -53.5s-34.834 -20.5 -57.501 -20.5
s-42 6.66699 -58 20s-24 31.333 -24 54z" />
    <glyph glyph-name="uni0117" unicode="&#x117;" horiz-adv-x="558" 
d="M438 184l86.998 -88.001c-55.333 -69.333 -130 -104 -224 -104c-83.333 0 -151 24.667 -203 74s-78 114.333 -78 195c0 82 24.833 147.5 74.5 196.5s114.834 73.5 195.501 73.5c72.667 0 132.167 -22 178.5 -66s69.5 -101.667 69.5 -173
c0 -18.667 -2.66699 -46.667 -8 -84h-358c6.66699 -27.333 22.334 -47.666 47.001 -60.999s52.667 -20 84 -20c58.667 0 103.667 19 135 57zM284.998 400.999c-55.333 0 -92 -22.667 -110 -68h213c-12 45.333 -46.333 68 -103 68zM206.998 657.999
c0 21.333 8.33398 38.666 25.001 51.999s35.667 20 57 20c22 0 41 -6.66699 57 -20s24 -30.666 24 -51.999c0 -22 -7.83301 -39.833 -23.5 -53.5s-34.834 -20.5 -57.501 -20.5s-42 6.66699 -58 20s-24 31.333 -24 54z" />
    <glyph glyph-name="uni0118" unicode="&#x118;" horiz-adv-x="649" 
d="M453 0h-387.999v700h535v-145h-380v-130h355v-140h-355v-140h389v-145h-13c-18 -0.666992 -37.5 -6 -58.5 -16s-31.5 -22.667 -31.5 -38c0 -8 3 -14.667 9 -20c6 -4 13 -6 21 -6c13.333 0 26.666 3.33301 39.999 10l45 -90c-10.667 -13.333 -28 -23.333 -52 -30
s-46.667 -10 -68 -10c-22.667 0 -44.167 2.5 -64.5 7.5s-38.833 15 -55.5 30s-25 34.167 -25 57.5c0 24.667 9 45.334 27 62.001c16 17.333 39.333 31.666 70 42.999z" />
    <glyph glyph-name="uni0119" unicode="&#x119;" horiz-adv-x="558" 
d="M428 184l86.999 -88.001c-24 -30 -50.667 -53.333 -80 -70c-41.333 -38 -62 -64.667 -62 -80c0 -8 3 -14.667 9 -20c6 -4 13 -6 21 -6c13.333 0 26.666 3.33301 39.999 10l45 -90c-10.667 -13.333 -28 -23.333 -52 -30s-46.667 -10 -68 -10
c-22.667 0 -44.167 2.5 -64.5 7.5s-38.833 15 -55.5 30s-25 34.167 -25 57.5c0 38 28.333 70.333 85 97h-7c-83.333 0 -151 24.667 -203 74s-78 114.333 -78 195c0 82 24.833 147.5 74.5 196.5s114.834 73.5 195.501 73.5c72.667 0 132.167 -22 178.5 -66
s69.5 -101.667 69.5 -173c0 -18.667 -2.66699 -46.667 -8 -84h-358c6.66699 -27.333 22.334 -47.666 47.001 -60.999s52.667 -20 84 -20c53.333 0 95 19 125 57zM284.999 400.999c-55.333 0 -92 -22.667 -110 -68h213c-12 45.333 -46.333 68 -103 68z" />
    <glyph glyph-name="uni011A" unicode="&#x11a;" horiz-adv-x="649" 
d="M609 0h-544v700h535v-145h-380v-130h355v-140h-355v-140h389v-145zM339 743h-4l-184 117l58 85l128 -76l128 76l52 -83z" />
    <glyph glyph-name="uni011B" unicode="&#x11b;" horiz-adv-x="558" 
d="M438 184l86.998 -88.001c-55.333 -69.333 -130 -104 -224 -104c-83.333 0 -151 24.667 -203 74s-78 114.333 -78 195c0 82 24.833 147.5 74.5 196.5s114.834 73.5 195.501 73.5c72.667 0 132.167 -22 178.5 -66s69.5 -101.667 69.5 -173
c0 -18.667 -2.66699 -46.667 -8 -84h-358c6.66699 -27.333 22.334 -47.666 47.001 -60.999s52.667 -20 84 -20c58.667 0 103.667 19 135 57zM284.998 400.999c-55.333 0 -92 -22.667 -110 -68h213c-12 45.333 -46.333 68 -103 68zM280.998 597.999h-4l-165 136l70 88l98 -81
l100 79l67 -87z" />
    <glyph glyph-name="uni011C" unicode="&#x11c;" horiz-adv-x="731" 
d="M542 252l-177 -0.000976562v140h326v-283c-35.333 -38.667 -77.833 -68.5 -127.5 -89.5s-101.167 -31.5 -154.5 -31.5c-110 0 -200.667 33.5 -272 100.5s-107 154.167 -107 261.5c0 104 34.667 190.333 104 259s155.333 103 258 103c54.667 0 109 -10.667 163 -32
s94 -52.666 120 -93.999l-107 -96c-41.333 48 -98 72 -170 72c-64.667 0 -115.334 -19.167 -152.001 -57.5s-55 -89.833 -55 -154.5c0 -66 20.333 -117.833 61 -155.5s93.334 -56.5 158.001 -56.5c49.333 0 93.333 13.333 132 40v74zM371 944.999h4l184 -117l-58 -85
l-128 66l-128 -66l-52 83z" />
    <glyph glyph-name="uni011D" unicode="&#x11d;" horiz-adv-x="579" 
d="M389 520h145.001v-475c0 -82.667 -21.167 -145.667 -63.5 -189s-103.5 -65 -183.5 -65c-56 0 -105.667 11.667 -149 35s-74.333 59.333 -93 108l127 53c21.333 -40.667 55 -61 101 -61c77.333 0 116 30 116 90v23c-22 -31.333 -61 -47 -117 -47c-80 0 -142 25 -186 75
s-66 114.667 -66 194c0 75.333 23.667 138.5 71 189.5s107.666 76.5 180.999 76.5c48.667 0 87.667 -9.33301 117 -28v21zM297.001 127c20 0 38.668 5.16797 56.001 15.501s29.333 24.5 36 42.5v173c-18.667 22.667 -49.667 34 -93 34
c-38.667 0 -69.334 -12.333 -92.001 -37s-34 -56.667 -34 -96c0 -20.667 3 -39.334 9 -56.001c7.33301 -25.333 21.833 -44.333 43.5 -57s46.5 -19 74.5 -19zM296.002 796.001h4l165 -136l-70 -88l-98 81l-100 -79l-67 87z" />
    <glyph glyph-name="uni011E" unicode="&#x11e;" horiz-adv-x="731" 
d="M542 252l-177 -0.000976562v140h326v-283c-35.333 -38.667 -77.833 -68.5 -127.5 -89.5s-101.167 -31.5 -154.5 -31.5c-110 0 -200.667 33.5 -272 100.5s-107 154.167 -107 261.5c0 104 34.667 190.333 104 259s155.333 103 258 103c54.667 0 109 -10.667 163 -32
s94 -52.666 120 -93.999l-107 -96c-41.333 48 -98 72 -170 72c-64.667 0 -115.334 -19.167 -152.001 -57.5s-55 -89.833 -55 -154.5c0 -66 20.333 -117.833 61 -155.5s93.334 -56.5 158.001 -56.5c49.333 0 93.333 13.333 132 40v74zM193 862.999l63.999 77
c39.333 -40 87 -60 143 -60c56.667 0 103.334 20 140.001 60l55 -78c-19.333 -32 -47.166 -58.667 -83.499 -80s-73.5 -32 -111.5 -32c-38.667 0 -77.834 10.667 -117.501 32s-69.5 48.333 -89.5 81z" />
    <glyph glyph-name="uni011F" unicode="&#x11f;" horiz-adv-x="579" 
d="M389 520h145.001v-475c0 -82.667 -21.167 -145.667 -63.5 -189s-103.5 -65 -183.5 -65c-56 0 -105.667 11.667 -149 35s-74.333 59.333 -93 108l127 53c21.333 -40.667 55 -61 101 -61c77.333 0 116 30 116 90v23c-22 -31.333 -61 -47 -117 -47c-80 0 -142 25 -186 75
s-66 114.667 -66 194c0 75.333 23.667 138.5 71 189.5s107.666 76.5 180.999 76.5c48.667 0 87.667 -9.33301 117 -28v21zM297.001 127c20 0 38.668 5.16797 56.001 15.501s29.333 24.5 36 42.5v173c-18.667 22.667 -49.667 34 -93 34
c-38.667 0 -69.334 -12.333 -92.001 -37s-34 -56.667 -34 -96c0 -20.667 3 -39.334 9 -56.001c7.33301 -25.333 21.833 -44.333 43.5 -57s46.5 -19 74.5 -19zM121.002 707.001l66 75c30.667 -34.667 65.667 -52 105 -52c44 0 80.667 16.667 110 50l51 -72
c-44 -65.333 -99.667 -98 -167 -98c-22.667 0 -44.667 4.33301 -66 13c-41.333 14 -74.333 42 -99 84z" />
    <glyph glyph-name="uni0120" unicode="&#x120;" horiz-adv-x="731" 
d="M542 252l-177 -0.000976562v140h326v-283c-35.333 -38.667 -77.833 -68.5 -127.5 -89.5s-101.167 -31.5 -154.5 -31.5c-110 0 -200.667 33.5 -272 100.5s-107 154.167 -107 261.5c0 104 34.667 190.333 104 259s155.333 103 258 103c54.667 0 109 -10.667 163 -32
s94 -52.666 120 -93.999l-107 -96c-41.333 48 -98 72 -170 72c-64.667 0 -115.334 -19.167 -152.001 -57.5s-55 -89.833 -55 -154.5c0 -66 20.333 -117.833 61 -155.5s93.334 -56.5 158.001 -56.5c49.333 0 93.333 13.333 132 40v74zM300 827.999
c0 21.333 8.33398 38.666 25.001 51.999s35.667 20 57 20c22 0 41 -6.66699 57 -20s24 -30.666 24 -51.999c0 -22 -7.83301 -39.833 -23.5 -53.5s-34.834 -20.5 -57.501 -20.5s-42 6.66699 -58 20s-24 31.333 -24 54z" />
    <glyph glyph-name="uni0121" unicode="&#x121;" horiz-adv-x="579" 
d="M389 520h145.001v-475c0 -82.667 -21.167 -145.667 -63.5 -189s-103.5 -65 -183.5 -65c-56 0 -105.667 11.667 -149 35s-74.333 59.333 -93 108l127 53c21.333 -40.667 55 -61 101 -61c77.333 0 116 30 116 90v23c-22 -31.333 -61 -47 -117 -47c-80 0 -142 25 -186 75
s-66 114.667 -66 194c0 75.333 23.667 138.5 71 189.5s107.666 76.5 180.999 76.5c48.667 0 87.667 -9.33301 117 -28v21zM297.001 127c20 0 38.668 5.16797 56.001 15.501s29.333 24.5 36 42.5v173c-18.667 22.667 -49.667 34 -93 34
c-38.667 0 -69.334 -12.333 -92.001 -37s-34 -56.667 -34 -96c0 -20.667 3 -39.334 9 -56.001c7.33301 -25.333 21.833 -44.333 43.5 -57s46.5 -19 74.5 -19zM215.002 658.001c0 21.333 8.33398 38.666 25.001 51.999s35.667 20 57 20c22 0 41 -6.66699 57 -20
s24 -30.666 24 -51.999c0 -22 -7.83301 -39.833 -23.5 -53.5s-34.834 -20.5 -57.501 -20.5s-42 6.66699 -58 20s-24 31.333 -24 54z" />
    <glyph glyph-name="uni0122" unicode="&#x122;" horiz-adv-x="731" 
d="M542 252l-177 -0.000976562v140h326v-283c-35.333 -38.667 -77.833 -68.5 -127.5 -89.5s-101.167 -31.5 -154.5 -31.5c-110 0 -200.667 33.5 -272 100.5s-107 154.167 -107 261.5c0 104 34.667 190.333 104 259s155.333 103 258 103c54.667 0 109 -10.667 163 -32
s94 -52.666 120 -93.999l-107 -96c-41.333 48 -98 72 -170 72c-64.667 0 -115.334 -19.167 -152.001 -57.5s-55 -89.833 -55 -154.5c0 -66 20.333 -117.833 61 -155.5s93.334 -56.5 158.001 -56.5c49.333 0 93.333 13.333 132 40v74zM317 -109.001l121 77.9971
c34.667 -23.333 52 -54.666 52 -93.999c0 -35.333 -9.5 -68.166 -28.5 -98.499s-44.167 -54.5 -75.5 -72.5l-69 50c21.333 24.667 32 49.667 32 75c0 16.667 -10.667 37.334 -32 62.001z" />
    <glyph glyph-name="uni0123" unicode="&#x123;" horiz-adv-x="579" 
d="M395 632l-121 -77.998c-34.667 23.333 -52 54.666 -52 93.999c0 34 9.66699 66.5 29 97.5s44.333 55.5 75 73.5l69 -50c-21.333 -24.667 -32 -49.667 -32 -75c0 -16.667 10.667 -37.334 32 -62.001zM389 520.002h145.001v-475c0 -82.667 -21.167 -145.667 -63.5 -189
s-103.5 -65 -183.5 -65c-56 0 -105.667 11.667 -149 35s-74.333 59.333 -93 108l127 53c21.333 -40.667 55 -61 101 -61c77.333 0 116 30 116 90v23c-22 -31.333 -61 -47 -117 -47c-80 0 -142 25 -186 75s-66 114.667 -66 194c0 75.333 23.667 138.5 71 189.5
s107.666 76.5 180.999 76.5c48.667 0 87.667 -9.33301 117 -28v21zM297.001 127.002c20 0 38.668 5.16797 56.001 15.501s29.333 24.5 36 42.5v173c-18.667 22.667 -49.667 34 -93 34c-38.667 0 -69.334 -12.333 -92.001 -37s-34 -56.667 -34 -96
c0 -20.667 3 -39.334 9 -56.001c7.33301 -25.333 21.833 -44.333 43.5 -57s46.5 -19 74.5 -19z" />
    <glyph glyph-name="uni0124" unicode="&#x124;" horiz-adv-x="751" 
d="M686 0h-155v280h-311v-280h-155v700h155v-275h311v275h155v-700zM370 945h4l184 -117l-58 -85l-128 66l-128 -66l-52 83z" />
    <glyph glyph-name="uni0125" unicode="&#x125;" horiz-adv-x="574" 
d="M190 0h-145.001v730h145v-243c31.333 28.667 77.333 43 138 43c74 0 126.833 -20.667 158.5 -62s47.5 -100.333 47.5 -177v-291h-145v284c0 38 -7.16699 66 -21.5 84s-40.166 27 -77.499 27c-20 0 -39 -5.83301 -57 -17.5s-32.333 -26.5 -43 -44.5v-333zM120.999 945h4
l184 -117l-58 -85l-128 66l-128 -66l-52 83z" />
    <glyph glyph-name="uni0126" unicode="&#x126;" horiz-adv-x="751" 
d="M65 502h-65v120h65v78h155v-78h311v78h155v-78h65v-120h-65v-502h-155v280h-311v-280h-155v502zM220 502v-77h311v77h-311z" />
    <glyph glyph-name="uni0127" unicode="&#x127;" horiz-adv-x="574" 
d="M45 550h-45.001v130h45v50h145v-50h114v-130h-114v-63c30.667 28.667 71 43 121 43c148.667 0 223 -79.667 223 -239v-291h-145v284c0 38 -7.16699 66 -21.5 84s-40.166 27 -77.499 27c-20 0 -39 -5.83301 -57 -17.5s-32.333 -26.5 -43 -44.5v-333h-145v550z" />
    <glyph glyph-name="uni012A" unicode="&#x12a;" horiz-adv-x="295" 
d="M225 0h-155v700h155v-700zM305 770h-314v120h314v-120z" />
    <glyph glyph-name="uni012B" unicode="&#x12b;" horiz-adv-x="263" 
d="M204 0h-145v520h145v-520zM279 610h-294v120h294v-120z" />
    <glyph glyph-name="uni012E" unicode="&#x12e;" horiz-adv-x="295" 
d="M71 0l-1 0.000976562v700h155v-700h-2c-19.333 0 -40.666 -4.83301 -63.999 -14.5s-35 -22.834 -35 -39.501c0 -8 3 -14.667 9 -20c6 -4 13 -6 21 -6c13.333 0 26.666 3.33301 39.999 10l45 -90c-10.667 -13.333 -28 -23.333 -52 -30s-46.667 -10 -68 -10
c-22.667 0 -44.167 2.5 -64.5 7.5s-38.833 15 -55.5 30s-25 34.167 -25 57.5c0 24.667 9 45.334 27 62.001c16 17.333 39.333 31.666 70 42.999z" />
    <glyph glyph-name="uni012F" unicode="&#x12f;" horiz-adv-x="263" 
d="M172 -70l45 -89.999c-10.667 -13.333 -28 -23.333 -52 -30s-46.667 -10 -68 -10c-22.667 0 -44.167 2.5 -64.5 7.5s-38.833 15 -55.5 30s-25 34.167 -25 57.5c0 26.667 10.5 49.167 31.5 67.5s46.167 31.833 75.5 40.5v517h145v-520h-3
c-19.333 0 -40.666 -4.83301 -63.999 -14.5s-35 -22.834 -35 -39.501c0 -8 3 -14.667 9 -20c6 -4 13 -6 21 -6c13.333 0 26.666 3.33301 39.999 10zM50 658.001c0 21.333 8.33398 38.666 25.001 51.999s35.667 20 57 20c22 0 41 -6.66699 57 -20s24 -30.666 24 -51.999
c0 -22 -7.83301 -39.833 -23.5 -53.5s-34.834 -20.5 -57.501 -20.5s-42 6.66699 -58 20s-24 31.333 -24 54z" />
    <glyph glyph-name="uni0130" unicode="&#x130;" horiz-adv-x="295" 
d="M225 0h-155v700h155v-700zM67 828c0 21.333 8.33398 38.666 25.001 51.999s35.667 20 57 20c22 0 41 -6.66699 57 -20s24 -30.666 24 -51.999c0 -22 -7.83301 -39.833 -23.5 -53.5s-34.834 -20.5 -57.501 -20.5s-42 6.66699 -58 20s-24 31.333 -24 54z" />
    <glyph glyph-name="uni0131" unicode="&#x131;" horiz-adv-x="263" 
d="M204 0h-145v520h145v-520z" />
    <glyph glyph-name="uni0134" unicode="&#x134;" horiz-adv-x="486" 
d="M271 700l155 -0.000976562v-481c0 -69.333 -18.167 -125.166 -54.5 -167.499s-88.833 -63.5 -157.5 -63.5c-50 0 -94.833 11.5 -134.5 34.5s-69.5 56.167 -89.5 99.5l113 87c24.667 -50.667 57 -76 97 -76c28.667 0 47.667 10.833 57 32.5s14 49.5 14 83.5v451z
M334 944.999h4l184 -117l-58 -85l-128 66l-128 -66l-52 83z" />
    <glyph glyph-name="uni0135" unicode="&#x135;" horiz-adv-x="263" 
d="M61 520h144.999v-518c0 -64.667 -14.833 -116 -44.5 -154s-75.834 -57 -138.501 -57c-91.333 0 -153.666 40 -186.999 120l127 49c10.667 -22.667 26.334 -34 47.001 -34c34 0 51 26.333 51 79v515zM129.999 796h4l165 -136l-70 -88l-98 81l-100 -79l-67 87z" />
    <glyph glyph-name="uni0136" unicode="&#x136;" horiz-adv-x="701" 
d="M220 0h-155v700h155v-273l269 273h202l-304 -310l324 -390h-204l-237 286l-50 -51v-235zM237 -109l121 77.9971c34.667 -23.333 52 -54.666 52 -93.999c0 -35.333 -9.5 -68.166 -28.5 -98.499s-44.167 -54.5 -75.5 -72.5l-69 50c21.333 24.667 32 49.667 32 75
c0 16.667 -10.667 37.334 -32 62.001z" />
    <glyph glyph-name="uni0137" unicode="&#x137;" horiz-adv-x="532" 
d="M190 0h-145v730h145v-386l164 176h186l-223 -227l230 -293h-184l-155 196l-18 -12v-184zM160 -109l121 77.9971c34.667 -23.333 52 -54.666 52 -93.999c0 -35.333 -9.5 -68.166 -28.5 -98.499s-44.167 -54.5 -75.5 -72.5l-69 50c21.333 24.667 32 49.667 32 75
c0 16.667 -10.667 37.334 -32 62.001z" />
    <glyph glyph-name="uni0139" unicode="&#x139;" horiz-adv-x="608" 
d="M598 0h-533v700h155v-555h378v-145zM438 974l69 -128l-240 -113l-57 99z" />
    <glyph glyph-name="uni013A" unicode="&#x13a;" horiz-adv-x="235" 
d="M190 0h-145v730h145v-730zM273 994l69 -128l-240 -113l-57 99z" />
    <glyph glyph-name="uni013B" unicode="&#x13b;" horiz-adv-x="608" 
d="M598 0h-533v700h155v-555h378v-145zM247 -109l121 77.9971c34.667 -23.333 52 -54.666 52 -93.999c0 -35.333 -9.5 -68.166 -28.5 -98.499s-44.167 -54.5 -75.5 -72.5l-69 50c21.333 24.667 32 49.667 32 75c0 16.667 -10.667 37.334 -32 62.001z" />
    <glyph glyph-name="uni013C" unicode="&#x13c;" horiz-adv-x="235" 
d="M190 0h-145v730h145v-730zM31 -109l121 77.9971c34.667 -23.333 52 -54.666 52 -93.999c0 -35.333 -9.5 -68.166 -28.5 -98.499s-44.167 -54.5 -75.5 -72.5l-69 50c21.333 24.667 32 49.667 32 75c0 16.667 -10.667 37.334 -32 62.001z" />
    <glyph glyph-name="uni013D" unicode="&#x13d;" horiz-adv-x="608" 
d="M598 0h-533v700h155v-555h378v-145zM368 701l154 0.000976562c4 -5.33301 7.66699 -15.333 11 -30c2 -12.667 3 -26 3 -40c0 -70 -41 -131.667 -123 -185l-63 55c29.333 29.333 44 64.666 44 105.999c0 40.667 -8.66699 72 -26 94z" />
    <glyph glyph-name="uni013E" unicode="&#x13e;" horiz-adv-x="282" 
d="M190 0h-145v730h145v-730zM233 731l154 0.000976562c4 -5.33301 7.66699 -15.333 11 -30c2 -12.667 3 -26 3 -40c0 -70 -41 -131.667 -123 -185l-63 55c29.333 29.333 44 64.666 44 105.999c0 40.667 -8.66699 72 -26 94z" />
    <glyph glyph-name="uni013F" unicode="&#x13f;" horiz-adv-x="608" 
d="M598 0h-533v700h155v-555h378v-145zM350 398c0 21.333 8.83301 39 26.5 53s37.5 21 59.5 21c20.667 0 39.667 -7.33301 57 -22s26 -32 26 -52c0 -22 -8.33301 -40.333 -25 -55s-36 -22 -58 -22c-22.667 0 -42.667 7.33301 -60 22s-26 33 -26 55z" />
    <glyph glyph-name="uni0140" unicode="&#x140;" horiz-adv-x="352" 
d="M190 0h-145v730h145v-730zM210 345c0 21.333 8.83301 39 26.5 53s37.5 21 59.5 21c20.667 0 39.667 -7.33301 57 -22s26 -32 26 -52c0 -22 -8.33301 -40.333 -25 -55s-36 -22 -58 -22c-22.667 0 -42.667 7.33301 -60 22s-26 33 -26 55z" />
    <glyph glyph-name="uni0141" unicode="&#x141;" 
d="M79 166l-79 -57v156l79 57v378h155v-266l182 131v-156l-182 -131v-133h378v-145h-533v166z" />
    <glyph glyph-name="uni0142" unicode="&#x142;" horiz-adv-x="336" 
d="M93 209l-93 -67v156l93 67v365h145v-260l98 71v-156l-98 -71v-314h-145v209z" />
    <glyph glyph-name="uni0143" unicode="&#x143;" horiz-adv-x="740" 
d="M675 700v-700h-120l-339 415v-415h-151v700h119l340 -416v416h151zM508 974l69 -128l-240 -113l-57 99z" />
    <glyph glyph-name="uni0144" unicode="&#x144;" horiz-adv-x="577" 
d="M190 0h-145v520h145v-37c27.333 31.333 74.666 47 141.999 47c136.667 0 205 -79.333 205 -238v-292h-145v283c0 38.667 -7.66699 67 -23 85s-41.666 27 -78.999 27c-48.667 0 -82 -23 -100 -69v-326zM318 833l109 -82l-132 -164l-100 70z" />
    <glyph glyph-name="uni0145" unicode="&#x145;" horiz-adv-x="740" 
d="M675 700v-700h-120l-339 415v-415h-151v700h119l340 -416v416h151zM297 -109l121 77.9971c34.667 -23.333 52 -54.666 52 -93.999c0 -35.333 -9.5 -68.166 -28.5 -98.499s-44.167 -54.5 -75.5 -72.5l-69 50c21.333 24.667 32 49.667 32 75
c0 16.667 -10.667 37.334 -32 62.001z" />
    <glyph glyph-name="uni0146" unicode="&#x146;" horiz-adv-x="577" 
d="M190 0h-145v520h145v-37c27.333 31.333 74.666 47 141.999 47c136.667 0 205 -79.333 205 -238v-292h-145v283c0 38.667 -7.66699 67 -23 85s-41.666 27 -78.999 27c-48.667 0 -82 -23 -100 -69v-326zM195 -109l121 77.9971c34.667 -23.333 52 -54.666 52 -93.999
c0 -35.333 -9.5 -68.166 -28.5 -98.499s-44.167 -54.5 -75.5 -72.5l-69 50c21.333 24.667 32 49.667 32 75c0 16.667 -10.667 37.334 -32 62.001z" />
    <glyph glyph-name="uni0147" unicode="&#x147;" horiz-adv-x="740" 
d="M675 700v-700h-120l-339 415v-415h-151v700h119l340 -416v416h151zM375 743h-4l-184 117l58 85l128 -76l128 76l52 -83z" />
    <glyph glyph-name="uni0148" unicode="&#x148;" horiz-adv-x="577" 
d="M190 0h-145v520h145v-37c27.333 31.333 74.666 47 141.999 47c136.667 0 205 -79.333 205 -238v-292h-145v283c0 38.667 -7.66699 67 -23 85s-41.666 27 -78.999 27c-48.667 0 -82 -23 -100 -69v-326zM293 598h-4l-165 136l70 88l98 -81l100 79l67 -87z" />
    <glyph glyph-name="uni014C" unicode="&#x14c;" horiz-adv-x="781" 
d="M30 350c0 101.333 35.168 187 105.501 257s155.5 105 255.5 105c70.667 0 136.167 -19 196.5 -57s104.166 -89 131.499 -153c21.333 -52 32 -102.667 32 -152c0 -100.667 -35 -186.167 -105 -256.5s-155 -105.5 -255 -105.5c-101.333 0 -186.833 35.167 -256.5 105.5
s-104.5 155.833 -104.5 256.5zM191.001 350c0 -58.667 19 -108.667 57 -150s85.667 -62 143 -62c60 0 108.167 20.333 144.5 61s54.5 91 54.5 151c0 58 -19 107.833 -57 149.5s-85.333 62.5 -142 62.5c-58.667 0 -106.667 -20.667 -144 -62s-56 -91.333 -56 -150z
M547.001 770h-314v120h314v-120z" />
    <glyph glyph-name="uni014D" unicode="&#x14d;" horiz-adv-x="604" 
d="M20 261c0 80 27 144.999 81 194.999s120.667 75 200 75c80.667 0 148 -25.167 202 -75.5s81 -115.166 81 -194.499c0 -80 -27.333 -144.833 -82 -194.5s-121.667 -74.5 -201 -74.5s-146 25.333 -200 76s-81 115 -81 193zM170 260.999c0 -38 12.5 -69.833 37.5 -95.5
s56.167 -38.5 93.5 -38.5c40 0 72.167 12.333 96.5 37s36.5 57 36.5 97c0 39.333 -12.333 71.666 -37 96.999s-56.667 38 -96 38s-71 -12.667 -95 -38s-36 -57.666 -36 -96.999zM449 609.999h-294v120h294v-120z" />
    <glyph glyph-name="uni0150" unicode="&#x150;" horiz-adv-x="781" 
d="M30 350c0 101.333 35.168 187 105.501 257s155.5 105 255.5 105c70.667 0 136.167 -19 196.5 -57s104.166 -89 131.499 -153c21.333 -52 32 -102.667 32 -152c0 -100.667 -35 -186.167 -105 -256.5s-155 -105.5 -255 -105.5c-101.333 0 -186.833 35.167 -256.5 105.5
s-104.5 155.833 -104.5 256.5zM191.001 350c0 -58.667 19 -108.667 57 -150s85.667 -62 143 -62c60 0 108.167 20.333 144.5 61s54.5 91 54.5 151c0 58 -19 107.833 -57 149.5s-85.333 62.5 -142 62.5c-58.667 0 -106.667 -20.667 -144 -62s-56 -91.333 -56 -150z
M574.001 935l106 -94l-204 -113l-61 63zM330.001 935l130 -65l-167 -142l-64 58z" />
    <glyph glyph-name="uni0151" unicode="&#x151;" horiz-adv-x="604" 
d="M20 261c0 80 27 144.999 81 194.999s120.667 75 200 75c80.667 0 148 -25.167 202 -75.5s81 -115.166 81 -194.499c0 -80 -27.333 -144.833 -82 -194.5s-121.667 -74.5 -201 -74.5s-146 25.333 -200 76s-81 115 -81 193zM170 260.999c0 -38 12.5 -69.833 37.5 -95.5
s56.167 -38.5 93.5 -38.5c40 0 72.167 12.333 96.5 37s36.5 57 36.5 97c0 39.333 -12.333 71.666 -37 96.999s-56.667 38 -96 38s-71 -12.667 -95 -38s-36 -57.666 -36 -96.999zM448 812.999l93 -72l-142 -154l-76 57zM272 822.999l93 -66l-125 -170l-77 58z" />
    <glyph glyph-name="uni0152" unicode="&#x152;" horiz-adv-x="1130" 
d="M1090 0h-544v33c-47.333 -27.333 -99 -41 -155 -41c-102 0 -187.667 34.5 -257 103.5s-104 153.833 -104 254.5s35.167 185.5 105.5 254.5s155.5 103.5 255.5 103.5c58 0 109.667 -13 155 -39v31h535v-145h-380v-130h355v-140h-355v-140h389v-145zM391 142
c64.667 0 116.333 23.333 155 70v272c-40 49.333 -91.667 74 -155 74c-58.667 0 -106.667 -20 -144 -60s-56 -89.333 -56 -148s19 -108 57 -148s85.667 -60 143 -60z" />
    <glyph glyph-name="uni0153" unicode="&#x153;" horiz-adv-x="932" 
d="M802 184l86.998 -88.001c-55.333 -69.333 -126.666 -104 -213.999 -104c-76.667 0 -139.667 20 -189 60c-50 -40 -111.667 -60 -185 -60c-79.333 0 -146 25.333 -200 76s-81 115 -81 193c0 80 27 145 81 195s120.667 75 200 75c72.667 0 133.667 -19.333 183 -58
c48.667 38.667 108.667 58 180 58c72.667 0 132.167 -22 178.5 -66s69.5 -101.667 69.5 -173c0 -18.667 -2.66699 -46.667 -8 -84h-358c6.66699 -27.333 22.334 -47.666 47.001 -60.999s52.667 -20 84 -20c53.333 0 95 19 125 57zM311.998 126.999
c40.667 0 72.999 11.998 96.999 35.998c-10 28.667 -15 61.334 -15 98.001c0 36 4.33301 67.333 13 94c-25.333 27.333 -60.666 41 -105.999 41c-39.333 0 -71 -12.667 -95 -38s-36 -57.666 -36 -96.999c0 -40.667 13.5 -73.167 40.5 -97.5s60.833 -36.5 101.5 -36.5z
M658.997 400.997c-55.333 0 -92 -22.667 -110 -68h213c-12 45.333 -46.333 68 -103 68z" />
    <glyph glyph-name="uni0154" unicode="&#x154;" horiz-adv-x="689" 
d="M220 239v-239h-155v700h283c86 0 154.667 -18 206 -54s77 -94 77 -174c0 -44 -12.667 -85.5 -38 -124.5s-58.333 -65.833 -99 -80.5l195 -267h-187l-171 239h-111zM345 555h-125v-171h131c33.333 0 61.5 7 84.5 21s34.5 36.333 34.5 67c0 32.667 -11.5 54.667 -34.5 66
s-53.167 17 -90.5 17zM448 974l69 -128l-240 -113l-57 99z" />
    <glyph glyph-name="uni0155" unicode="&#x155;" horiz-adv-x="362" 
d="M190 0l-145.001 -0.000976562v520h145v-21c6.66699 9.33301 18.334 16.833 35.001 22.5s31.667 8.5 45 8.5c44 0 78 -15 102 -45l-74 -116c-3.33301 6.66699 -10 11.834 -20 15.501s-19 5.5 -27 5.5c-30.667 0 -51 -18 -61 -54v-336zM212.999 832.999l109 -82l-132 -164
l-100 70z" />
    <glyph glyph-name="uni0156" unicode="&#x156;" horiz-adv-x="689" 
d="M220 239v-239h-155v700h283c86 0 154.667 -18 206 -54s77 -94 77 -174c0 -44 -12.667 -85.5 -38 -124.5s-58.333 -65.833 -99 -80.5l195 -267h-187l-171 239h-111zM345 555h-125v-171h131c33.333 0 61.5 7 84.5 21s34.5 36.333 34.5 67c0 32.667 -11.5 54.667 -34.5 66
s-53.167 17 -90.5 17zM247 -109l121 77.9971c34.667 -23.333 52 -54.666 52 -93.999c0 -35.333 -9.5 -68.166 -28.5 -98.499s-44.167 -54.5 -75.5 -72.5l-69 50c21.333 24.667 32 49.667 32 75c0 16.667 -10.667 37.334 -32 62.001z" />
    <glyph glyph-name="uni0157" unicode="&#x157;" horiz-adv-x="362" 
d="M190 0l-145.001 -0.000976562v520h145v-21c6.66699 9.33301 18.334 16.833 35.001 22.5s31.667 8.5 45 8.5c44 0 78 -15 102 -45l-74 -116c-3.33301 6.66699 -10 11.834 -20 15.501s-19 5.5 -27 5.5c-30.667 0 -51 -18 -61 -54v-336zM59.999 -109.001l121 77.9971
c34.667 -23.333 52 -54.666 52 -93.999c0 -35.333 -9.5 -68.166 -28.5 -98.499s-44.167 -54.5 -75.5 -72.5l-69 50c21.333 24.667 32 49.667 32 75c0 16.667 -10.667 37.334 -32 62.001z" />
    <glyph glyph-name="uni0158" unicode="&#x158;" horiz-adv-x="689" 
d="M220 239v-239h-155v700h283c86 0 154.667 -18 206 -54s77 -94 77 -174c0 -44 -12.667 -85.5 -38 -124.5s-58.333 -65.833 -99 -80.5l195 -267h-187l-171 239h-111zM345 555h-125v-171h131c33.333 0 61.5 7 84.5 21s34.5 36.333 34.5 67c0 32.667 -11.5 54.667 -34.5 66
s-53.167 17 -90.5 17zM319 743h-4l-184 117l58 85l128 -76l128 76l52 -83z" />
    <glyph glyph-name="uni0159" unicode="&#x159;" horiz-adv-x="362" 
d="M190 0l-145.001 -0.000976562v520h145v-21c6.66699 9.33301 18.334 16.833 35.001 22.5s31.667 8.5 45 8.5c44 0 78 -15 102 -45l-74 -116c-3.33301 6.66699 -10 11.834 -20 15.501s-19 5.5 -27 5.5c-30.667 0 -51 -18 -61 -54v-336zM187.999 597.999h-4l-165 136l70 88
l98 -81l100 79l67 -87z" />
    <glyph glyph-name="uni015A" unicode="&#x15a;" horiz-adv-x="619" 
d="M429 194c0 22 -15.333 41.334 -46 58.001c-14 6.66699 -48.333 18 -103 34c-54 15.333 -93 28.666 -117 39.999c-82.667 38 -124 97 -124 177c0 43.333 15 82.833 45 118.5s66.667 60.834 110 75.501c36 12.667 74.667 19 116 19c55.333 0 107 -11 155 -33
s87.667 -54 119 -96l-104 -100c-49.333 56 -108 84 -176 84c-70 0 -105 -22 -105 -66c0 -24.667 19 -42.667 57 -54c19.333 -7.33301 51.333 -17 96 -29c27.333 -7.33301 50.666 -14.333 69.999 -21s40.333 -16.167 63 -28.5s41 -25.5 55 -39.5s25.667 -32 35 -54
s14 -46.333 14 -73c0 -68 -26.667 -122 -80 -162s-115 -60 -185 -60c-68 0 -131.667 14.5 -191 43.5s-103.666 71.5 -132.999 127.5l113 94c22 -36.667 51.5 -65.834 88.5 -87.501s76.5 -32.5 118.5 -32.5c27.333 0 52.333 4.83301 75 14.5s34 26.5 34 50.5zM474 974.001
l69 -128l-240 -113l-57 99z" />
    <glyph glyph-name="uni015B" unicode="&#x15b;" horiz-adv-x="496" 
d="M331 155c0 6.66699 -4.32812 12.3379 -12.9951 17.0049c-9.33301 5.33301 -28.333 12.333 -57 21c-28.667 8 -52.667 15 -72 21c-42.667 11.333 -78.834 30.166 -108.501 56.499s-44.5 59.5 -44.5 99.5c0 38.667 12 70.667 36 96s51.833 42.5 83.5 51.5
s66.5 13.5 104.5 13.5c41.333 0 82.166 -8.16699 122.499 -24.5s71.5 -39.5 93.5 -69.5l-99 -95c-35.333 36 -84 54 -146 54c-30 0 -45 -8.33301 -45 -25c0 -5.33301 4.33301 -10 13 -14c7.33301 -4 28 -10.667 62 -20l60.5 -17.5
c14.333 -4.33301 33.166 -11.833 56.499 -22.5s41.333 -21.667 54 -33s24 -26.333 34 -45s15 -39.667 15 -63c0 -38.667 -11.5 -70.834 -34.5 -96.501s-50.333 -43.334 -82 -53.001s-66.167 -14.5 -103.5 -14.5c-50.667 0 -99.334 10.667 -146.001 32
s-81 52.666 -103 93.999l115 78c16 -20.667 38.167 -37.334 66.5 -50.001s56.166 -19 83.499 -19c36 0 54 9.33301 54 28zM285.005 833.004l109 -82l-132 -164l-100 70z" />
    <glyph glyph-name="uni015C" unicode="&#x15c;" horiz-adv-x="619" 
d="M429 194c0 22 -15.333 41.334 -46 58.001c-14 6.66699 -48.333 18 -103 34c-54 15.333 -93 28.666 -117 39.999c-82.667 38 -124 97 -124 177c0 43.333 15 82.833 45 118.5s66.667 60.834 110 75.501c36 12.667 74.667 19 116 19c55.333 0 107 -11 155 -33
s87.667 -54 119 -96l-104 -100c-49.333 56 -108 84 -176 84c-70 0 -105 -22 -105 -66c0 -24.667 19 -42.667 57 -54c19.333 -7.33301 51.333 -17 96 -29c27.333 -7.33301 50.666 -14.333 69.999 -21s40.333 -16.167 63 -28.5s41 -25.5 55 -39.5s25.667 -32 35 -54
s14 -46.333 14 -73c0 -68 -26.667 -122 -80 -162s-115 -60 -185 -60c-68 0 -131.667 14.5 -191 43.5s-103.666 71.5 -132.999 127.5l113 94c22 -36.667 51.5 -65.834 88.5 -87.501s76.5 -32.5 118.5 -32.5c27.333 0 52.333 4.83301 75 14.5s34 26.5 34 50.5zM329 945.001h4
l184 -117l-58 -85l-128 66l-128 -66l-52 83z" />
    <glyph glyph-name="uni015D" unicode="&#x15d;" horiz-adv-x="496" 
d="M331 155c0 6.66699 -4.32812 12.3379 -12.9951 17.0049c-9.33301 5.33301 -28.333 12.333 -57 21c-28.667 8 -52.667 15 -72 21c-42.667 11.333 -78.834 30.166 -108.501 56.499s-44.5 59.5 -44.5 99.5c0 38.667 12 70.667 36 96s51.833 42.5 83.5 51.5
s66.5 13.5 104.5 13.5c41.333 0 82.166 -8.16699 122.499 -24.5s71.5 -39.5 93.5 -69.5l-99 -95c-35.333 36 -84 54 -146 54c-30 0 -45 -8.33301 -45 -25c0 -5.33301 4.33301 -10 13 -14c7.33301 -4 28 -10.667 62 -20l60.5 -17.5
c14.333 -4.33301 33.166 -11.833 56.499 -22.5s41.333 -21.667 54 -33s24 -26.333 34 -45s15 -39.667 15 -63c0 -38.667 -11.5 -70.834 -34.5 -96.501s-50.333 -43.334 -82 -53.001s-66.167 -14.5 -103.5 -14.5c-50.667 0 -99.334 10.667 -146.001 32
s-81 52.666 -103 93.999l115 78c16 -20.667 38.167 -37.334 66.5 -50.001s56.166 -19 83.499 -19c36 0 54 9.33301 54 28zM257.005 796.004h4l165 -136l-70 -88l-98 81l-100 -79l-67 87z" />
    <glyph glyph-name="uni015E" unicode="&#x15e;" horiz-adv-x="599" 
d="M140 -157l54.0029 65.0029c18.667 -18.667 45.667 -28 81 -28c8.66699 0 15.667 1 21 3c5.33301 3.33301 8 6.66602 8 9.99902c0 11.333 -15 17 -45 17h-6v86c-46.667 5.33301 -94.834 21 -144.501 47s-85.834 57.333 -108.501 94l93 112c28 -34.667 61.667 -62 101 -82
s80.666 -30 123.999 -30c23.333 0 44.333 4.33301 63 13s28 23.334 28 44.001c0 6.66699 -2 14.334 -6 23.001c-5.33301 9.33301 -15.666 18.333 -30.999 27c-17.333 10 -52.666 22.667 -105.999 38c-28.667 8 -52.834 15.333 -72.501 22s-41.5 16.167 -65.5 28.5
s-43.167 25.666 -57.5 39.999s-26.5 32.666 -36.5 54.999s-15 47.5 -15 75.5c0 44.667 14.5 83.167 43.5 115.5s63.333 55.333 103 69s81.167 20.5 124.5 20.5c55.333 0 107.333 -10 156 -30s88 -50.333 118 -91l-104 -100c-46.667 50.667 -105.334 76 -176.001 76
c-14.667 0 -29.167 -1.33301 -43.5 -4s-28.166 -8.66699 -41.499 -18s-20 -21.333 -20 -36c0 -6.66699 2.33301 -13.667 7 -21c3.33301 -8 13.333 -16.667 30 -26c13.333 -8 48.666 -20.333 105.999 -37c90.667 -26.667 153.667 -54.667 189 -84
c38.667 -34.667 58 -78.334 58 -131.001c0 -62.667 -24 -112.834 -72 -150.501s-104.333 -58.5 -169 -62.5v-19c77.333 -5.33301 116 -35.333 116 -90c0 -62.667 -46.333 -94 -139 -94c-72.667 0 -127.667 17.667 -165 53z" />
    <glyph glyph-name="uni015F" unicode="&#x15f;" horiz-adv-x="496" 
d="M116 -161l44.0029 69.0029c18.667 -18.667 45.667 -28 81 -28c8.66699 0 15.667 1 21 3c5.33301 3.33301 8 6.66602 8 9.99902c0 11.333 -15 17 -45 17h-6v84c-42 4 -82.167 17 -120.5 39s-67.166 50.333 -86.499 85l115 78c16 -20.667 38.167 -37.334 66.5 -50.001
s56.166 -19 83.499 -19c36 0 54 9.33301 54 28c0 6.66699 -4.33301 12.334 -13 17.001c-9.33301 5.33301 -28.333 12.333 -57 21c-28.667 8 -52.667 15 -72 21c-42.667 11.333 -78.834 30.166 -108.501 56.499s-44.5 59.5 -44.5 99.5c0 38.667 12 70.667 36 96
s51.833 42.5 83.5 51.5s66.5 13.5 104.5 13.5c41.333 0 82.166 -8.16699 122.499 -24.5s71.5 -39.5 93.5 -69.5l-99 -95c-35.333 36 -84 54 -146 54c-30 0 -45 -8.33301 -45 -25c0 -5.33301 4.33301 -10 13 -14c7.33301 -4 28 -10.667 62 -20l60.5 -17.5
c14.333 -4.33301 33.166 -11.833 56.499 -22.5s41.333 -21.667 54 -33s24 -26.333 34 -45s15 -39.667 15 -63c0 -50.667 -17.833 -89.167 -53.5 -115.5s-80.167 -41.833 -133.5 -46.5v-20c30.667 -2.66699 56 -11.334 76 -26.001s30 -36 30 -64
c0 -22.667 -6.83301 -40.5 -20.5 -53.5s-32.834 -23.833 -57.501 -32.5c-19.333 -5.33301 -43.666 -8 -72.999 -8c-52 0 -96.333 16.333 -133 49z" />
    <glyph glyph-name="uni0160" unicode="&#x160;" horiz-adv-x="619" 
d="M429 194c0 22 -15.333 41.334 -46 58.001c-14 6.66699 -48.333 18 -103 34c-54 15.333 -93 28.666 -117 39.999c-82.667 38 -124 97 -124 177c0 43.333 15 82.833 45 118.5s66.667 60.834 110 75.501c36 12.667 74.667 19 116 19c55.333 0 107 -11 155 -33
s87.667 -54 119 -96l-104 -100c-49.333 56 -108 84 -176 84c-70 0 -105 -22 -105 -66c0 -24.667 19 -42.667 57 -54c19.333 -7.33301 51.333 -17 96 -29c27.333 -7.33301 50.666 -14.333 69.999 -21s40.333 -16.167 63 -28.5s41 -25.5 55 -39.5s25.667 -32 35 -54
s14 -46.333 14 -73c0 -68 -26.667 -122 -80 -162s-115 -60 -185 -60c-68 0 -131.667 14.5 -191 43.5s-103.666 71.5 -132.999 127.5l113 94c22 -36.667 51.5 -65.834 88.5 -87.501s76.5 -32.5 118.5 -32.5c27.333 0 52.333 4.83301 75 14.5s34 26.5 34 50.5zM329 743.001h-4
l-184 117l58 85l128 -76l128 76l52 -83z" />
    <glyph glyph-name="uni0161" unicode="&#x161;" horiz-adv-x="496" 
d="M331 155c0 6.66699 -4.32812 12.3379 -12.9951 17.0049c-9.33301 5.33301 -28.333 12.333 -57 21c-28.667 8 -52.667 15 -72 21c-42.667 11.333 -78.834 30.166 -108.501 56.499s-44.5 59.5 -44.5 99.5c0 38.667 12 70.667 36 96s51.833 42.5 83.5 51.5
s66.5 13.5 104.5 13.5c41.333 0 82.166 -8.16699 122.499 -24.5s71.5 -39.5 93.5 -69.5l-99 -95c-35.333 36 -84 54 -146 54c-30 0 -45 -8.33301 -45 -25c0 -5.33301 4.33301 -10 13 -14c7.33301 -4 28 -10.667 62 -20l60.5 -17.5
c14.333 -4.33301 33.166 -11.833 56.499 -22.5s41.333 -21.667 54 -33s24 -26.333 34 -45s15 -39.667 15 -63c0 -38.667 -11.5 -70.834 -34.5 -96.501s-50.333 -43.334 -82 -53.001s-66.167 -14.5 -103.5 -14.5c-50.667 0 -99.334 10.667 -146.001 32
s-81 52.666 -103 93.999l115 78c16 -20.667 38.167 -37.334 66.5 -50.001s56.166 -19 83.499 -19c36 0 54 9.33301 54 28zM250.005 598.004h-4l-165 136l70 88l98 -81l100 79l67 -87z" />
    <glyph glyph-name="uni0162" unicode="&#x162;" horiz-adv-x="604" 
d="M224 555l-224 0.000976562v145h604v-145h-225v-555h-40v-26c77.333 -5.33301 116 -35.333 116 -90c0 -62.667 -46.333 -94 -139 -94c-72.667 0 -127.667 17.667 -165 53l54 65c18.667 -18.667 45.667 -28 81 -28c9.33301 0 16.333 1 21 3
c5.33301 3.33301 8 6.66602 8 9.99902c0 11.333 -15 17 -45 17h-6v90h-40v555z" />
    <glyph glyph-name="uni0163" unicode="&#x163;" horiz-adv-x="426" 
d="M111 -161l44 68.999c18.667 -18.667 45.667 -28 81 -28c9.33301 0 16.333 1 21 3c5.33301 3.33301 8 6.66602 8 9.99902c0 11.333 -15 17 -45 17h-6v88c-42.667 8.66699 -75 28.834 -97 60.501s-33 69.834 -33 114.501v212h-79v135h79v101h145v-101h159v-135h-159v-169
c0 -58 15.333 -87 46 -87c9.33301 0 19 3 29 9c9.33301 4.66699 21.333 16.334 36 35.001l88 -80c-13.333 -25.333 -32.5 -46.333 -57.5 -63s-52.167 -27.667 -81.5 -33v-23c30.667 -2.66699 56 -11.334 76 -26.001s30 -36 30 -64c0 -22.667 -6.83301 -40.5 -20.5 -53.5
s-32.834 -23.833 -57.501 -32.5c-19.333 -5.33301 -43.666 -8 -72.999 -8c-52 0 -96.333 16.333 -133 49z" />
    <glyph glyph-name="uni0164" unicode="&#x164;" horiz-adv-x="604" 
d="M224 555h-224v145h604v-145h-225v-555h-155v555zM307 743h-4l-184 117l58 85l128 -76l128 76l52 -83z" />
    <glyph glyph-name="uni0165" unicode="&#x165;" horiz-adv-x="426" 
d="M86 385l-81.002 -0.000976562v135h81v101h143v-405c0 -58 15.333 -87 46 -87c9.33301 0 19 3 29 9c9.33301 4.66699 21.333 16.334 36 35.001l88 -80c-15.333 -30 -39.166 -54 -71.499 -72s-66.166 -27 -101.499 -27c-52.667 0 -94 16.5 -124 49.5s-45 76.167 -45 129.5
v212zM287.998 700.999l154 0.000976562c4 -5.33301 7.66699 -15.333 11 -30c2 -12.667 3 -26 3 -40c0 -70 -41 -131.667 -123 -185l-63 55c29.333 29.333 44 64.666 44 105.999c0 40.667 -8.66699 72 -26 94z" />
    <glyph glyph-name="uni016A" unicode="&#x16a;" horiz-adv-x="720" 
d="M510 700h155.001v-400c0 -92.667 -26.833 -167 -80.5 -223s-125.834 -84 -216.501 -84c-94 0 -169.667 29.167 -227 87.5s-86 133.5 -86 225.5v394h155v-376c0 -54 13.333 -98.5 40 -133.5s66 -52.5 118 -52.5c94.667 0 142 60.667 142 182v380zM517.001 770h-314v120
h314v-120z" />
    <glyph glyph-name="uni016B" unicode="&#x16b;" horiz-adv-x="570" 
d="M380 523h145v-523h-145v34c-36 -28 -76.667 -42 -122 -42c-145.333 0 -218 78 -218 234v297h145v-286c0 -73.333 29.333 -110 88 -110c46 0 81.667 21.333 107 64v332zM430 610h-294v120h294v-120z" />
    <glyph glyph-name="uni016C" unicode="&#x16c;" horiz-adv-x="720" 
d="M510 700h155.001v-400c0 -92.667 -26.833 -167 -80.5 -223s-125.834 -84 -216.501 -84c-94 0 -169.667 29.167 -227 87.5s-86 133.5 -86 225.5v394h155v-376c0 -54 13.333 -98.5 40 -133.5s66 -52.5 118 -52.5c94.667 0 142 60.667 142 182v380zM159.001 863l63.999 77
c39.333 -40 87 -60 143 -60c56.667 0 103.334 20 140.001 60l55 -78c-19.333 -32 -47.166 -58.667 -83.499 -80s-73.5 -32 -111.5 -32c-38.667 0 -77.834 10.667 -117.501 32s-69.5 48.333 -89.5 81z" />
    <glyph glyph-name="uni016D" unicode="&#x16d;" horiz-adv-x="570" 
d="M380 523h145v-523h-145v34c-36 -28 -76.667 -42 -122 -42c-145.333 0 -218 78 -218 234v297h145v-286c0 -73.333 29.333 -110 88 -110c46 0 81.667 21.333 107 64v332zM117 707l66 75c30.667 -34.667 65.667 -52 105 -52c44 0 80.667 16.667 110 50l51 -72
c-44 -65.333 -99.667 -98 -167 -98c-22.667 0 -44.667 4.33301 -66 13c-41.333 14 -74.333 42 -99 84z" />
    <glyph glyph-name="uni016E" unicode="&#x16e;" horiz-adv-x="720" 
d="M510 700h155.001v-400c0 -92.667 -26.833 -167 -80.5 -223s-125.834 -84 -216.501 -84c-94 0 -169.667 29.167 -227 87.5s-86 133.5 -86 225.5v394h155v-376c0 -54 13.333 -98.5 40 -133.5s66 -52.5 118 -52.5c94.667 0 142 60.667 142 182v380zM203.001 849
c0 40.667 15 70.5 45 89.5s66.667 28.5 110 28.5c44.667 0 82.5 -9.33301 113.5 -28s46.5 -48.667 46.5 -90c0 -40.667 -15.833 -71 -47.5 -91s-69.167 -30 -112.5 -30c-42 0 -78.333 10.333 -109 31s-46 50.667 -46 90zM313.001 849
c0 -13.333 4.33203 -23.499 12.999 -30.499s20 -10.5 34 -10.5s25.5 3.5 34.5 10.5s13.5 17.167 13.5 30.5c0 25.333 -16 38 -48 38c-13.333 0 -24.666 -3 -33.999 -9c-8.66699 -6.66699 -13 -16.334 -13 -29.001z" />
    <glyph glyph-name="uni016F" unicode="&#x16f;" horiz-adv-x="570" 
d="M380 523h145v-523h-145v34c-36 -28 -76.667 -42 -122 -42c-145.333 0 -218 78 -218 234v297h145v-286c0 -73.333 29.333 -110 88 -110c46 0 81.667 21.333 107 64v332zM145 701c0 36.667 13.667 67.332 41 91.999s59.333 37 96 37c38.667 0 71.5 -12.167 98.5 -36.5
s40.5 -55.166 40.5 -92.499c0 -36.667 -13.833 -67 -41.5 -91s-60.167 -36 -97.5 -36c-36.667 0 -68.667 12.167 -96 36.5s-41 54.5 -41 90.5zM240 702.998c0 -13.333 4.00098 -24.001 12.001 -32.001s18.667 -12 32 -12c12.667 0 23 4 31 12
c7.33301 8.66699 11 19.334 11 32.001c0 12 -3.66699 22.333 -11 31c-8.66699 7.33301 -19 11 -31 11c-12.667 0 -23.334 -3.66699 -32.001 -11c-8 -8 -12 -18.333 -12 -31z" />
    <glyph glyph-name="uni0170" unicode="&#x170;" horiz-adv-x="720" 
d="M510 700h155.001v-400c0 -92.667 -26.833 -167 -80.5 -223s-125.834 -84 -216.501 -84c-94 0 -169.667 29.167 -227 87.5s-86 133.5 -86 225.5v394h155v-376c0 -54 13.333 -98.5 40 -133.5s66 -52.5 118 -52.5c94.667 0 142 60.667 142 182v380zM534.001 935l106 -94
l-204 -113l-61 63zM290.001 935l130 -65l-167 -142l-64 58z" />
    <glyph glyph-name="uni0171" unicode="&#x171;" horiz-adv-x="570" 
d="M380 523h145v-523h-145v34c-36 -28 -76.667 -42 -122 -42c-145.333 0 -218 78 -218 234v297h145v-286c0 -73.333 29.333 -110 88 -110c46 0 81.667 21.333 107 64v332zM419 813l93 -72l-142 -154l-76 57zM243 823l93 -66l-125 -170l-77 58z" />
    <glyph glyph-name="uni0172" unicode="&#x172;" horiz-adv-x="720" 
d="M510 700h155.002v-400c0 -72 -17.167 -134.333 -51.5 -187s-84.5 -88.334 -150.5 -107.001c-12 -14 -18 -29.333 -18 -46c0 -26.667 10 -40 30 -40c13.333 0 26.666 3.33301 39.999 10l45 -90c-10.667 -13.333 -28 -23.333 -52 -30s-46.667 -10 -68 -10
c-22.667 0 -44.167 2.5 -64.5 7.5s-38.833 15 -55.5 30s-25 34.167 -25 57.5c0 35.333 24 68 72 98c-93.333 0 -168.666 29.167 -225.999 87.5s-86 133.5 -86 225.5v394h155v-376c0 -51.333 14 -95.166 42 -131.499s66.667 -54.5 116 -54.5
c33.333 0 61.166 9.16699 83.499 27.5s37.666 40.5 45.999 66.5s12.5 55.333 12.5 88v380z" />
    <glyph glyph-name="uni0173" unicode="&#x173;" horiz-adv-x="570" 
d="M494 -70l45.001 -90c-10.667 -13.333 -28 -23.333 -52 -30s-46.667 -10 -68 -10c-22.667 0 -44.167 2.5 -64.5 7.5s-38.833 15 -55.5 30s-25 34.167 -25 57.5c0 26.667 10.5 49.167 31.5 67.5s45.833 31.833 74.5 40.5v31c-36 -28 -76.667 -42 -122 -42
c-145.333 0 -218 78 -218 234v297h145v-286c0 -73.333 29.333 -110 88 -110c46 0 81.667 21.333 107 64v332h145v-523h-11c-18 -0.666992 -37.5 -6 -58.5 -16s-31.5 -22.667 -31.5 -38c0 -8 3 -14.667 9 -20c6 -4 13 -6 21 -6c13.333 0 26.666 3.33301 39.999 10z" />
    <glyph glyph-name="uni0178" unicode="&#x178;" horiz-adv-x="700" 
d="M531 700h179l-284 -449v-251h-155v251l-281 449h185l176 -280zM142 831c0 22 8.5 40.167 25.5 54.5s36.833 21.5 59.5 21.5c21.333 0 40.5 -7.5 57.5 -22.5s25.5 -32.833 25.5 -53.5c0 -21.333 -8.5 -39.5 -25.5 -54.5s-36.167 -22.5 -57.5 -22.5
c-18 0 -33.667 4.33301 -47 13c-25.333 14 -38 35.333 -38 64zM391 831c0 22 8.66699 40.167 26 54.5s37 21.5 59 21.5s41.167 -7.33301 57.5 -22s24.5 -32.667 24.5 -54s-8.16699 -39.5 -24.5 -54.5s-35.5 -22.5 -57.5 -22.5s-41.667 7.33301 -59 22s-26 33 -26 55z" />
    <glyph glyph-name="uni0179" unicode="&#x179;" horiz-adv-x="635" 
d="M381 555h-354v145h579v-103l-373 -452h382v-145h-605v103zM438 974l69 -128l-240 -113l-57 99z" />
    <glyph glyph-name="uni017A" unicode="&#x17a;" horiz-adv-x="514" 
d="M278 385h-243v135h459v-93l-259 -292h254v-135h-469v94zM294 833l109 -82l-132 -164l-100 70z" />
    <glyph glyph-name="uni017B" unicode="&#x17b;" horiz-adv-x="635" 
d="M381 555h-354v145h579v-103l-373 -452h382v-145h-605v103zM236 828c0 21.333 8.33398 38.666 25.001 51.999s35.667 20 57 20c22 0 41 -6.66699 57 -20s24 -30.666 24 -51.999c0 -22 -7.83301 -39.833 -23.5 -53.5s-34.834 -20.5 -57.501 -20.5s-42 6.66699 -58 20
s-24 31.333 -24 54z" />
    <glyph glyph-name="uni017C" unicode="&#x17c;" horiz-adv-x="514" 
d="M278 385h-243v135h459v-93l-259 -292h254v-135h-469v94zM175 658c0 21.333 8.33398 38.666 25.001 51.999s35.667 20 57 20c22 0 41 -6.66699 57 -20s24 -30.666 24 -51.999c0 -22 -7.83301 -39.833 -23.5 -53.5s-34.834 -20.5 -57.501 -20.5s-42 6.66699 -58 20
s-24 31.333 -24 54z" />
    <glyph glyph-name="uni017D" unicode="&#x17d;" horiz-adv-x="635" 
d="M381 555h-354v145h579v-103l-373 -452h382v-145h-605v103zM322 743h-4l-184 117l58 85l128 -76l128 76l52 -83z" />
    <glyph glyph-name="uni017E" unicode="&#x17e;" horiz-adv-x="514" 
d="M278 385h-243v135h459v-93l-259 -292h254v-135h-469v94zM259 598h-4l-165 136l70 88l98 -81l100 79l67 -87z" />
    <glyph glyph-name="uni018F" unicode="&#x18f;" horiz-adv-x="766" 
d="M25 306c0 40 7.66699 81.333 23 124h526c-12 44 -36.333 77.167 -73 99.5s-79.334 33.5 -128.001 33.5c-39.333 0 -77 -7.5 -113 -22.5s-66 -37.167 -90 -66.5l-102 100c33.333 44.667 78 78.167 134 100.5s115 33.5 177 33.5c110 0 197 -32.167 261 -96.5
s96 -150.5 96 -258.5c0 -110 -33.667 -197.667 -101 -263s-155.333 -98 -264 -98c-74 0 -140.167 17.333 -198.5 52s-100.166 85 -125.499 151c-14.667 36 -22 73 -22 111zM576 285h-393.001c8 -50 28.833 -87.167 62.5 -111.5s76.834 -36.5 129.501 -36.5
c51.333 0 95.5 12.667 132.5 38s59.833 62 68.5 110z" />
    <glyph glyph-name="uni0192" unicode="&#x192;" horiz-adv-x="539" 
d="M325 465l-0.996094 -3.99902h132v-135h-156l-57 -319c-6 -32 -13 -59.5 -21 -82.5s-19.167 -45.167 -33.5 -66.5s-33 -37.666 -56 -48.999s-50.167 -17 -81.5 -17c-53.333 0 -98.333 19.333 -135 58l50 112c23.333 -23.333 48.333 -35 75 -35
c27.333 0 45.666 22.667 54.999 68l61 331h-123v135h147l4 26c23.333 148 97 222 221 222c57.333 0 101.666 -13.667 132.999 -41l-53 -116c-22.667 14.667 -46.667 22 -72 22c-12 0 -22.833 -2.33301 -32.5 -7s-17.334 -9.83398 -23.001 -15.501
s-10.834 -14.334 -15.501 -26.001s-8 -21.167 -10 -28.5s-4.66699 -18 -8 -32z" />
    <glyph glyph-name="uni01DD" unicode="&#x1dd;" horiz-adv-x="558" 
d="M130 339l-86.999 88c55.333 69.333 134.333 104 237 104c77.333 0 139.666 -25.667 186.999 -77s71 -115.333 71 -192c0 -82.667 -24.667 -148.334 -74 -197.001s-114.666 -73 -195.999 -73c-72 0 -131.333 22.167 -178 66.5s-70 101.833 -70 172.5
c0 18.667 2.66699 46.667 8 84h358c-6.66699 24.667 -20.167 44.334 -40.5 59.001s-43.5 22 -69.5 22c-66.667 0 -115.334 -19 -146.001 -57zM273.001 122c55.333 0 92 22.667 110 68h-213c12 -45.333 46.333 -68 103 -68z" />
    <glyph glyph-name="uni0218" unicode="&#x218;" horiz-adv-x="619" 
d="M429 194c0 22 -15.333 41.334 -46 58.001c-14 6.66699 -48.333 18 -103 34c-54 15.333 -93 28.666 -117 39.999c-82.667 38 -124 97 -124 177c0 43.333 15 82.833 45 118.5s66.667 60.834 110 75.501c36 12.667 74.667 19 116 19c55.333 0 107 -11 155 -33
s87.667 -54 119 -96l-104 -100c-49.333 56 -108 84 -176 84c-70 0 -105 -22 -105 -66c0 -24.667 19 -42.667 57 -54c19.333 -7.33301 51.333 -17 96 -29c27.333 -7.33301 50.666 -14.333 69.999 -21s40.333 -16.167 63 -28.5s41 -25.5 55 -39.5s25.667 -32 35 -54
s14 -46.333 14 -73c0 -68 -26.667 -122 -80 -162s-115 -60 -185 -60c-68 0 -131.667 14.5 -191 43.5s-103.666 71.5 -132.999 127.5l113 94c22 -36.667 51.5 -65.834 88.5 -87.501s76.5 -32.5 118.5 -32.5c27.333 0 52.333 4.83301 75 14.5s34 26.5 34 50.5zM238 -108.999
l121 77.9971c34.667 -23.333 52 -54.666 52 -93.999c0 -35.333 -9.5 -68.166 -28.5 -98.499s-44.167 -54.5 -75.5 -72.5l-69 50c21.333 24.667 32 49.667 32 75c0 16.667 -10.667 37.334 -32 62.001z" />
    <glyph glyph-name="uni0219" unicode="&#x219;" horiz-adv-x="496" 
d="M331 155c0 6.66699 -4.32812 12.3379 -12.9951 17.0049c-9.33301 5.33301 -28.333 12.333 -57 21c-28.667 8 -52.667 15 -72 21c-42.667 11.333 -78.834 30.166 -108.501 56.499s-44.5 59.5 -44.5 99.5c0 38.667 12 70.667 36 96s51.833 42.5 83.5 51.5
s66.5 13.5 104.5 13.5c41.333 0 82.166 -8.16699 122.499 -24.5s71.5 -39.5 93.5 -69.5l-99 -95c-35.333 36 -84 54 -146 54c-30 0 -45 -8.33301 -45 -25c0 -5.33301 4.33301 -10 13 -14c7.33301 -4 28 -10.667 62 -20l60.5 -17.5
c14.333 -4.33301 33.166 -11.833 56.499 -22.5s41.333 -21.667 54 -33s24 -26.333 34 -45s15 -39.667 15 -63c0 -38.667 -11.5 -70.834 -34.5 -96.501s-50.333 -43.334 -82 -53.001s-66.167 -14.5 -103.5 -14.5c-50.667 0 -99.334 10.667 -146.001 32
s-81 52.666 -103 93.999l115 78c16 -20.667 38.167 -37.334 66.5 -50.001s56.166 -19 83.499 -19c36 0 54 9.33301 54 28zM162.005 -108.996l121 77.9971c34.667 -23.333 52 -54.666 52 -93.999c0 -35.333 -9.5 -68.166 -28.5 -98.499s-44.167 -54.5 -75.5 -72.5l-69 50
c21.333 24.667 32 49.667 32 75c0 16.667 -10.667 37.334 -32 62.001z" />
    <glyph glyph-name="uni021A" unicode="&#x21a;" horiz-adv-x="604" 
d="M224 555h-224v145h604v-145h-225v-555h-155v555zM216 -109l121 77.9971c34.667 -23.333 52 -54.666 52 -93.999c0 -35.333 -9.5 -68.166 -28.5 -98.499s-44.167 -54.5 -75.5 -72.5l-69 50c21.333 24.667 32 49.667 32 75c0 16.667 -10.667 37.334 -32 62.001z" />
    <glyph glyph-name="uni021B" unicode="&#x21b;" horiz-adv-x="446" 
d="M104 385h-99.002v135h99v121h145v-121h159v-135h-159v-169c0 -12 0.5 -22.167 1.5 -30.5s3 -17.333 6 -27s8.33301 -17 16 -22s17.5 -7.5 29.5 -7.5c30.667 0 60.334 11.333 89.001 34l60 -103c-41.333 -44 -95.666 -66 -162.999 -66c-57.333 0 -102.333 15.667 -135 47
s-49 75.333 -49 132v212zM166.998 -109l121 77.9971c34.667 -23.333 52 -54.666 52 -93.999c0 -35.333 -9.5 -68.166 -28.5 -98.499s-44.167 -54.5 -75.5 -72.5l-69 50c21.333 24.667 32 49.667 32 75c0 16.667 -10.667 37.334 -32 62.001z" />
    <glyph glyph-name="uni0237" unicode="&#x237;" horiz-adv-x="263" 
d="M61 520h144.999v-518c0 -64.667 -14.833 -116 -44.5 -154s-75.834 -57 -138.501 -57c-91.333 0 -153.666 40 -186.999 120l127 49c10.667 -22.667 26.334 -34 47.001 -34c34 0 51 26.333 51 79v515z" />
    <glyph glyph-name="uni0259" unicode="&#x259;" horiz-adv-x="558" 
d="M130 339l-86.999 88c55.333 69.333 134.333 104 237 104c77.333 0 139.666 -25.667 186.999 -77s71 -115.333 71 -192c0 -82.667 -24.667 -148.334 -74 -197.001s-114.666 -73 -195.999 -73c-72 0 -131.333 22.167 -178 66.5s-70 101.833 -70 172.5
c0 18.667 2.66699 46.667 8 84h358c-6.66699 24.667 -20.167 44.334 -40.5 59.001s-43.5 22 -69.5 22c-66.667 0 -115.334 -19 -146.001 -57zM273.001 122c55.333 0 92 22.667 110 68h-213c12 -45.333 46.333 -68 103 -68z" />
    <glyph glyph-name="uni02BC" unicode="&#x2bc;" horiz-adv-x="216" 
d="M42 665l122 76c34.667 -28 52 -64.667 52 -110c0 -70 -41 -131.667 -123 -185l-63 55c13.333 12.667 24.333 27 33 43c7.33301 16 11 30.333 11 43c0 22.667 -10.667 48.667 -32 78z" />
    <glyph glyph-name="uni02C6" unicode="&#x2c6;" horiz-adv-x="467" 
d="M298 796h4l165 -136l-70 -88l-98 81l-100 -79l-67 87z" />
    <glyph glyph-name="uni02C7" unicode="&#x2c7;" horiz-adv-x="464" 
d="M298 598h-4l-165 136l70 88l98 -81l100 79l67 -87z" />
    <glyph glyph-name="uni02D8" unicode="&#x2d8;" horiz-adv-x="471" 
d="M139 707l66 75c30.667 -34.667 65.667 -52 105 -52c44 0 80.667 16.667 110 50l51 -72c-44 -65.333 -99.667 -98 -167 -98c-22.667 0 -44.667 4.33301 -66 13c-41.333 14 -74.333 42 -99 84z" />
    <glyph glyph-name="uni02D9" unicode="&#x2d9;" horiz-adv-x="250" 
d="M50 658c0 21.333 8.33398 38.666 25.001 51.999s35.667 20 57 20c22 0 41 -6.66699 57 -20s24 -30.666 24 -51.999c0 -22 -7.83301 -39.833 -23.5 -53.5s-34.834 -20.5 -57.501 -20.5s-42 6.66699 -58 20s-24 31.333 -24 54z" />
    <glyph glyph-name="uni02DA" unicode="&#x2da;" horiz-adv-x="443" 
d="M167 701c0 36.667 13.667 67.332 41 91.999s59.333 37 96 37c38.667 0 71.5 -12.167 98.5 -36.5s40.5 -55.166 40.5 -92.499c0 -36.667 -13.833 -67 -41.5 -91s-60.167 -36 -97.5 -36c-36.667 0 -68.667 12.167 -96 36.5s-41 54.5 -41 90.5zM262 702.998
c0 -13.333 4.00098 -24.001 12.001 -32.001s18.667 -12 32 -12c12.667 0 23 4 31 12c7.33301 8.66699 11 19.334 11 32.001c0 12 -3.66699 22.333 -11 31c-8.66699 7.33301 -19 11 -31 11c-12.667 0 -23.334 -3.66699 -32.001 -11c-8 -8 -12 -18.333 -12 -31z" />
    <glyph glyph-name="uni02DB" unicode="&#x2db;" horiz-adv-x="395" 
d="M350 -70l44.998 -90.001c-10.667 -13.333 -28 -23.333 -52 -30s-46.667 -10 -68 -10c-22.667 0 -44.167 2.5 -64.5 7.5s-38.833 15 -55.5 30s-25 34.167 -25 57.5c0 24.667 8.83301 45.834 26.5 63.501s40.334 30.834 68.001 39.501s54.334 15 80.001 19s50.5 6 74.5 6
v-23c-19.333 0 -40.666 -4.83301 -63.999 -14.5s-35 -22.834 -35 -39.501c0 -8 3 -14.667 9 -20c6 -4 13 -6 21 -6c13.333 0 26.666 3.33301 39.999 10z" />
    <glyph glyph-name="uni02DC" unicode="&#x2dc;" horiz-adv-x="470" 
d="M165 599l-59.999 67c37.333 52 81.333 78 132 78c16 0 36.333 -6.33301 61 -19c25.333 -13.333 44.333 -20 57 -20c24 0 46 9 66 27l49 -75c-16 -20 -35.5 -37 -58.5 -51s-45.833 -21 -68.5 -21c-14 0 -33.667 6.66699 -59 20c-24.667 12.667 -44.667 19 -60 19
c-18.667 0 -38.334 -8.33301 -59.001 -25z" />
    <glyph glyph-name="uni02DD" unicode="&#x2dd;" horiz-adv-x="544" 
d="M451 813l93 -72l-142 -154l-76 57zM275 823l93 -66l-125 -170l-77 58z" />
    <glyph glyph-name="uni0300" unicode="&#x300;" horiz-adv-x="0" 
d="M-183 656l-86 -69l-147 160l114 86z" />
    <glyph glyph-name="uni0301" unicode="&#x301;" horiz-adv-x="0" 
d="M-243 833l109 -82l-132 -164l-100 70z" />
    <glyph glyph-name="uni0394" unicode="&#x394;" horiz-adv-x="733" 
d="M723 0h-713l303 707h101zM506 130l-142 325l-139 -325h281z" />
    <glyph glyph-name="uni0394" unicode="&#x2206;" horiz-adv-x="733" 
d="M723 0h-713l303 707h101zM506 130l-142 325l-139 -325h281z" />
    <glyph glyph-name="uni03A9" unicode="&#x3a9;" horiz-adv-x="829" 
d="M381 0l-341.003 -0.000976562v150h120c-16.667 7.33301 -32.667 25.333 -48 54s-26.666 55.334 -33.999 80.001c-10 33.333 -15 68.666 -15 105.999c0 100 33.5 178.667 100.5 236s150.833 86 251.5 86c104.667 0 189.5 -28.5 254.5 -85.5s97.5 -135.833 97.5 -236.5
c0 -44.667 -9.16699 -91 -27.5 -139s-44.166 -81.667 -77.499 -101h127v-150h-341v150c46 15.333 84 44.5 114 87.5s45 88.833 45 137.5c0 22 -4 44.333 -12 67c-16 38.667 -39.5 68.334 -70.5 89.001s-67.5 31 -109.5 31c-59.333 0 -106.166 -17.167 -140.499 -51.5
s-51.5 -80.5 -51.5 -138.5c0 -47.333 15.167 -92.833 45.5 -136.5s67.833 -72.167 112.5 -85.5v-150z" />
    <glyph glyph-name="uni03A9" unicode="&#x2126;" horiz-adv-x="829" 
d="M381 0l-341.003 -0.000976562v150h120c-16.667 7.33301 -32.667 25.333 -48 54s-26.666 55.334 -33.999 80.001c-10 33.333 -15 68.666 -15 105.999c0 100 33.5 178.667 100.5 236s150.833 86 251.5 86c104.667 0 189.5 -28.5 254.5 -85.5s97.5 -135.833 97.5 -236.5
c0 -44.667 -9.16699 -91 -27.5 -139s-44.166 -81.667 -77.499 -101h127v-150h-341v150c46 15.333 84 44.5 114 87.5s45 88.833 45 137.5c0 22 -4 44.333 -12 67c-16 38.667 -39.5 68.334 -70.5 89.001s-67.5 31 -109.5 31c-59.333 0 -106.166 -17.167 -140.499 -51.5
s-51.5 -80.5 -51.5 -138.5c0 -47.333 15.167 -92.833 45.5 -136.5s67.833 -72.167 112.5 -85.5v-150z" />
    <glyph glyph-name="uni03C0" unicode="&#x3c0;" horiz-adv-x="645" 
d="M123 385l-85 0.00195312v135h563v-135h-75v-221c0 -28.667 9.66699 -43 29 -43c3.33301 0 8 1 14 3c4.66699 0.666992 15 6 31 16l35 -105c-38 -32.667 -83.667 -49 -137 -49c-78 0 -117 54.667 -117 164v235h-112v-60c0 -21.333 -0.166992 -38.166 -0.5 -50.499
s-1.16602 -30 -2.49902 -53s-3.5 -41.833 -6.5 -56.5s-7.5 -31.834 -13.5 -51.501s-13.333 -35.834 -22 -48.501s-19.667 -24.834 -33 -36.501s-28.666 -20.5 -45.999 -26.5c-29.333 -10.667 -66.666 -16 -111.999 -16l-13 139c31.333 1.33301 53.166 8.33301 65.499 21
s22.166 35 29.499 67c3.33301 19.333 5.66602 49 6.99902 89z" />
    <glyph glyph-name="uni0401" unicode="&#x401;" horiz-adv-x="649" 
d="M609 0h-544v700h535v-145h-380v-130h355v-140h-355v-140h389v-145zM114 831c0 22 8.5 40.167 25.5 54.5s36.833 21.5 59.5 21.5c21.333 0 40.5 -7.5 57.5 -22.5s25.5 -32.833 25.5 -53.5c0 -21.333 -8.5 -39.5 -25.5 -54.5s-36.167 -22.5 -57.5 -22.5
c-18 0 -33.667 4.33301 -47 13c-25.333 14 -38 35.333 -38 64zM363 831c0 22 8.66699 40.167 26 54.5s37 21.5 59 21.5s41.167 -7.33301 57.5 -22s24.5 -32.667 24.5 -54s-8.16699 -39.5 -24.5 -54.5s-35.5 -22.5 -57.5 -22.5s-41.667 7.33301 -59 22s-26 33 -26 55z" />
    <glyph glyph-name="uni0402" unicode="&#x402;" horiz-adv-x="767" 
d="M581 203c0 32.667 -8.33203 59.168 -24.999 79.501s-41 30.5 -73 30.5c-48.667 0 -85 -18.333 -109 -55v-258h-155v555h-219v145h599v-145h-225v-134c32 24.667 77.667 37 137 37c72 0 127.667 -20.667 167 -62s59 -97.333 59 -168
c0 -66.667 -18.333 -122.834 -55 -168.501s-87 -68.5 -151 -68.5c-60.667 0 -105.334 21 -134.001 63l83 104c8 -8 15 -13.333 21 -16c6 -4 16 -6 30 -6c16.667 0 29.167 6.66699 37.5 20s12.5 29 12.5 47z" />
    <glyph glyph-name="uni0403" unicode="&#x403;" horiz-adv-x="590" 
d="M220 0h-155v700h525v-145h-370v-555zM448 974l69 -128l-240 -113l-57 99z" />
    <glyph glyph-name="uni0404" unicode="&#x404;" horiz-adv-x="690" 
d="M191 429h295.997v-145h-299c9.33301 -48 32.5 -84.5 69.5 -109.5s81.167 -37.5 132.5 -37.5c70.667 0 127 32 169 96l121 -61c-18.667 -52 -54.834 -95 -108.501 -129s-109.167 -51 -166.5 -51c-111.333 0 -201.666 32.667 -270.999 98s-104 152 -104 260
s34.667 194.667 104 260s157.333 98 264 98c52.667 0 104 -11.333 154 -34s87.333 -55 112 -97l-113 -83c-35.333 46 -89.666 69 -162.999 69c-47.333 0 -88.666 -11.5 -123.999 -34.5s-59.666 -56.167 -72.999 -99.5z" />
    <glyph glyph-name="uni0405" unicode="&#x405;" horiz-adv-x="619" 
d="M429 194c0 22 -15.333 41.334 -46 58.001c-14 6.66699 -48.333 18 -103 34c-54 15.333 -93 28.666 -117 39.999c-82.667 38 -124 97 -124 177c0 43.333 15 82.833 45 118.5s66.667 60.834 110 75.501c36 12.667 74.667 19 116 19c55.333 0 107 -11 155 -33
s87.667 -54 119 -96l-104 -100c-49.333 56 -108 84 -176 84c-70 0 -105 -22 -105 -66c0 -24.667 19 -42.667 57 -54c19.333 -7.33301 51.333 -17 96 -29c27.333 -7.33301 50.666 -14.333 69.999 -21s40.333 -16.167 63 -28.5s41 -25.5 55 -39.5s25.667 -32 35 -54
s14 -46.333 14 -73c0 -68 -26.667 -122 -80 -162s-115 -60 -185 -60c-68 0 -131.667 14.5 -191 43.5s-103.666 71.5 -132.999 127.5l113 94c22 -36.667 51.5 -65.834 88.5 -87.501s76.5 -32.5 118.5 -32.5c27.333 0 52.333 4.83301 75 14.5s34 26.5 34 50.5z" />
    <glyph glyph-name="uni0406" unicode="&#x406;" horiz-adv-x="295" 
d="M225 0h-155v700h155v-700z" />
    <glyph glyph-name="uni0407" unicode="&#x407;" horiz-adv-x="295" 
d="M-25 806c0 20 7.66699 37.001 23 51.001c16.667 13.333 36 20 58 20c20.667 0 39.167 -6.83301 55.5 -20.5s24.5 -30.5 24.5 -50.5c0 -9.33301 -2.66699 -20 -8 -32c-6.66699 -12 -16.334 -21.333 -29.001 -28c-13.333 -8 -27.666 -12 -42.999 -12
c-22 0 -41 6.66699 -57 20s-24 30.666 -24 51.999zM159 806.001c0 21.333 8.16602 38.502 24.499 51.502s35.5 19.5 57.5 19.5c20.667 0 39.334 -6.66699 56.001 -20c15.333 -14 23 -31 23 -51c0 -20.667 -7.83301 -37.834 -23.5 -51.501s-34.167 -20.5 -55.5 -20.5
s-40.333 6.66699 -57 20s-25 30.666 -25 51.999zM224.999 0.00292969h-155v700h155v-700z" />
    <glyph glyph-name="uni0408" unicode="&#x408;" horiz-adv-x="486" 
d="M271 700l155 -0.000976562v-481c0 -69.333 -18.167 -125.166 -54.5 -167.499s-88.833 -63.5 -157.5 -63.5c-50 0 -94.833 11.5 -134.5 34.5s-69.5 56.167 -89.5 99.5l113 87c24.667 -50.667 57 -76 97 -76c28.667 0 47.667 10.833 57 32.5s14 49.5 14 83.5v451z" />
    <glyph glyph-name="uni0409" unicode="&#x409;" horiz-adv-x="1042" 
d="M747 316h-99v-171h95c40 0 71.333 6.16699 94 18.5s34 36.5 34 72.5c0 28 -10 48.667 -30 62c-20.667 12 -52 18 -94 18zM137 700l510.999 0.000976562v-239h101c188.667 0 283 -75 283 -225c0 -42 -8.16699 -78.833 -24.5 -110.5s-38.666 -56.334 -66.999 -74.001
s-59.333 -30.667 -93 -39s-70.167 -12.5 -109.5 -12.5h-245v550h-205l-4 -81c-6.66699 -153.333 -24 -267 -52 -341c-18 -48.667 -42.5 -82.667 -73.5 -102s-73.167 -29 -126.5 -29c-14 0 -27.333 1 -40 3v144c12 -1.33301 20.333 -2 25 -2c35.333 0 61 16.333 77 49
c10 20 19 58.333 27 115c8 57.333 13 162.333 15 315z" />
    <glyph glyph-name="uni040A" unicode="&#x40a;" horiz-adv-x="1038" 
d="M651 700v-256.001h101c184 0 276 -72.333 276 -217c0 -41.333 -7.66699 -77.166 -23 -107.499s-36.5 -54 -63.5 -71s-57 -29.333 -90 -37s-69.5 -11.5 -109.5 -11.5h-246v299h-276v-299h-155v700h155v-256h276v256h155zM751 298.999l-100.004 0.000976562v-154h96
c17.333 0 32 0.833008 44 2.5s24.333 5 37 10s22.334 13 29.001 24s10 25.167 10 42.5c0 16.667 -3.16699 30.5 -9.5 41.5s-15.666 18.667 -27.999 23s-24.166 7.16602 -35.499 8.49902s-25.666 2 -42.999 2z" />
    <glyph glyph-name="uni040B" unicode="&#x40b;" horiz-adv-x="739" 
d="M219 555l-219 -0.000976562v145h599v-145h-225v-130c37.333 22 75.333 33 114 33c76 0 131.833 -21.167 167.5 -63.5s53.5 -101.166 53.5 -176.499v-218h-155v198c0 32 -7.16699 59.167 -21.5 81.5s-36.5 33.5 -66.5 33.5c-38 0 -68.667 -15 -92 -45v-268h-155v555z" />
    <glyph glyph-name="uni040C" unicode="&#x40c;" horiz-adv-x="701" 
d="M220 0h-155v700h155v-273l269 273h202l-304 -310l324 -390h-204l-237 286l-50 -51v-235zM445 974l69 -128l-240 -113l-57 99z" />
    <glyph glyph-name="uni040E" unicode="&#x40e;" horiz-adv-x="728" 
d="M405 352l161.001 348h162l-254 -536c-26 -53.333 -53.5 -94 -82.5 -122s-68.167 -42 -117.5 -42c-57.333 0 -104.333 26.667 -141 80l100 91c11.333 -17.333 25.666 -26 42.999 -26c20 0 36.667 14 50 42l-326 513h192zM188.001 893l129.999 0.000976562
c8 -34 28 -51 60 -51c16 0 29.833 4.66699 41.5 14s18.5 21.666 20.5 36.999h130c-1.33301 -43.333 -21.5 -81.5 -60.5 -114.5s-80.833 -49.5 -125.5 -49.5c-54.667 0 -98.667 14.167 -132 42.5s-54.666 68.833 -63.999 121.5z" />
    <glyph glyph-name="uni040F" unicode="&#x40f;" horiz-adv-x="745" 
d="M297 0h-232v700h155v-555h305v555h155v-700h-233v-137h-150v137z" />
    <glyph glyph-name="uni0410" unicode="&#x410;" horiz-adv-x="721" 
d="M156 0h-160l307 700h115l307 -700h-162l-57 130h-293zM449 261l-90 209l-92 -209h182z" />
    <glyph glyph-name="uni0411" unicode="&#x411;" horiz-adv-x="665" 
d="M65 700h527v-145h-372v-114h176c76 0 135.667 -17.5 179 -52.5s65 -89.5 65 -163.5c0 -150 -97 -225 -291 -225h-284v700zM361 296l-140.998 0.00195312v-151h135c16.667 0 31.167 0.833008 43.5 2.5s25.166 5 38.499 10s23.666 13.167 30.999 24.5s11 25.333 11 42
c0 16 -3.5 29.167 -10.5 39.5s-17 17.666 -30 21.999s-25.167 7.16602 -36.5 8.49902s-25 2 -41 2z" />
    <glyph glyph-name="uni0412" unicode="&#x412;" horiz-adv-x="678" 
d="M370 0h-304.999v700h313c76.667 0 134.667 -12.667 174 -38c45.333 -32.667 68 -79.667 68 -141c0 -60.667 -22.667 -110.667 -68 -150c60.667 -28.667 91 -83 91 -163c0 -50.667 -13.833 -92.167 -41.5 -124.5s-60.834 -54.333 -99.501 -66s-82.667 -17.5 -132 -17.5z
M362.001 287h-142.003v-142h134c16.667 0 30.834 0.666992 42.501 2s24.834 4 39.501 8s25.834 11.333 33.501 22s11.5 24 11.5 40s-3.5 29 -10.5 39s-17.167 17.167 -30.5 21.5s-25.5 7 -36.5 8s-24.833 1.5 -41.5 1.5zM351.998 555h-131.999v-128h145
c24.667 0 46.5 4.33301 65.5 13s28.5 24 28.5 46c0 15.333 -2.83301 28 -8.5 38s-14.334 17 -26.001 21s-22.667 6.66699 -33 8s-23.5 2 -39.5 2z" />
    <glyph glyph-name="uni0413" unicode="&#x413;" horiz-adv-x="590" 
d="M220 0h-155v700h525v-145h-370v-555z" />
    <glyph glyph-name="uni0414" unicode="&#x414;" horiz-adv-x="751" 
d="M147 -117h-145v262h76c48.667 101.333 73 258.333 73 471v84h509v-555h81v-262h-145v117h-449v-117zM505 555h-206l-1 -39c-4 -160 -24 -283.667 -60 -371h267v410z" />
    <glyph glyph-name="uni0415" unicode="&#x415;" horiz-adv-x="649" 
d="M609 0h-544v700h535v-145h-380v-130h355v-140h-355v-140h389v-145z" />
    <glyph glyph-name="uni0416" unicode="&#x416;" horiz-adv-x="990" 
d="M-1 0l277 360l-280 340h190l232 -277v277h155v-279l229 279h192l-280 -325l278 -375h-184l-215 286l-20 -30v-256h-155l1 255l-19 27l-225 -282h-176z" />
    <glyph glyph-name="uni0417" unicode="&#x417;" horiz-adv-x="655" 
d="M338 -12c-154.667 0 -267.331 52.3301 -337.998 156.997l123 83c47.333 -63.333 117.666 -95 210.999 -95c90 0 135 25.333 135 76c0 50 -48.667 75 -146 75h-110v145h104c18 0 35.5 1.33301 52.5 4s34 9.16699 51 19.5s25.5 24.166 25.5 41.499
c0 18.667 -7.33301 33.834 -22 45.501s-30.5 19.167 -47.5 22.5s-34.833 5 -53.5 5c-72.667 0 -132 -25.667 -178 -77l-120 81c68.667 94 171 141 307 141c35.333 0 68.333 -3.5 99 -10.5s59.167 -18 85.5 -33s47.166 -36.167 62.499 -63.5s23 -59.666 23 -96.999
c0 -60.667 -24 -105 -72 -133c63.333 -25.333 95 -77.666 95 -156.999c0 -39.333 -8.16699 -74.166 -24.5 -104.499s-38.5 -54.333 -66.5 -72s-58.5 -31 -91.5 -40s-67.833 -13.5 -104.5 -13.5z" />
    <glyph glyph-name="uni0418" unicode="&#x418;" horiz-adv-x="753" 
d="M533 427l-341 -427h-127v700h155v-429l339 429h129v-700h-155v427z" />
    <glyph glyph-name="uni0419" unicode="&#x419;" horiz-adv-x="753" 
d="M533 427l-341 -427h-127v700h155v-429l339 429h129v-700h-155v427zM193 893l129.999 0.000976562c8 -34 28 -51 60 -51c16 0 29.833 4.66699 41.5 14s18.5 21.666 20.5 36.999h130c-1.33301 -43.333 -21.5 -81.5 -60.5 -114.5s-80.833 -49.5 -125.5 -49.5
c-54.667 0 -98.667 14.167 -132 42.5s-54.666 68.833 -63.999 121.5z" />
    <glyph glyph-name="uni041A" unicode="&#x41a;" horiz-adv-x="701" 
d="M220 0h-155v700h155v-273l269 273h202l-304 -310l324 -390h-204l-237 286l-50 -51v-235z" />
    <glyph glyph-name="uni041B" unicode="&#x41b;" horiz-adv-x="727" 
d="M662 0h-155v550h-219l-4 -81c-6.66699 -153.333 -24 -267 -52 -341c-18 -48.667 -42.5 -82.667 -73.5 -102s-73.167 -29 -126.5 -29c-14 0 -27.333 1 -40 3v144c12 -1.33301 20.333 -2 25 -2c35.333 0 61 16.333 77 49c10 20 19 58.333 27 115
c8 57.333 13 162.333 15 315l1 79h525v-700z" />
    <glyph glyph-name="uni041C" unicode="&#x41c;" horiz-adv-x="851" 
d="M220 0h-155v700h144l224 -335l213 335h140v-700h-155v420l-182 -279h-41l-188 282v-423z" />
    <glyph glyph-name="uni041D" unicode="&#x41d;" horiz-adv-x="751" 
d="M686 0h-155v280h-311v-280h-155v700h155v-275h311v275h155v-700z" />
    <glyph glyph-name="uni041E" unicode="&#x41e;" horiz-adv-x="781" 
d="M30 350c0 101.333 35.168 187 105.501 257s155.5 105 255.5 105c70.667 0 136.167 -19 196.5 -57s104.166 -89 131.499 -153c21.333 -52 32 -102.667 32 -152c0 -100.667 -35 -186.167 -105 -256.5s-155 -105.5 -255 -105.5c-101.333 0 -186.833 35.167 -256.5 105.5
s-104.5 155.833 -104.5 256.5zM191.001 350c0 -58.667 19 -108.667 57 -150s85.667 -62 143 -62c60 0 108.167 20.333 144.5 61s54.5 91 54.5 151c0 58 -19 107.833 -57 149.5s-85.333 62.5 -142 62.5c-58.667 0 -106.667 -20.667 -144 -62s-56 -91.333 -56 -150z" />
    <glyph glyph-name="uni041F" unicode="&#x41f;" horiz-adv-x="750" 
d="M685 0h-155v555h-310v-555h-155v700h620v-700z" />
    <glyph glyph-name="uni0420" unicode="&#x420;" horiz-adv-x="677" 
d="M220 220l-0.000976562 -220h-155v700h290c56.667 0 106.334 -7.33301 149.001 -22s78 -40.5 106 -77.5s42 -84.167 42 -141.5c0 -55.333 -14.667 -101.5 -44 -138.5s-65.5 -63 -108.5 -78s-91.167 -22.5 -144.5 -22.5h-135zM358.999 555h-139v-190h133
c92 0 138 31.667 138 95s-44 95 -132 95z" />
    <glyph glyph-name="uni0421" unicode="&#x421;" horiz-adv-x="696" 
d="M594 231l92 -99c-30 -46 -72.5 -81.5 -127.5 -106.5s-111.833 -37.5 -170.5 -37.5c-108.667 0 -195.5 33.667 -260.5 101s-97.5 154.333 -97.5 261c0 104 34.667 190.333 104 259s155.333 103 258 103c56 0 110.5 -11.333 163.5 -34s92.833 -55.667 119.5 -99l-105 -96
c-19.333 24 -44.166 43.167 -74.499 57.5s-61.166 21.5 -92.499 21.5c-63.333 0 -114.5 -19.5 -153.5 -58.5s-58.5 -90.167 -58.5 -153.5c0 -61.333 19.667 -112 59 -152s89.666 -60 150.999 -60c79.333 0 143.666 31 192.999 93z" />
    <glyph glyph-name="uni0422" unicode="&#x422;" horiz-adv-x="604" 
d="M224 555h-224v145h604v-145h-225v-555h-155v555z" />
    <glyph glyph-name="uni0423" unicode="&#x423;" horiz-adv-x="728" 
d="M405 352l161.001 348h162l-254 -536c-26 -53.333 -53.5 -94 -82.5 -122s-68.167 -42 -117.5 -42c-57.333 0 -104.333 26.667 -141 80l100 91c11.333 -17.333 25.666 -26 42.999 -26c20 0 36.667 14 50 42l-326 513h192z" />
    <glyph glyph-name="uni0424" unicode="&#x424;" horiz-adv-x="899" 
d="M527 -15l-155 0.000976562v81h-4c-97.333 0 -178.833 25.833 -244.5 77.5s-98.5 123.834 -98.5 216.501c0 100 32.5 174 97.5 222s148.167 72 249.5 72v61h155v-61c102.667 0 186.167 -24.833 250.5 -74.5s96.5 -122.834 96.5 -219.501
c0 -94.667 -32.833 -167.334 -98.5 -218.001s-146.5 -76 -242.5 -76h-6v-81zM529 509.001h-2v-298h6c120.667 0 181 49.667 181 149c0 55.333 -16.167 94 -48.5 116s-77.833 33 -136.5 33zM185 360.001c0 -49.333 18 -86.5 54 -111.5s79.333 -37.5 130 -37.5h3v298
c-60 0 -106.167 -10.833 -138.5 -32.5s-48.5 -60.5 -48.5 -116.5z" />
    <glyph glyph-name="uni0425" unicode="&#x425;" horiz-adv-x="707" 
d="M511 700h188l-253 -345l261 -355h-189l-164 229l-165 -229h-189l262 355l-251 345h187l157 -217z" />
    <glyph glyph-name="uni0426" unicode="&#x426;" horiz-adv-x="749" 
d="M595 0h-530v700h155v-555h283v555h155v-555h81v-262h-144v117z" />
    <glyph glyph-name="uni0427" unicode="&#x427;" horiz-adv-x="709" 
d="M489 700l155 -0.000976562v-700h-155v263c-21.333 -12 -48.333 -21.5 -81 -28.5s-62.667 -10.5 -90 -10.5c-84 0 -151.333 20 -202 60s-76 100 -76 180v236h156v-138c0 -61.333 9.83301 -108.833 29.5 -142.5s57.5 -50.5 113.5 -50.5c24 0 50.5 3.83301 79.5 11.5
s52.5 17.834 70.5 30.501v289z" />
    <glyph glyph-name="uni0428" unicode="&#x428;" horiz-adv-x="949" 
d="M884 0h-819v700h155v-555h177v555h155v-555h177v555h155v-700z" />
    <glyph glyph-name="uni0429" unicode="&#x429;" horiz-adv-x="977" 
d="M822 0h-757v700h155v-555h178v555h155v-555h178v555h155v-555h81v-262h-145v117z" />
    <glyph glyph-name="uni042A" unicode="&#x42a;" horiz-adv-x="741" 
d="M153 555h-153.001v145h308v-232h129c196 0 294 -77.333 294 -232c0 -44 -8 -81.833 -24 -113.5s-38.667 -56.167 -68 -73.5s-61.166 -29.833 -95.499 -37.5s-72.833 -11.5 -115.5 -11.5h-275v555zM434.999 323l-127 -0.000976562v-178h124c20 0 37 1 51 3
s28.333 5.83301 43 11.5s25.667 14.834 33 27.501s11 29 11 49c0 58 -45 87 -135 87z" />
    <glyph glyph-name="uni042B" unicode="&#x42b;" horiz-adv-x="900" 
d="M835 0h-155v700h155v-700zM321 323l-101 -0.000976562v-178h99c20 0 37 1 51 3s28.333 5.83301 43 11.5s25.667 14.834 33 27.501s11 29 11 49c0 58 -45.333 87 -136 87zM65 699.999l154.999 -0.00195312v-232h104c40 0 76.833 -4.16699 110.5 -12.5
s64.667 -21.166 93 -38.499s50.5 -41.5 66.5 -72.5s24 -67.167 24 -108.5c0 -43.333 -8.16699 -80.666 -24.5 -111.999s-39.166 -55.833 -68.499 -73.5s-61.333 -30.5 -96 -38.5s-72.667 -12 -114 -12h-250v700z" />
    <glyph glyph-name="uni042C" unicode="&#x42c;" horiz-adv-x="657" 
d="M351 323h-130v-178h127c92 0 138 30.333 138 91c0 58 -45 87 -135 87zM65 700h155.997v-232h132c41.333 0 78.833 -3.83301 112.5 -11.5s64.5 -20 92.5 -37s49.833 -41 65.5 -72s23.5 -68.167 23.5 -111.5c0 -42.667 -8.16699 -79.834 -24.5 -111.501
s-39.166 -56.167 -68.499 -73.5s-61.166 -30.166 -95.499 -38.499s-72.166 -12.5 -113.499 -12.5h-280v700z" />
    <glyph glyph-name="uni042D" unicode="&#x42d;" horiz-adv-x="707" 
d="M517 285l-309.999 0.000976562v145h308c-12 44 -36.333 77.167 -73 99.5s-79.334 33.5 -128.001 33.5c-39.333 0 -77 -7.5 -113 -22.5s-66 -37.167 -90 -66.5l-102 100c33.333 44.667 78 78.167 134 100.5s115 33.5 177 33.5c110 0 197 -32.167 261 -96.5
s96 -150.5 96 -258.5c0 -110 -33.667 -197.667 -101 -263s-155.333 -98 -264 -98c-63.333 0 -122.833 12.667 -178.5 38s-100.167 62.666 -133.5 111.999l103 88c45.333 -62 116.333 -93 213 -93c51.333 0 95.5 12.667 132.5 38s59.833 62 68.5 110z" />
    <glyph glyph-name="uni042E" unicode="&#x42e;" horiz-adv-x="1014" 
d="M220 0h-155v700h155v-278h71c14.667 85.333 54.167 154.333 118.5 207s139.5 79 225.5 79c106 0 190.667 -33.5 254 -100.5s95 -152.833 95 -257.5c0 -102 -33.167 -187.167 -99.5 -255.5s-149.5 -102.5 -249.5 -102.5c-94 0 -172 26.833 -234 80.5
s-99 126.167 -111 217.5h-70v-290zM443 350c0 -60 17.499 -110.5 52.499 -151.5s81.5 -61.5 139.5 -61.5c60.667 0 107.167 20 139.5 60s48.5 91 48.5 153c0 61.333 -16.5 112.166 -49.5 152.499s-79.167 60.5 -138.5 60.5s-106.166 -20.667 -140.499 -62
s-51.5 -91.666 -51.5 -150.999z" />
    <glyph glyph-name="uni042F" unicode="&#x42f;" horiz-adv-x="701" 
d="M636 0h-154.999v231h-119l-179 -231h-183l206 260c-48.667 14.667 -86.834 39.667 -114.501 75s-41.5 78.333 -41.5 129c0 53.333 14.667 98.5 44 135.5s65.333 63 108 78s89.667 22.5 141 22.5h293v-700zM328.001 376h153v179h-147c-82 0 -123 -30 -123 -90
c0 -28 12 -49.833 36 -65.5s51 -23.5 81 -23.5z" />
    <glyph glyph-name="uni0430" unicode="&#x430;" horiz-adv-x="532" 
d="M117 346l-68.9971 104.999c25.333 27.333 59.166 47.5 101.499 60.5s84.833 19.5 127.5 19.5c67.333 0 119.666 -19 156.999 -57s56 -91 56 -159v-315h-145v47c-14.667 -16.667 -35.5 -29.667 -62.5 -39s-52.833 -14 -77.5 -14c-54.667 0 -100 15 -136 45
s-54 71.667 -54 125c0 40.667 12.667 74.334 38 101.001s54.833 45 88.5 55s70.167 15 109.5 15s70.666 -4.33301 93.999 -13c1.33301 25.333 -5.33398 44 -20.001 56c-15.333 12 -36.666 18 -63.999 18c-48.667 0 -96.667 -16.667 -144 -50zM235.003 118.999
c22 0 43.499 5.33301 64.499 16s36.167 25 45.5 43v24c-23.333 8.66699 -49.666 13 -78.999 13c-22.667 0 -42 -2 -58 -6c-28.667 -9.33301 -43 -24.333 -43 -45c0 -16 7.16699 -27.5 21.5 -34.5s30.5 -10.5 48.5 -10.5z" />
    <glyph glyph-name="uni0431" unicode="&#x431;" horiz-adv-x="593" 
d="M506 743l24.999 -131c-33.333 -15.333 -75.666 -26 -126.999 -32c-56.667 -7.33301 -91 -12.666 -103 -15.999c-89.333 -22 -138.333 -71.667 -147 -149c40.667 50 101.667 75 183 75c71.333 0 128.5 -21.5 171.5 -64.5s64.5 -99.5 64.5 -169.5
c0 -80.667 -24.333 -145.167 -73 -193.5s-112.334 -72.5 -191.001 -72.5c-91.333 0 -161.5 29.167 -210.5 87.5s-73.5 133.166 -73.5 224.499c0 124 24.833 218.5 74.5 283.5s132.167 105.167 247.5 120.5c60.667 8 100 15 118 21c14.667 4 28.334 9.33301 41.001 16z
M174.999 278l-0.000976562 -16.001c0 -36.667 13.167 -68.667 39.5 -96s57.5 -41 93.5 -41c37.333 0 65.833 10.833 85.5 32.5s29.5 51.5 29.5 89.5c0 34.667 -10 61.334 -30 80.001s-47.333 28 -82 28c-63.333 0 -108.666 -25.667 -135.999 -77z" />
    <glyph glyph-name="uni0432" unicode="&#x432;" horiz-adv-x="531" 
d="M307 0l-261.999 0.000976562v520h227c23.333 0 44.333 -0.833008 63 -2.5s38.667 -5.5 60 -11.5s39.166 -14 53.499 -24s26.166 -24 35.499 -42s14 -39.333 14 -64c0 -14.667 -3 -30 -9 -46c-7.33301 -16.667 -20.333 -34.334 -39 -53.001
c20 -9.33301 35.167 -25 45.5 -47s15.5 -45 15.5 -69c0 -55.333 -19.667 -96 -59 -122s-87.666 -39 -144.999 -39zM287.001 201.001h-97v-71h103c45.333 0 68 11.333 68 34c0 13.333 -5.66699 23 -17 29c-12.667 5.33301 -31.667 8 -57 8zM269.001 390.001h-79v-64h109
c32.667 0 49 10.667 49 32c0 10 -4 18 -12 24c-8.66699 5.33301 -31 8 -67 8z" />
    <glyph glyph-name="uni0433" unicode="&#x433;" horiz-adv-x="456" 
d="M190 0h-145v520h406v-135h-261v-385z" />
    <glyph glyph-name="uni0434" unicode="&#x434;" horiz-adv-x="603" 
d="M140 -112h-135v247h59c34.667 70.667 52 178 52 322v63h412v-385h70v-247h-135v112h-323v-112zM383 385l-134 0.000976562v-32c0 -32.667 -3.33301 -71.834 -10 -117.501s-15.667 -79.167 -27 -100.5h171v250z" />
    <glyph glyph-name="uni0435" unicode="&#x435;" horiz-adv-x="558" 
d="M438 184l86.998 -88.001c-55.333 -69.333 -130 -104 -224 -104c-83.333 0 -151 24.667 -203 74s-78 114.333 -78 195c0 82 24.833 147.5 74.5 196.5s114.834 73.5 195.501 73.5c72.667 0 132.167 -22 178.5 -66s69.5 -101.667 69.5 -173
c0 -18.667 -2.66699 -46.667 -8 -84h-358c6.66699 -27.333 22.334 -47.666 47.001 -60.999s52.667 -20 84 -20c58.667 0 103.667 19 135 57zM284.998 400.999c-55.333 0 -92 -22.667 -110 -68h213c-12 45.333 -46.333 68 -103 68z" />
    <glyph glyph-name="uni0436" unicode="&#x436;" horiz-adv-x="765" 
d="M-7 0l194 286l-197 234h182l138 -177v177h145v-178l145 178h175l-198 -234l198 -286h-177l-123 198l-20 -24v-174h-145v173l-20 24l-125 -197h-172z" />
    <glyph glyph-name="uni0437" unicode="&#x437;" horiz-adv-x="507" 
d="M249 -12c-57.333 0 -106.001 10.167 -146.001 30.5s-73.667 54.166 -101 101.499l109 75c31.333 -51.333 78 -77 140 -77c21.333 0 41 3.83301 59 11.5s27 20.834 27 39.501c0 22 -20 33 -60 33h-108v125h103c32 0 48 11 48 33c0 16 -7.16699 27.5 -21.5 34.5
s-30.166 10.5 -47.499 10.5c-31.333 0 -57.333 -4.83301 -78 -14.5s-40.667 -26.5 -60 -50.5l-102 68c24 42.667 57.667 74.5 101 95.5s91 31.5 143 31.5c59.333 0 110 -12.5 152 -37.5s63 -64.5 63 -118.5c0 -38 -13 -70 -39 -96c37.333 -26.667 56 -64.667 56 -114
c0 -31.333 -7 -59 -21 -83s-32.833 -42.833 -56.5 -56.5s-49 -24 -76 -31s-55.167 -10.5 -84.5 -10.5z" />
    <glyph glyph-name="uni0438" unicode="&#x438;" horiz-adv-x="591" 
d="M401 283l-233 -283h-123v520h145v-283l233 283h123v-520h-145v283z" />
    <glyph glyph-name="uni0439" unicode="&#x439;" horiz-adv-x="591" 
d="M401 283l-233 -283h-123v520h145v-283l233 283h123v-520h-145v283zM123 738h133.002c1.33301 -35.333 18.666 -53 51.999 -53c32.667 0 49 17.667 49 53h132c-1.33301 -52 -18.833 -92.167 -52.5 -120.5s-76.5 -42.5 -128.5 -42.5c-54.667 0 -98.834 14 -132.501 42
s-51.167 68.333 -52.5 121z" />
    <glyph glyph-name="uni043A" unicode="&#x43a;" horiz-adv-x="557" 
d="M190 0h-145v520h145v-186l184 186h188l-236 -231l241 -289h-184l-161 197l-32 -33v-164z" />
    <glyph glyph-name="uni043B" unicode="&#x43b;" horiz-adv-x="581" 
d="M536 0l-144.999 0.000976562v385h-141v-14c0 -28 -0.666992 -53.167 -2 -75.5s-3.83301 -49.333 -7.5 -81s-10 -59.334 -19 -83.001s-20.333 -46.5 -34 -68.5s-31.834 -38.833 -54.501 -50.5s-49 -17.5 -79 -17.5c-18.667 0 -36 1.66699 -52 5v130
c4 -0.666992 10 -1 18 -1c24 0 41.5 7.33301 52.5 22s19.833 36 26.5 64c9.33301 39.333 14 103.333 14 192v113h423v-520z" />
    <glyph glyph-name="uni043C" unicode="&#x43c;" horiz-adv-x="663" 
d="M190 0h-145v520h128l162 -208l164 208h119v-520h-145v266l-137 -172l-146 175v-269z" />
    <glyph glyph-name="uni043D" unicode="&#x43d;" horiz-adv-x="579" 
d="M534 0h-145v195h-199v-195h-145v520h145v-190h199v190h145v-520z" />
    <glyph glyph-name="uni043E" unicode="&#x43e;" horiz-adv-x="604" 
d="M20 261c0 80 27 144.999 81 194.999s120.667 75 200 75c80.667 0 148 -25.167 202 -75.5s81 -115.166 81 -194.499c0 -80 -27.333 -144.833 -82 -194.5s-121.667 -74.5 -201 -74.5s-146 25.333 -200 76s-81 115 -81 193zM170 260.999c0 -38 12.5 -69.833 37.5 -95.5
s56.167 -38.5 93.5 -38.5c40 0 72.167 12.333 96.5 37s36.5 57 36.5 97c0 39.333 -12.333 71.666 -37 96.999s-56.667 38 -96 38s-71 -12.667 -95 -38s-36 -57.666 -36 -96.999z" />
    <glyph glyph-name="uni043F" unicode="&#x43f;" horiz-adv-x="573" 
d="M528 0h-145v385h-193v-385h-145v520h483v-520z" />
    <glyph glyph-name="uni0440" unicode="&#x440;" horiz-adv-x="582" 
d="M190 -200l-145.002 -0.000976562v720h145v-27c12.667 12 30.334 21.333 53.001 28s43.667 10 63 10c78 0 140.167 -24.667 186.5 -74s69.5 -112.333 69.5 -189c0 -79.333 -24 -145.166 -72 -197.499s-110.667 -78.5 -188 -78.5c-61.333 0 -98.666 8.66699 -111.999 26
v-218zM289.998 395.999c-44.667 0 -78 -19.667 -100 -59v-166c8 -13.333 21 -24 39 -32s35.667 -12 53 -12c39.333 0 70.833 11.833 94.5 35.5s35.5 55.167 35.5 94.5c0 42.667 -10 76.5 -30 101.5s-50.667 37.5 -92 37.5z" />
    <glyph glyph-name="uni0441" unicode="&#x441;" horiz-adv-x="540" 
d="M431 195l106.001 -62.999c-22.667 -44 -55 -78.333 -97 -103s-88 -37 -138 -37c-82.667 0 -150.334 24.667 -203.001 74s-79 114.333 -79 195c0 79.333 26.167 144.166 78.5 194.499s117.833 75.5 196.5 75.5c52 0 99.833 -10.667 143.5 -32s75.167 -54 94.5 -98
l-108 -70c-17.333 22.667 -35 39.167 -53 49.5s-40.667 15.5 -68 15.5c-40 0 -72.333 -12.5 -97 -37.5s-37 -57.5 -37 -97.5c0 -39.333 14.667 -71.5 44 -96.5s64 -37.5 104 -37.5c48 0 85.667 22.667 113 68z" />
    <glyph glyph-name="uni0442" unicode="&#x442;" horiz-adv-x="509" 
d="M181 385h-177v135h501v-135h-179v-385h-145v385z" />
    <glyph glyph-name="uni0443" unicode="&#x443;" horiz-adv-x="557" 
d="M417 520h155l-293 -720h-157l107 244l-249 476h169l151 -302z" />
    <glyph glyph-name="uni0444" unicode="&#x444;" horiz-adv-x="749" 
d="M447 -200h-144.999v190h-6c-84 0 -151.333 24.333 -202 73s-76 114 -76 196c0 80 26.333 145 79 195s118.667 75 198 75h7v201h145v-201h8c81.333 0 147.666 -25 198.999 -75s77 -115 77 -195c0 -83.333 -25.833 -149 -77.5 -197s-118.5 -72 -200.5 -72h-6v-190z
M168.001 259c0 -42 10.833 -74.833 32.5 -98.5s53.5 -35.5 95.5 -35.5h6v269h-7c-84.667 0 -127 -45 -127 -135zM453.001 394h-5.99902v-269h6c45.333 0 78 10.833 98 32.5s30 55.5 30 101.5c0 60 -18 100 -54 120c-20.667 10 -45.334 15 -74.001 15z" />
    <glyph glyph-name="uni0445" unicode="&#x445;" horiz-adv-x="576" 
d="M402 520h175l-199 -252l208 -268h-180l-119 159l-123 -159h-174l208 267l-198 253h179l111 -141z" />
    <glyph glyph-name="uni0446" unicode="&#x446;" horiz-adv-x="595" 
d="M455 0h-410v520h145v-385h190v385h145v-385h65v-247h-135v112z" />
    <glyph glyph-name="uni0447" unicode="&#x447;" horiz-adv-x="550" 
d="M360 520h145.002v-520h-145v185c-31.333 -23.333 -71.333 -35 -120 -35c-143.333 0 -215 69 -215 207v163h145v-107c0 -45.333 7 -78 21 -98s41.667 -30 83 -30c15.333 0 31.166 4 47.499 12s29.166 18 38.499 30v193z" />
    <glyph glyph-name="uni0448" unicode="&#x448;" horiz-adv-x="749" 
d="M704 0h-659v520h145v-385h112v385h145v-385h112v385h145v-520z" />
    <glyph glyph-name="uni0449" unicode="&#x449;" horiz-adv-x="774" 
d="M634 0h-589v520h145v-385h112v385h145v-385h112v385h145v-385h65v-247h-135v112z" />
    <glyph glyph-name="uni044A" unicode="&#x44a;" horiz-adv-x="595" 
d="M124 385l-119 -0.000976562v135h264v-136h84c70 0 125.333 -15.5 166 -46.5s61 -79.5 61 -145.5c0 -65.333 -22 -113.666 -66 -144.999s-99.667 -47 -167 -47h-223v385zM344 248.999h-75v-114h75c57.333 0 86 18.667 86 56c0 19.333 -6.66699 34 -20 44
c-14.667 9.33301 -36.667 14 -66 14z" />
    <glyph glyph-name="uni044B" unicode="&#x44b;" horiz-adv-x="703" 
d="M249 0l-203.999 0.000976562v520h145v-138h66c69.333 0 124.666 -15.333 165.999 -46s62 -78.667 62 -144c0 -64.667 -22.5 -112.834 -67.5 -144.501s-100.833 -47.5 -167.5 -47.5zM248.001 247.001h-58v-112h57c58 0 87 18.667 87 56c0 16 -4.66699 28.333 -14 37
s-19.5 14 -30.5 16s-24.833 3 -41.5 3zM658.001 0.000976562h-145v520h145v-520z" />
    <glyph glyph-name="uni044C" unicode="&#x44c;" horiz-adv-x="517" 
d="M268 0l-223.001 -0.000976562v520h145v-138h85c70 0 125.333 -15.167 166 -45.5s61 -78.5 61 -144.5c0 -65.333 -22.167 -113.666 -66.5 -144.999s-100.166 -47 -167.499 -47zM264.999 246.999h-75v-112h75c58 0 87 18.667 87 56c0 16 -4.83301 28.333 -14.5 37
s-20 14 -31 16s-24.833 3 -41.5 3z" />
    <glyph glyph-name="uni044D" unicode="&#x44d;" horiz-adv-x="552" 
d="M381 203h-197.996v125h195c-10.667 26.667 -26.834 44.667 -48.501 54s-48.834 14 -81.501 14c-26.667 0 -52.667 -6 -78 -18s-45 -28.667 -59 -50l-104 78c61.333 83.333 147.333 125 258 125c81.333 0 146.166 -24.5 194.499 -73.5s72.5 -114.5 72.5 -196.5
c0 -82.667 -25.833 -148.167 -77.5 -196.5s-118.5 -72.5 -200.5 -72.5c-52.667 0 -102.334 10 -149.001 30s-80 50.667 -100 92l105 75c30 -41.333 73 -62 129 -62c76.667 0 124 25.333 142 76z" />
    <glyph glyph-name="uni044E" unicode="&#x44e;" horiz-adv-x="803" 
d="M190 0l-144.999 0.000976562v520h145v-190h65c15.333 63.333 45.666 112.666 90.999 147.999s100.333 53 165 53c79.333 0 144.5 -25.5 195.5 -76.5s76.5 -115.5 76.5 -193.5c0 -79.333 -25.833 -144 -77.5 -194s-116.5 -75 -194.5 -75c-67.333 0 -124 18.5 -170 55.5
s-75.667 88.5 -89 154.5h-62v-202zM397.001 261.001c0 -38 9.83203 -69.833 29.499 -95.5s48.167 -38.5 85.5 -38.5c38.667 0 68.5 12.667 89.5 38s31.5 57.333 31.5 96c0 39.333 -10.667 71.666 -32 96.999s-51 38 -89 38c-27.333 0 -51.666 -9.66699 -72.999 -29
s-34 -42.666 -38 -69.999c-2.66699 -12.667 -4 -24.667 -4 -36z" />
    <glyph glyph-name="uni044F" unicode="&#x44f;" horiz-adv-x="533" 
d="M268 520l219.999 -0.000976562v-520h-145v157h-67l-107 -157h-167l133 182c-35.333 10.667 -61.666 30.5 -78.999 59.5s-26 62.833 -26 101.5c0 43.333 12.5 78.833 37.5 106.5s54.333 46.334 88 56.001s71.167 14.5 112.5 14.5zM179.999 336.999
c0 -30 24.667 -45 74 -45h89v93h-84c-52.667 0 -79 -16 -79 -48z" />
    <glyph glyph-name="uni0451" unicode="&#x451;" horiz-adv-x="558" 
d="M438 184l86.998 -88.001c-55.333 -69.333 -130 -104 -224 -104c-83.333 0 -151 24.667 -203 74s-78 114.333 -78 195c0 82 24.833 147.5 74.5 196.5s114.834 73.5 195.501 73.5c72.667 0 132.167 -22 178.5 -66s69.5 -101.667 69.5 -173
c0 -18.667 -2.66699 -46.667 -8 -84h-358c6.66699 -27.333 22.334 -47.666 47.001 -60.999s52.667 -20 84 -20c58.667 0 103.667 19 135 57zM284.998 400.999c-55.333 0 -92 -22.667 -110 -68h213c-12 45.333 -46.333 68 -103 68zM109.998 659.999
c0 20 7.83203 36.668 23.499 50.001s33.834 20 54.501 20c20 0 38.167 -6.83301 54.5 -20.5s24.5 -30.167 24.5 -49.5c0 -9.33301 -2.66699 -20 -8 -32c-6.66699 -12 -16.667 -21.667 -30 -29s-27 -11 -41 -11c-22 0 -40.5 6.66699 -55.5 20s-22.5 30.666 -22.5 51.999z
M313.997 660c0 14 4.33398 26.833 13.001 38.5s20 20.167 34 25.5c13.333 4 24.666 6 33.999 6c8.66699 0 19.667 -2 33 -6c13.333 -6 24.333 -14.667 33 -26s13 -24 13 -38c0 -21.333 -7.66699 -38.666 -23 -51.999s-34 -20 -56 -20s-41 6.66699 -57 20
s-24 30.666 -24 51.999z" />
    <glyph glyph-name="uni0452" unicode="&#x452;" horiz-adv-x="649" 
d="M120 520h-119.999v130h120v80h145v-80h197v-130h-197v-128c34 26 76.667 39 128 39c75.333 0 131.833 -22.167 169.5 -66.5s56.5 -104.833 56.5 -181.5c0 -84.667 -19.667 -161 -59 -229s-95.333 -122.333 -168 -163l-86 98c58 38 99.667 77.833 125 119.5
s38 95.5 38 161.5c0 84 -34 126 -102 126c-20.667 0 -40.334 -6.33301 -59.001 -19s-33 -28.667 -43 -48v-229h-145v520z" />
    <glyph glyph-name="uni0453" unicode="&#x453;" horiz-adv-x="456" 
d="M190 0h-145v520h406v-135h-261v-385zM297 833l109 -82l-132 -164l-100 70z" />
    <glyph glyph-name="uni0454" unicode="&#x454;" horiz-adv-x="541" 
d="M178 328h195v-125h-197c16.667 -50.667 60.667 -76 132 -76c51.333 0 91 19.333 119 58l108 -58c-19.333 -43.333 -50.833 -76.666 -94.5 -99.999s-90.5 -35 -140.5 -35c-80 0 -145.833 25.167 -197.5 75.5s-77.5 114.833 -77.5 193.5
c0 83.333 26.333 149.166 79 197.499s120.334 72.5 203.001 72.5c48.667 0 93.167 -9.16699 133.5 -27.5s71.5 -46.833 93.5 -85.5l-111 -72c-26.667 33.333 -65.667 50 -117 50c-64.667 0 -107.334 -22.667 -128.001 -68z" />
    <glyph glyph-name="uni0455" unicode="&#x455;" horiz-adv-x="496" 
d="M331 155c0 6.66699 -4.32812 12.3379 -12.9951 17.0049c-9.33301 5.33301 -28.333 12.333 -57 21c-28.667 8 -52.667 15 -72 21c-42.667 11.333 -78.834 30.166 -108.501 56.499s-44.5 59.5 -44.5 99.5c0 38.667 12 70.667 36 96s51.833 42.5 83.5 51.5
s66.5 13.5 104.5 13.5c41.333 0 82.166 -8.16699 122.499 -24.5s71.5 -39.5 93.5 -69.5l-99 -95c-35.333 36 -84 54 -146 54c-30 0 -45 -8.33301 -45 -25c0 -5.33301 4.33301 -10 13 -14c7.33301 -4 28 -10.667 62 -20l60.5 -17.5
c14.333 -4.33301 33.166 -11.833 56.499 -22.5s41.333 -21.667 54 -33s24 -26.333 34 -45s15 -39.667 15 -63c0 -38.667 -11.5 -70.834 -34.5 -96.501s-50.333 -43.334 -82 -53.001s-66.167 -14.5 -103.5 -14.5c-50.667 0 -99.334 10.667 -146.001 32
s-81 52.666 -103 93.999l115 78c16 -20.667 38.167 -37.334 66.5 -50.001s56.166 -19 83.499 -19c36 0 54 9.33301 54 28z" />
    <glyph glyph-name="uni0456" unicode="&#x456;" horiz-adv-x="253" 
d="M199 0h-145v520h145v-520zM45 658c0 21.333 8.33398 38.666 25.001 51.999s35.667 20 57 20c22 0 41 -6.66699 57 -20s24 -30.666 24 -51.999c0 -22 -7.83301 -39.833 -23.5 -53.5s-34.834 -20.5 -57.501 -20.5s-42 6.66699 -58 20s-24 31.333 -24 54z" />
    <glyph glyph-name="uni0457" unicode="&#x457;" horiz-adv-x="235" 
d="M190 0h-145v520h145v-520zM-40 657c0 20 7.66699 37.167 23 51.5s33 21.5 53 21.5c18.667 0 35.5 -7.33301 50.5 -22s22.5 -31.667 22.5 -51c0 -18.667 -7.5 -35.834 -22.5 -51.501s-31.833 -23.5 -50.5 -23.5c-21.333 0 -39.333 7.33301 -54 22s-22 32.334 -22 53.001z
M126 657c0 20 7.66797 37.166 23.001 51.499s33 21.5 53 21.5c19.333 0 36.666 -7.33301 51.999 -22s23 -31.667 23 -51c0 -20 -7.5 -37.5 -22.5 -52.5s-32.5 -22.5 -52.5 -22.5c-20.667 0 -38.5 7.33301 -53.5 22s-22.5 32.334 -22.5 53.001z" />
    <glyph glyph-name="uni0458" unicode="&#x458;" horiz-adv-x="252" 
d="M55 520h144.999v-518c0 -64.667 -14.833 -116 -44.5 -154s-75.834 -57 -138.501 -57c-91.333 0 -153.666 40 -186.999 120l127 49c10.667 -22.667 26.334 -34 47.001 -34c34 0 51 26.333 51 79v515zM44.999 659c0 22.667 8 40.332 24 52.999s35.667 19 59 19
c22 0 40.667 -6.66699 56 -20s23 -30.666 23 -51.999c0 -22.667 -7.33301 -40.667 -22 -54s-33.667 -20 -57 -20s-43 6.66699 -59 20s-24 31.333 -24 54z" />
    <glyph glyph-name="uni0459" unicode="&#x459;" horiz-adv-x="823" 
d="M388 0l0.000976562 385.001h-138v-14c0 -28 -0.666992 -53.167 -2 -75.5s-3.83301 -49.333 -7.5 -81s-10 -59.334 -19 -83.001s-20.333 -46.5 -34 -68.5s-31.834 -38.833 -54.501 -50.5s-49 -17.5 -79 -17.5c-18.667 0 -36 1.66699 -52 5v130c4 -0.666992 10 -1 18 -1
c24 0 41.5 7.33301 52.5 22s19.833 36 26.5 64c9.33301 39.333 14 103.333 14 192v113h420v-148h48c151.333 0 227 -61.667 227 -185c0 -64 -22.167 -111.167 -66.5 -141.5s-99.833 -45.5 -166.5 -45.5h-187zM573.001 237.001l-40 -0.000976562v-102h52
c22.667 0 40.5 3.33301 53.5 10s19.5 20.334 19.5 41.001c0 18.667 -6.33301 32 -19 40c-13.333 7.33301 -35.333 11 -66 11z" />
    <glyph glyph-name="uni045A" unicode="&#x45a;" horiz-adv-x="821" 
d="M190 0l-145 0.00195312v520h145v-169h197v169h145v-169h47c70.667 0 126.167 -12.833 166.5 -38.5s60.5 -70.834 60.5 -135.501c0 -33.333 -6.5 -62 -19.5 -86s-31 -42.333 -54 -55s-47.5 -21.834 -73.5 -27.501s-54.667 -8.5 -86 -8.5h-186v216h-197v-216zM572 216.002
h-39.999v-81h39c31.333 0 53.333 3.33301 66 10c12.667 6 19 16.333 19 31c0 14 -6.33301 24.333 -19 31c-12.667 6 -34.334 9 -65.001 9z" />
    <glyph glyph-name="uni045B" unicode="&#x45b;" horiz-adv-x="646" 
d="M120 520h-120.001v130h120v80h145v-80h197v-130h-197v-141c32.667 28 77 42 133 42c142 0 213 -79.667 213 -239v-182h-145v174c0 36.667 -7.5 64.5 -22.5 83.5s-40.5 28.5 -76.5 28.5c-14 0 -28.667 -3 -44 -9c-29.333 -14 -48.666 -32.333 -57.999 -55v-222h-145v520z
" />
    <glyph glyph-name="uni045C" unicode="&#x45c;" horiz-adv-x="557" 
d="M190 0h-145v520h145v-186l184 186h188l-236 -231l241 -289h-184l-161 197l-32 -33v-164zM314 833l109 -82l-132 -164l-100 70z" />
    <glyph glyph-name="uni045E" unicode="&#x45e;" horiz-adv-x="557" 
d="M417 521h155l-293 -720h-157l107 244l-249 476h169l151 -302zM103 738h133.002c1.33301 -35.333 18.666 -53 51.999 -53c32.667 0 49 17.667 49 53h132c-1.33301 -52 -18.833 -92.167 -52.5 -120.5s-76.5 -42.5 -128.5 -42.5c-54.667 0 -98.834 14 -132.501 42
s-51.167 68.333 -52.5 121z" />
    <glyph glyph-name="uni045F" unicode="&#x45f;" horiz-adv-x="583" 
d="M224 0h-179v520h145v-385h203v385h145v-520h-179v-130h-135v130z" />
    <glyph glyph-name="uni0462" unicode="&#x462;" horiz-adv-x="707" 
d="M115 485h-115v145h115v70h155v-70h215v-145h-215v-57h133c42 0 79 -2.83301 111 -8.5s62.667 -15.667 92 -30s51.833 -36 67.5 -65s23.5 -65.167 23.5 -108.5c0 -144 -100.667 -216 -302 -216h-280v485zM401 283h-131.001v-138h128c47.333 0 82.333 4.66699 105 14
c22 8.66699 33 27.667 33 57c0 24.667 -8.66699 42 -26 52s-53.666 15 -108.999 15z" />
    <glyph glyph-name="uni0463" unicode="&#x463;" horiz-adv-x="587" 
d="M417 520v-130.002h-157v-48h85c42.667 0 80 -4.66699 112 -14s59.167 -27.166 81.5 -53.499s33.5 -60.5 33.5 -102.5c0 -32 -6.83301 -59.667 -20.5 -83s-32.167 -41.166 -55.5 -53.499s-48 -21.333 -74 -27s-54 -8.5 -84 -8.5h-223v390h-110v130h110v210h145v-210h157z
M335 206.998h-75v-72h75c31.333 0 54 2.66699 68 8c12.667 4.66699 19 14 19 28c0 11.333 -4.33301 20.333 -13 27c-9.33301 6 -34 9 -74 9z" />
    <glyph glyph-name="uni0472" unicode="&#x472;" horiz-adv-x="781" 
d="M30 350c0 100.667 35.167 185.5 105.5 254.5s155.5 103.5 255.5 103.5c102 0 187.5 -34.5 256.5 -103.5s103.5 -153.833 103.5 -254.5s-35 -185.5 -105 -254.5s-155 -103.5 -255 -103.5c-102 0 -187.667 34.5 -257 103.5s-104 153.833 -104 254.5zM391 142
c44 0 83.498 12.5 118.498 37.5s58.5 58.167 70.5 99.5h-379c12.667 -40.667 36.834 -73.667 72.501 -99s74.834 -38 117.501 -38zM390.998 558c-43.333 0 -82.501 -12.167 -117.501 -36.5s-58.833 -56.833 -71.5 -97.5h376c-13.333 40.667 -37.166 73.167 -71.499 97.5
s-72.833 36.5 -115.5 36.5z" />
    <glyph glyph-name="uni0473" unicode="&#x473;" horiz-adv-x="604" 
d="M20 261c0 80 27 144.999 81 194.999s120.667 75 200 75c80.667 0 148 -25.167 202 -75.5s81 -115.166 81 -194.499c0 -80 -27.333 -144.833 -82 -194.5s-121.667 -74.5 -201 -74.5s-146 25.333 -200 76s-81 115 -81 193zM301 126.999c26.667 0 50.834 6 72.501 18
s37.5 29.667 47.5 53h-237c10 -22 25.667 -39.333 47 -52s44.666 -19 69.999 -19zM301 395.999c-54 0 -93 -22.667 -117 -68h235c-11.333 21.333 -27.5 38 -48.5 50s-44.167 18 -69.5 18z" />
    <glyph glyph-name="uni0474" unicode="&#x474;" horiz-adv-x="769" 
d="M649 495l-222 -495h-108l-329 700h168l216 -474l141 333c18.667 42 44 77.5 76 106.5s68.333 43.5 109 43.5c32.667 0 65.667 -11 99 -33l-58 -129c-8 6 -17.333 9 -28 9c-26.667 -2.66699 -48 -23 -64 -61z" />
    <glyph glyph-name="uni0475" unicode="&#x475;" horiz-adv-x="570" 
d="M458 306l-133.998 -306h-110l-239 520h163l133 -300l82 194c30.667 76 80.667 114 150 114c41.333 -0.666992 77 -15 107 -43l-61 -110c-6.66699 6.66699 -15.334 10 -26.001 10c-20.667 0 -42.334 -26.333 -65.001 -79z" />
    <glyph glyph-name="uni0490" unicode="&#x490;" horiz-adv-x="590" 
d="M220 0h-155v700h380v115h145v-260h-370v-555z" />
    <glyph glyph-name="uni0491" unicode="&#x491;" horiz-adv-x="456" 
d="M190 0h-145v520h271v94h135v-229h-261v-385z" />
    <glyph glyph-name="uni1E9E" unicode="&#x1e9e;" horiz-adv-x="657" 
d="M356 708c89.333 0 158.999 -29.667 208.999 -89c16.667 -22 28.334 -45.333 35.001 -70l-120 -146c48 -8 84.5 -28.833 109.5 -62.5s37.5 -75.167 37.5 -124.5c0 -70 -23.5 -125.333 -70.5 -166s-105.5 -61 -175.5 -61c-41.333 0 -82 10 -122 30l47 134
c26 -12.667 48 -19 66 -19c26.667 0 50 6.83301 70 20.5s30 33.167 30 58.5c0 50.667 -35.667 76 -107 76h-49v117l112 128c-18 19.333 -46.667 29 -86 29c-84.667 0 -127 -49 -127 -147v-416h-155v436c0 181.333 98.667 272 296 272z" />
    <glyph glyph-name="uni2010" unicode="&#x2010;" horiz-adv-x="424" 
d="M364 217h-304v130h304v-130z" />
    <glyph glyph-name="uni2011" unicode="&#x2011;" horiz-adv-x="424" 
d="M364 217h-304v130h304v-130z" />
    <glyph glyph-name="uni2012" unicode="&#x2012;" horiz-adv-x="616" 
d="M536 301h-456v126h456v-126z" />
    <glyph glyph-name="uni2013" unicode="&#x2013;" horiz-adv-x="616" 
d="M536 217h-456v126h456v-126z" />
    <glyph glyph-name="uni2014" unicode="&#x2014;" horiz-adv-x="796" 
d="M716 217h-636v126h636v-126z" />
    <glyph glyph-name="uni2018" unicode="&#x2018;" horiz-adv-x="251" 
d="M209 519l-122 -76c-38 43.333 -57 81 -57 113c0 69.333 42.667 130 128 182l63 -55c-29.333 -27.333 -44 -57.333 -44 -90c0 -20 10.667 -44.667 32 -74z" />
    <glyph glyph-name="uni2019" unicode="&#x2019;" horiz-adv-x="251" 
d="M42 662l122 76c38 -43.333 57 -81 57 -113c0 -69.333 -42.667 -130 -128 -182l-63 55c29.333 27.333 44 57.333 44 90c0 20 -10.667 44.667 -32 74z" />
    <glyph glyph-name="uni201A" unicode="&#x201a;" horiz-adv-x="251" 
d="M42 88l122 76.001c38 -42.667 57 -80.334 57 -113.001c0 -69.333 -42.667 -130 -128 -182l-63 55c29.333 27.333 44 57.333 44 90c0 20 -10.667 44.667 -32 74z" />
    <glyph glyph-name="uni201C" unicode="&#x201c;" horiz-adv-x="451" 
d="M209 519l-122 -76c-38 43.333 -57 81 -57 113c0 69.333 42.667 130 128 182l63 -55c-29.333 -27.333 -44 -57.333 -44 -90c0 -20 10.667 -44.667 32 -74zM409 519l-122 -76c-38 43.333 -57 81 -57 113c0 69.333 42.667 130 128 182l63 -55
c-29.333 -27.333 -44 -57.333 -44 -90c0 -20 10.667 -44.667 32 -74z" />
    <glyph glyph-name="uni201D" unicode="&#x201d;" horiz-adv-x="451" 
d="M242 662l122 76c38 -43.333 57 -81 57 -113c0 -69.333 -42.667 -130 -128 -182l-63 55c29.333 27.333 44 57.333 44 90c0 20 -10.667 44.667 -32 74zM42 662l122 76c38 -43.333 57 -81 57 -113c0 -69.333 -42.667 -130 -128 -182l-63 55c29.333 27.333 44 57.333 44 90
c0 20 -10.667 44.667 -32 74z" />
    <glyph glyph-name="uni201E" unicode="&#x201e;" horiz-adv-x="451" 
d="M242 88l122 76.001c38 -42.667 57 -80.334 57 -113.001c0 -69.333 -42.667 -130 -128 -182l-63 55c29.333 27.333 44 57.333 44 90c0 20 -10.667 44.667 -32 74zM42 88.001l122 76.001c38 -42.667 57 -80.334 57 -113.001c0 -69.333 -42.667 -130 -128 -182l-63 55
c29.333 27.333 44 57.333 44 90c0 20 -10.667 44.667 -32 74z" />
    <glyph glyph-name="uni2020" unicode="&#x2020;" horiz-adv-x="461" 
d="M153 375h-133v145h133v180h155v-180h133v-145h-133v-463h-155v463z" />
    <glyph glyph-name="uni2021" unicode="&#x2021;" horiz-adv-x="472" 
d="M163 376h-133v145h133v179h146v-179h133v-145h-133v-114h133v-145h-133v-205h-146v205h-133v145h133v114z" />
    <glyph glyph-name="uni2022" unicode="&#x2022;" horiz-adv-x="324" 
d="M60 360c0 26 10.5 48 31.5 66s44.833 27 71.5 27s50.167 -9 70.5 -27s30.5 -40 30.5 -66s-10.333 -48 -31 -66s-44 -27 -70 -27c-13.333 0 -27.666 3.33301 -42.999 10c-16.667 6 -30.834 17 -42.501 33s-17.5 32.667 -17.5 50z" />
    </font>
</defs>
</svg>
