<svg width="297" height="31" viewBox="0 0 297 31" fill="none" xmlns="http://www.w3.org/2000/svg">
<path d="M5.904 30L18.168 14.04C18.798 13.2 20.352 10.596 20.772 10.512C20.688 11.982 20.688 13.074 20.688 14.334V30H27.492V0.599998H21.696L9.558 16.56C8.928 17.4 7.206 20.382 6.87 20.466C6.912 18.912 6.996 17.526 6.996 15.426V0.599998H0.192V30H5.904ZM53.8578 30H60.6618V0.599998H53.8578V12.066H40.6698V0.599998H33.8658V30H40.6698V18.282H53.8578V30ZM67.0475 30H73.8515V6.774H89.4335V0.599998H67.0475V30ZM105.396 0.264C96.4918 0.264 89.9818 6.438 89.9818 15.3C89.9818 24.162 96.4078 30.336 105.396 30.336C114.342 30.336 120.852 24.162 120.852 15.3C120.852 6.438 114.426 0.264 105.396 0.264ZM105.396 24.414C100.272 24.414 96.7018 20.928 96.7018 15.3C96.7018 9.63 100.272 6.186 105.396 6.186C110.562 6.186 114.132 9.63 114.132 15.3C114.132 20.928 110.562 24.414 105.396 24.414ZM139.894 24.582C134.686 24.582 131.032 21.054 131.032 15.342C131.032 9.63 134.686 6.102 139.894 6.102C142.624 6.102 144.892 6.858 146.782 8.496L150.814 4.506C148.084 1.902 144.43 0.137999 139.81 0.137999C130.822 0.137999 124.312 6.354 124.312 15.342C124.312 24.288 130.822 30.546 139.81 30.546C144.43 30.546 148.084 28.782 150.814 26.178L146.782 22.188C144.892 23.826 142.624 24.582 139.894 24.582ZM168.605 24.582C163.397 24.582 159.743 21.054 159.743 15.342C159.743 9.63 163.397 6.102 168.605 6.102C171.335 6.102 173.603 6.858 175.493 8.496L179.525 4.506C176.795 1.902 173.141 0.137999 168.521 0.137999C159.533 0.137999 153.023 6.354 153.023 15.342C153.023 24.288 159.533 30.546 168.521 30.546C173.141 30.546 176.795 28.782 179.525 26.178L175.493 22.188C173.603 23.826 171.335 24.582 168.605 24.582ZM182.396 6.606H191.93V30H198.734V6.606H208.268V0.599998H182.396V6.606ZM218.514 30V21.432H224.268C233.886 21.432 237.078 16.014 237.078 11.058C237.078 6.018 234.642 0.599998 224.646 0.599998H211.71V30H218.514ZM224.016 6.396C228.51 6.396 230.064 8.58 230.064 11.016C230.064 13.662 228.342 15.636 223.764 15.636H218.514V6.396H224.016ZM235.213 30H241.723L244.159 24.582H257.179L259.573 30H266.293L253.399 0.599998H248.107L235.213 30ZM249.157 13.368C249.535 12.444 250.543 9.378 250.879 9.294C251.215 10.47 251.551 11.436 251.971 12.444L254.617 18.996H246.595L249.157 13.368ZM295.841 0.599998H287.861L281.099 10.134L274.379 0.599998H266.483L277.025 15.09L266.063 30H274.001L281.099 20.004L288.197 30H296.177L285.215 15.09L295.841 0.599998Z" fill="#0047BB"/>
</svg>
